<?xml version="1.0" encoding="UTF-8"?>
<svg width="48px" height="30px" viewBox="0 0 48 30" version="1.1" xmlns="http://www.w3.org/2000/svg" xmlns:xlink="http://www.w3.org/1999/xlink">
    <!-- Generator: Sketch 41.2 (35397) - http://www.bohemiancoding.com/sketch -->
    <title>icon-top-lifesense logo</title>
    <desc>Created with Sketch.</desc>
    <defs>
        <polygon id="path-1" points="0.177213793 22.3636364 19.4638345 22.3636364 19.4638345 0.0679946862 0.177213793 0.0679946862"></polygon>
    </defs>
    <g id="首页" stroke="none" stroke-width="1" fill="none" fill-rule="evenodd">
        <g id="Page-1">
            <g id="Group-5" transform="translate(0.000000, 5.353636)" fill="#9ED900">
                <path d="M13.3741609,11.6077818 L14.3382069,10.6519636 L9.99062069,6.35614545 C9.18252874,5.55669091 7.87475862,5.55796364 7.06924138,6.35614545 L0.604873563,12.7461455 C-0.201563218,13.5434182 -0.201563218,14.8368727 0.604873563,15.6352364 C1.41241379,16.4336 2.71871264,16.4314182 3.52717241,15.6352364 L6.46436782,12.7314182 L6.46436782,18.7666909 C6.46436782,19.8943273 7.38924138,20.8085091 8.52928736,20.8085091 C9.66914943,20.8085091 10.5977011,19.8943273 10.5977011,18.7666909 L10.5977011,12.7305091 L13.5348966,15.6352364 C13.8854253,15.9834182 14.3332414,16.1806909 14.7931954,16.2236 C14.2718161,16.1225091 13.7756322,15.8750545 13.3741609,15.4752364 C12.2944368,14.4072364 12.2944368,12.6745091 13.3741609,11.6077818" id="Fill-1"></path>
                <path d="M8.52934253,4.966 C9.91637701,4.966 11.0409747,3.85509091 11.0409747,2.48545455 C11.0409747,1.11436364 9.91637701,0.00381818182 8.52934253,0.00381818182 C7.14433103,0.00381818182 6.02138851,1.11436364 6.02138851,2.48545455 C6.02138851,3.85509091 7.14433103,4.966 8.52934253,4.966" id="Fill-3"></path>
            </g>
            <path d="M33.2147126,21.5678182 C33.6553563,21.5161818 34.0831264,21.3234545 34.4213333,20.9889091 L34.4213333,20.9889091 L34.454069,20.9556364 C34.0884598,21.2703636 33.6614253,21.4745455 33.2147126,21.5678182" id="Fill-6"></path>
            <g id="Group-23" transform="translate(12.505747, 0.080909)">
                <path d="M34.8431816,18.0188182 L28.3808368,11.6288182 C27.9926069,11.2444545 27.4673655,11.0293636 26.9187678,11.0293636 C26.3694345,11.0293636 25.8434575,11.2444545 25.4576184,11.6288182 L21.1190437,15.9179091 L22.0909977,16.8804545 C23.1251126,17.9022727 23.1685149,19.5320909 22.218446,20.6066364 L24.8527448,18.0040909 L24.8527448,24.0393636 C24.8527448,25.167 25.7785379,26.0813636 26.9187678,26.0813636 C28.0615724,26.0813636 28.9846069,25.167 28.9846069,24.0393636 L28.9846069,18.0040909 L31.9229057,20.9080909 C32.3240092,21.3064545 32.8536644,21.5059091 33.3818483,21.5059091 C33.9116874,21.5059091 34.4395034,21.3064545 34.8431816,20.9080909 C35.6505379,20.1095455 35.6505379,18.8160909 34.8431816,18.0188182" id="Fill-8" fill="#00A1E9"></path>
                <path d="M26.9187862,10.2387273 C28.3054529,10.2387273 29.427108,9.12781818 29.427108,7.75818182 C29.427108,6.38709091 28.3054529,5.27654545 26.9187862,5.27654545 C25.5334069,5.27654545 24.4067862,6.38709091 24.4067862,7.75818182 C24.4067862,9.12781818 25.5334069,10.2387273 26.9187862,10.2387273" id="Fill-10" fill="#00A1E9"></path>
                <path id="Fill-12" fill="#D81982"></path>
                <g id="Group-16" transform="translate(1.655172, 7.454545)">
                    <mask id="mask-2" fill="white">
                        <use xlink:href="#path-1"></use>
                    </mask>
                    <g id="Clip-15"></g>
                    <path d="M17.3393287,13.4534727 C16.5314207,12.6545636 16.5314207,11.3614727 17.3393287,10.5642 L19.4638345,8.46347273 L11.7796046,0.866018182 C10.6978575,-0.198709091 8.94981149,-0.198709091 7.86769655,0.8702 L0.177213793,8.4702 L2.2962023,10.5642 C3.10208736,11.3614727 3.10208736,12.6545636 2.2962023,13.4534727 C1.89473103,13.8518364 1.36231724,14.0512909 0.835604598,14.0512909 C0.767374713,14.0512909 0.69988046,14.0485636 0.632202299,14.0416545 C0.810777011,14.0765636 0.9888,14.0942 1.17031724,14.0942 C1.87615632,14.0942 2.58548966,13.8272909 3.12507586,13.2932909 L7.05647816,9.40656364 L7.05647816,19.6287455 C7.05647816,21.1389273 8.29436322,22.3636545 9.82282299,22.3636545 C11.350731,22.3636545 12.5891678,21.1389273 12.5891678,19.6287455 L12.5891678,9.40656364 L16.5251678,13.2932909 C17.2113287,13.9712909 18.1685701,14.2176545 19.0537195,14.0325636 C18.4436966,14.1069273 17.8075586,13.9165636 17.3393287,13.4534727" id="Fill-14" fill="#FF0097" mask="url(#mask-2)"></path>
                </g>
                <path d="M3.95130115,20.9080182 C4.75718621,20.1091091 4.75718621,18.8160182 3.95130115,18.0187455 L1.83249655,15.9247455 L0.868450575,16.8805636 C-0.211273563,17.9472909 -0.211273563,19.6800182 0.868450575,20.7478364 C1.26992184,21.1476545 1.76610575,21.3952909 2.28748506,21.4962 C2.35497931,21.5031091 2.42247356,21.5058364 2.49088736,21.5058364 C3.01741609,21.5058364 3.54982989,21.3063818 3.95130115,20.9080182" id="Fill-17" fill="#A01E5A"></path>
                <path d="M22.0909425,16.8805091 L21.1189885,15.9179636 L18.9944828,18.0188727 C18.1867586,18.8161455 18.1867586,20.1092364 18.9944828,20.9079636 C19.4627126,21.3710545 20.0988506,21.5614182 20.7088736,21.4870545 C21.1557701,21.3936 21.5828046,21.1894182 21.9484138,20.8748727 L22.2183908,20.6066909 C23.1684598,19.5321455 23.1250575,17.9023273 22.0909425,16.8805091" id="Fill-19" fill="#095AB4"></path>
                <path d="M11.477977,6.53409091 C13.2777011,6.53409091 14.7325977,5.09518182 14.7325977,3.31736364 C14.7325977,1.54245455 13.2777011,0.101 11.477977,0.101 C9.68358621,0.101 8.22611494,1.54245455 8.22611494,3.31736364 C8.22611494,5.09518182 9.68358621,6.53409091 11.477977,6.53409091" id="Fill-21" fill="#FF0097"></path>
            </g>
        </g>
    </g>
</svg>