<?xml version="1.0" encoding="UTF-8"?>
<svg width="30px" height="30px" viewBox="0 0 30 30" version="1.1" xmlns="http://www.w3.org/2000/svg" xmlns:xlink="http://www.w3.org/1999/xlink">
    <!-- Generator: Sketch 41.2 (35397) - http://www.bohemiancoding.com/sketch -->
    <title>icon-index-notice</title>
    <desc>Created with Sketch.</desc>
    <defs></defs>
    <g id="首页" stroke="none" stroke-width="1" fill="none" fill-rule="evenodd">
        <path d="M16,8.15679442 C17.5411457,8.65194085 18.6706153,10.2630517 18.6706153,12.173913 L18.6706153,15.3246957 C18.6706153,16.5486957 19.2276311,17.6850435 20.1434496,18.3283478 L20.762866,18.8130435 C21.1267157,19.0973913 21.0592681,19.7292174 20.6467827,19.9066087 C20.5031699,19.9681739 20.3508394,20 20.1971324,20 L15,20 L15,8.5 L15,7 L16,7 L16,8.15679442 Z M15,30 C23.2842712,30 30,23.2842712 30,15 C30,6.71572875 23.2842712,0 15,0 C6.71572875,0 0,6.71572875 0,15 C0,23.2842712 6.71572875,30 15,30 Z M15,8 C12.9729027,8 11.3293847,9.86886957 11.3293847,12.173913 L11.3293847,15.3246957 C11.3293847,16.5486957 10.7723689,17.6850435 9.85655037,18.3283478 L9.23713405,18.8130435 C8.87328431,19.0973913 8.94073187,19.7292174 9.35321726,19.9066087 C9.49683008,19.9681739 9.64916061,20 9.80286762,20 L15,20 L15,8 Z M13,21 C13.0817464,22.1173333 13.9407029,23 15.0003096,23 C16.0592971,23 16.9182536,22.1173333 17,21 L13,21 Z" id="Combined-Shape" fill="#FF9404"></path>
    </g>
</svg>