<?xml version="1.0" encoding="UTF-8"?>
<svg width="20px" height="20px" viewBox="0 0 20 20" version="1.1" xmlns="http://www.w3.org/2000/svg" xmlns:xlink="http://www.w3.org/1999/xlink">
    <!-- Generator: Sketch 41.2 (35397) - http://www.bohemiancoding.com/sketch -->
    <title>icon-todo-data exception</title>
    <desc>Created with Sketch.</desc>
    <defs></defs>
    <g id="首页" stroke="none" stroke-width="1" fill="none" fill-rule="evenodd">
        <path d="M10,0 C8.62178769,0 7.32372308,0.260415385 6.10576923,0.781249231 C4.88781538,1.30208615 3.82612615,2.01521846 2.92067323,2.92067385 C2.01521969,3.82612615 1.30208585,4.88781538 0.781249846,6.10576923 C0.260414062,7.32372308 0,8.62178769 0,10 C0,11.3782123 0.260414062,12.6762769 0.781249846,13.8942308 C1.30208585,15.1121846 2.01521969,16.1738738 2.92067323,17.0793268 C3.82612615,17.9847803 4.88781538,18.6979142 6.10576923,19.2187502 C7.32372308,19.7395859 8.62178769,20 10,20 C11.3782123,20 12.6762769,19.7395859 13.8942308,19.2187502 C15.1121846,18.6979142 16.1738738,17.9847803 17.0793262,17.0793268 C17.9847815,16.1738738 18.6979138,15.1121846 19.2187508,13.8942308 C19.7395846,12.6762769 20,11.3782123 20,10 C20,8.62178769 19.7395846,7.32372308 19.2187508,6.10576923 C18.6979138,4.88781538 17.9847815,3.82612615 17.0793262,2.92067385 C16.1738738,2.01521846 15.1121846,1.30208615 13.8942308,0.781249231 C12.6762769,0.260415385 11.3782123,0 10,0 L10,0 Z M10,15.1428571 C9.72222133,15.1428571 9.486112,15.0456358 9.29166667,14.8511905 C9.09722133,14.6567451 9,14.4206358 9,14.1428571 C9,13.8650785 9.09722133,13.6289691 9.29166667,13.4345238 C9.486112,13.2400785 9.72222133,13.1428571 10,13.1428571 C10.2777787,13.1428571 10.513888,13.2400785 10.7083333,13.4345238 C10.9027787,13.6289691 11,13.8650785 11,14.1428571 C11,14.4206358 10.9027787,14.6567451 10.7083333,14.8511905 C10.513888,15.0456358 10.2777787,15.1428571 10,15.1428571 L10,15.1428571 Z M11,9.65604396 C11,9.94771156 10.9027787,10.1956264 10.7083333,10.399794 C10.513888,10.6039616 10.2777787,10.706044 10,10.706044 C9.72222133,10.706044 9.486112,10.6039616 9.29166667,10.399794 C9.09722133,10.1956264 9,9.94771156 9,9.65604396 L9,4.75604396 C9,4.46437636 9.09722133,4.21646156 9.29166667,4.01229396 C9.486112,3.80812636 9.72222133,3.70604396 10,3.70604396 C10.2777787,3.70604396 10.513888,3.80812636 10.7083333,4.01229396 C10.9027787,4.21646156 11,4.46437636 11,4.75604396 L11,9.65604396 Z" id="el-icon-information" fill="#E32E2E" transform="translate(10.000000, 10.000000) scale(1, -1) translate(-10.000000, -10.000000) "></path>
    </g>
</svg>