<?xml version="1.0" encoding="UTF-8"?>
<svg width="20px" height="20px" viewBox="0 0 20 20" version="1.1" xmlns="http://www.w3.org/2000/svg" xmlns:xlink="http://www.w3.org/1999/xlink">
    <!-- Generator: Sketch 41.2 (35397) - http://www.bohemiancoding.com/sketch -->
    <title>icon-todo-follow up</title>
    <desc>Created with Sketch.</desc>
    <defs></defs>
    <g id="首页" stroke="none" stroke-width="1" fill="none" fill-rule="evenodd">
        <path d="M10,20 C15.5228475,20 20,15.5228475 20,10 C20,4.4771525 15.5228475,0 10,0 C4.4771525,0 0,4.4771525 0,10 C0,15.5228475 4.4771525,20 10,20 Z M8.23376623,6.11385607 L8.23376623,7.00322234 L10.6883117,7.00322234 C10.6753247,7.42857143 10.6493506,8.04726101 10.6233766,8.87218045 C10.5714286,10.0966702 10.3896104,11.1922664 10.0649351,12.1589689 C9.71428571,13.1385607 9.02597403,14.2083781 8,15.3555317 L8.68831169,16 C9.55844156,15.0977444 10.2337662,14.0923738 10.7272727,12.9967777 C11.0909091,12.1331901 11.3376623,11.179377 11.4675325,10.122449 L14.1948052,10.122449 C14.1688312,12.2105263 14.1298701,13.5639098 14.0519481,14.1954887 C13.9350649,14.7110634 13.6233766,14.9688507 13.1168831,14.9946294 C12.6753247,14.9946294 12.1428571,14.9688507 11.4935065,14.943072 L11.7792208,15.7808808 C12.3246753,15.8066595 12.8051948,15.8324382 13.2207792,15.8324382 C14.0779221,15.8066595 14.6103896,15.4457573 14.8311688,14.7239527 C14.987013,13.9119227 15.0909091,12.0816327 15.1168831,9.24597207 L11.5454545,9.24597207 C11.5974026,8.29215897 11.6233766,7.54457573 11.6363636,7.00322234 L16,7.00322234 L16,6.11385607 L12.2207792,6.11385607 L12.6493506,5.94629431 C12.4155844,5.35338346 12.0779221,4.70891515 11.6623377,4 L10.7532468,4.25778733 C11.1428571,4.85069817 11.4675325,5.46938776 11.7532468,6.11385607 L8.23376623,6.11385607 Z M5.66666667,4 L5,4.69230769 C5.98666667,5.5 6.77333333,6.26442308 7.33333333,7 L8,6.26442308 C7.37333333,5.51442308 6.6,4.76442308 5.66666667,4 Z M4,8 L4,8.84293194 L5.6547619,8.84293194 L5.6547619,13.6561955 C5.6547619,13.8638743 5.55952381,14.0471204 5.39285714,14.2181501 L5.71428571,15 C6.52380952,14.4380454 7.28571429,13.7905759 8,13.069808 L7.77380952,12.1413613 C7.32142857,12.6055846 6.89285714,13.0209424 6.48809524,13.3752182 L6.48809524,8 L4,8 Z" id="Combined-Shape" fill="#F8BC30"></path>
    </g>
</svg>