<?xml version="1.0" encoding="UTF-8"?>
<svg width="40px" height="40px" viewBox="0 0 40 40" version="1.1" xmlns="http://www.w3.org/2000/svg" xmlns:xlink="http://www.w3.org/1999/xlink">
    <!-- Generator: Sketch 41.2 (35397) - http://www.bohemiancoding.com/sketch -->
    <title>icon-success</title>
    <desc>Created with Sketch.</desc>
    <defs></defs>
    <g id="首页" stroke="none" stroke-width="1" fill="none" fill-rule="evenodd">
        <path d="M20,0 C17.2435754,0 14.6474462,0.520830769 12.2115385,1.56249846 C9.77563077,2.60417231 7.65225231,4.03043692 5.84134646,5.84134769 C4.03043938,7.65225231 2.60417169,9.77563077 1.56249969,12.2115385 C0.520828123,14.6474462 0,17.2435754 0,20 C0,22.7564246 0.520828123,25.3525538 1.56249969,27.7884615 C2.60417169,30.2243692 4.03043938,32.3477477 5.84134646,34.1586535 C7.65225231,35.9695606 9.77563077,37.3958283 12.2115385,38.4375003 C14.6474462,39.4791719 17.2435754,40 20,40 C22.7564246,40 25.3525538,39.4791719 27.7884615,38.4375003 C30.2243692,37.3958283 32.3477477,35.9695606 34.1586523,34.1586535 C35.9695631,32.3477477 37.3958277,30.2243692 38.4375015,27.7884615 C39.4791692,25.3525538 40,22.7564246 40,20 C40,17.2435754 39.4791692,14.6474462 38.4375015,12.2115385 C37.3958277,9.77563077 35.9695631,7.65225231 34.1586523,5.84134769 C32.3477477,4.03043692 30.2243692,2.60417231 27.7884615,1.56249846 C25.3525538,0.520830769 22.7564246,0 20,0 L20,0 Z M31.1538462,15.5769231 L16.5865354,30.1442277 C16.3942277,30.3365415 16.1698708,30.4326954 15.9134646,30.4326954 C15.6570523,30.4326954 15.4326954,30.3365415 15.2403815,30.1442277 L14.9519262,29.8557723 L6.92307692,21.7788492 C6.73076923,21.5865354 6.63461538,21.3621785 6.63461538,21.1057662 C6.63461538,20.84936 6.73076923,20.6250031 6.92307692,20.4326954 L8.89422769,18.4615385 C9.08654154,18.2692308 9.31089846,18.1730769 9.56731077,18.1730769 C9.82371692,18.1730769 10.0480738,18.2692308 10.2403815,18.4615385 L15.9134646,24.1826892 L27.8365415,12.2596123 C28.0288492,12.0673046 28.2532062,11.9711569 28.5096123,11.9711569 C28.7660246,11.9711569 28.9903815,12.0673046 29.1826954,12.2596123 L31.1538462,14.2307692 C31.3461538,14.4230769 31.4423077,14.6474338 31.4423077,14.9038462 C31.4423077,15.1602585 31.3461538,15.3846154 31.1538462,15.5769231 L31.1538462,15.5769231 Z" id="成功-icon" fill="#13CE66"></path>
    </g>
</svg>