<?xml version="1.0" encoding="UTF-8"?>
<svg width="24px" height="24px" viewBox="0 0 24 24" version="1.1" xmlns="http://www.w3.org/2000/svg" xmlns:xlink="http://www.w3.org/1999/xlink">
    <!-- Generator: Sketch 42 (36781) - http://www.bohemiancoding.com/sketch -->
    <title>icon-sidebar-Brand customization</title>
    <desc>Created with Sketch.</desc>
    <defs></defs>
    <g id="Page-10" stroke="none" stroke-width="1" fill="none" fill-rule="evenodd">
        <path d="M11,11 L11,8 L9,8 L9,11 L6,11 L6,13 L9,13 L9,16 L11,16 L11,13 L14,13 L14,11 L11,11 Z M2,4.99180311 C2,4.44404538 2.44463086,4 3.00087166,4 L16.9991283,4 C17.5518945,4 18,4.45530558 18,4.99180311 L18,24 L2,24 L2,4.99180311 Z M10,20 L2,24 L18,24 L10,20 Z M22,0.99180311 L22,19.0047997 C22,19.5544336 21.6424401,19.7318301 21.1980474,19.3985355 L20.8019526,19.1014645 C20.3590464,18.7692848 20,18.0586649 20,17.4926891 L20,3.00731095 C20,2.45098847 19.5525406,2 19.0015646,2 L7.00087166,2 C6.4481055,2 6,1.55733967 6,1.00104344 C6,0.447248087 6.44463086,0 7.00087166,0 L20.9991283,0 C21.2746459,0 21.524162,0.109973073 21.7051479,0.289176333 C21.7051479,0.289176333 22,0.723554343 22,0.99180311 Z" id="Combined-Shape" fill="#999999"></path>
    </g>
</svg>