<?xml version="1.0" encoding="UTF-8"?>
<svg width="21px" height="18px" viewBox="0 0 21 18" version="1.1" xmlns="http://www.w3.org/2000/svg" xmlns:xlink="http://www.w3.org/1999/xlink">
    <!-- Generator: Sketch 41.2 (35397) - http://www.bohemiancoding.com/sketch -->
    <title>icon-todo-dialogue</title>
    <desc>Created with Sketch.</desc>
    <defs></defs>
    <g id="首页" stroke="none" stroke-width="1" fill="none" fill-rule="evenodd">
        <path d="M5.11602954,15.523575 C2.48011063,13.9929638 0.75,11.4182198 0.75,8.5 C0.75,3.80557939 5.22715223,0 10.75,0 C16.2728478,0 20.75,3.80557939 20.75,8.5 C20.75,13.1944206 16.2728478,17 10.75,17 C9.86649498,17 9.00975065,16.9026104 8.19381505,16.719772 C7.74893891,16.6960579 7.43369506,16.7533795 6.9341236,16.9045681 C6.25164513,17.1111111 5.19709725,18 3.75329044,18 C3.67222256,18 5.11602924,16.8612196 5.11602941,16 C5.11602948,15.8071512 5.11602952,15.6505274 5.11602954,15.523575 Z M6.25,10 C7.07842712,10 7.75,9.32842712 7.75,8.5 C7.75,7.67157288 7.07842712,7 6.25,7 C5.42157288,7 4.75,7.67157288 4.75,8.5 C4.75,9.32842712 5.42157288,10 6.25,10 Z M11.25,10 C12.0784271,10 12.75,9.32842712 12.75,8.5 C12.75,7.67157288 12.0784271,7 11.25,7 C10.4215729,7 9.75,7.67157288 9.75,8.5 C9.75,9.32842712 10.4215729,10 11.25,10 Z M16.25,10 C17.0784271,10 17.75,9.32842712 17.75,8.5 C17.75,7.67157288 17.0784271,7 16.25,7 C15.4215729,7 14.75,7.67157288 14.75,8.5 C14.75,9.32842712 15.4215729,10 16.25,10 Z" id="Combined-Shape" fill="#24C56B"></path>
    </g>
</svg>