<?xml version="1.0" encoding="UTF-8"?>
<svg width="20px" height="20px" viewBox="0 0 20 20" version="1.1" xmlns="http://www.w3.org/2000/svg" xmlns:xlink="http://www.w3.org/1999/xlink">
    <!-- Generator: Sketch 41.2 (35397) - http://www.bohemiancoding.com/sketch -->
    <title>icon-todo-link</title>
    <desc>Created with Sketch.</desc>
    <defs></defs>
    <g id="首页" stroke="none" stroke-width="1" fill="none" fill-rule="evenodd">
        <path d="M10,20 C15.5228475,20 20,15.5228475 20,10 C20,4.4771525 15.5228475,0 10,0 C4.4771525,0 0,4.4771525 0,10 C0,15.5228475 4.4771525,20 10,20 Z M14,6 L12,6 C11.447,6 11,6.447 11,7 C11,7.552 11.447,8 12,8 L14,8 C15.104,8 16,8.896 16,10 C16,11.104 15.104,12 14,12 L12,12 C11.447,12 11,12.447 11,13 C11,13.553 11.447,14 12,14 L14,14 C16.209,14 18,12.209 18,10 C18,7.791 16.209,6 14,6 Z M8,12 L6,12 C4.896,12 4,11.104 4,10 C4,8.896 4.896,8 6,8 L8,8 C8.553,8 9,7.552 9,7 C9,6.447 8.553,6 8,6 L6,6 C3.791,6 2,7.791 2,10 C2,12.209 3.791,14 6,14 L8,14 C8.553,14 9,13.553 9,13 C9,12.447 8.553,12 8,12 Z M7,10 C7,10.553 7.447,11 8,11 L12,11 C12.553,11 13,10.553 13,10 C13,9.447 12.553,9 12,9 L8,9 C7.447,9 7,9.447 7,10 Z" id="Combined-Shape" fill="#F7802A"></path>
    </g>
</svg>