<?xml version="1.0" encoding="UTF-8"?>
<svg width="24px" height="24px" viewBox="0 0 24 24" version="1.1" xmlns="http://www.w3.org/2000/svg" xmlns:xlink="http://www.w3.org/1999/xlink">
    <!-- Generator: Sketch 41.2 (35397) - http://www.bohemiancoding.com/sketch -->
    <title>icon-patient-select</title>
    <desc>Created with Sketch.</desc>
    <defs></defs>
    <g id="首页" stroke="none" stroke-width="1" fill="none" fill-rule="evenodd">
        <path d="M1.76763018,13.4055556 C1.83168274,13.5055177 1.89512207,13.6036535 1.9574742,13.7001034 C4.4907176,17.6195319 10.8626686,22.4969377 11.1329372,22.7026065 C11.392559,22.9007916 11.6960444,23 12,23 C12.3039556,23 12.607441,22.9007916 12.8670628,22.7026065 C13.1373314,22.4969377 19.5092824,17.6195319 22.0425258,13.7001034 C22.9148616,12.350723 24,10.6713653 24,8.27734922 C24,4.26440782 20.9713257,1 17.2490281,1 C15.1841115,1 13.2640523,2.02135679 12.0003694,3.70535041 C11.9949674,3.69814544 11.9896059,3.69135509 11.9842849,3.68497593 L11.9842849,3.68497593 C10.7204335,2.01312213 8.80754753,1 6.7509719,1 C3.02867427,1 0,4.26440782 0,8.27734922 C0,9.56146614 0.312205199,10.6399687 0.736312608,11.5722222 L5.62240601,11.5722222 C5.70997876,11.3485191 5.79926216,11.0513599 5.93837407,10.5390991 C6.14286197,9.78610005 6.1106393,9.90350393 6.17332132,9.69345578 C6.27070014,9.36713825 6.35801474,9.12172186 6.45668589,8.91986452 C6.68431307,8.45419432 6.96251366,8.15 7.52662722,8.15 C8.26302635,8.15 8.49391424,8.54014761 8.74188046,9.32789662 C8.83767537,9.63222171 8.90413336,9.91240662 9.05110107,10.5872943 C9.16319386,11.102033 9.22389432,11.3644097 9.28375023,11.5722222 L11.0059172,11.5722222 C11.48324,11.5722222 11.7138618,11.7929536 11.9181893,12.1304947 C11.9929449,12.2539882 12.0594997,12.3983711 12.1287664,12.5756607 C12.1751972,12.694501 12.2222552,12.8263869 12.2733562,12.9801745 C12.3102463,12.8694178 12.3388283,12.7874911 12.375953,12.6833805 C12.4421125,12.4978464 12.4994046,12.3526148 12.5549838,12.2355645 C12.598061,12.1448433 12.6417079,12.0664906 12.6968965,11.9901723 C12.8757481,11.7428451 13.0846463,11.5722222 13.4911243,11.5722222 L14.0616139,11.5722222 C14.07311,11.531368 14.084875,11.4861687 14.0966323,11.436966 C14.1898698,11.0467802 14.2642131,10.508295 14.3440436,9.70947352 C14.3653105,9.4966667 14.4355154,8.75261942 14.4339022,8.76939272 C14.4941632,8.1428154 14.5386097,7.76728261 14.5963206,7.45581613 C14.637513,7.23350063 14.6842439,7.05402308 14.749577,6.89733986 C14.9169944,6.4958364 15.1875638,6.19444444 15.7278107,6.19444444 C16.1804785,6.19444444 16.4470834,6.42321338 16.6414495,6.74037211 C16.7241173,6.87526608 16.7904776,7.02953059 16.8539425,7.21610875 C16.9468483,7.48923923 17.0372367,7.84602808 17.1375945,8.31468049 C17.2118886,8.66162075 17.2778762,8.99926923 17.3972429,9.63092877 C17.597892,10.6927145 17.6670417,11.0409914 17.7623161,11.4341292 C17.7741743,11.4830603 17.7857345,11.5291351 17.7969399,11.5722222 L19.704142,11.5722222 C20.2139433,11.5722222 20.6272189,11.9826279 20.6272189,12.4888889 C20.6272189,12.9951499 20.2139433,13.4055556 19.704142,13.4055556 L17.2189349,13.4055556 C16.6110916,13.4055556 16.393964,13.1101813 16.1879578,12.5975991 C16.1117671,12.4080222 16.0414631,12.1686674 15.967409,11.8630931 C15.9601016,11.8329398 15.95296,11.8031624 15.9459277,11.7734904 C15.7209982,13.0226836 15.3789457,13.4055556 14.4852071,13.4055556 L14.0773418,13.4055556 C14.0159736,13.5819481 13.9562298,13.7674382 13.7643496,14.3677453 C13.7484352,14.4175184 13.7484352,14.4175184 13.7324702,14.4673617 C13.5692434,14.9766726 13.4637784,15.2903975 13.363174,15.5534914 C13.2942167,15.733824 13.2316899,15.8781207 13.1675053,15.9972875 C13.1166444,16.091717 13.0632341,16.1744807 12.9947298,16.2541338 C12.8170392,16.4607431 12.5942959,16.6086087 12.2424495,16.6086087 C11.8719903,16.6086087 11.6434998,16.4468558 11.4661363,16.2233642 C11.3995104,16.1394105 11.3484921,16.0527244 11.3001378,15.9534467 C11.2394604,15.8288682 11.1808337,15.6777725 11.1152911,15.485801 C11.0271996,15.2277846 11.0074416,15.1625856 10.7659095,14.3498913 C10.7325488,14.2377751 10.7325488,14.2377751 10.6993716,14.1271979 C10.6064025,13.8182608 10.5324466,13.585155 10.4692105,13.4055556 L8.76923077,13.4055556 C8.03316338,13.4055556 7.80250752,13.0158587 7.55474136,12.2289496 C7.52173821,12.1241311 7.49219645,12.0220747 7.46166962,11.9058612 C7.41448071,12.0491461 7.36850192,12.175107 7.31894725,12.297097 C7.03447524,12.997389 6.72487186,13.4055556 6.03550296,13.4055556 L1.76763018,13.4055556 Z" id="Combined-Shape" fill="#20A0FF"></path>
    </g>
</svg>