<?xml version="1.0" encoding="UTF-8"?>
<svg width="24px" height="24px" viewBox="0 0 24 24" version="1.1" xmlns="http://www.w3.org/2000/svg" xmlns:xlink="http://www.w3.org/1999/xlink">
    <!-- Generator: Sketch 41.2 (35397) - http://www.bohemiancoding.com/sketch -->
    <title>icon-home-normal</title>
    <desc>Created with Sketch.</desc>
    <defs></defs>
    <g id="首页" stroke="none" stroke-width="1" fill="none" fill-rule="evenodd">
        <g id="工作台icon-copy" fill="#999999">
            <path d="M10.4,10.4 L8.00468693,10.4 C7.1176481,10.4 6.4,11.1163444 6.4,12 C6.4,12.8898163 7.11844281,13.6 8.00468693,13.6 L10.4,13.6 L10.4,15.9953131 C10.4,16.8823519 11.1163444,17.6 12,17.6 C12.8898163,17.6 13.6,16.8815572 13.6,15.9953131 L13.6,13.6 L15.9953131,13.6 C16.8823519,13.6 17.6,12.8836556 17.6,12 C17.6,11.1101837 16.8815572,10.4 15.9953131,10.4 L13.6,10.4 L13.6,8.00468693 C13.6,7.1176481 12.8836556,6.4 12,6.4 C11.1101837,6.4 10.4,7.11844281 10.4,8.00468693 L10.4,10.4 Z M20.9934579,17.0518823 C19.8277471,18.2630425 16.9215413,21.0222165 16.9215413,21.0222165 L15.3202202,22.6247449 C13.4864616,24.4584184 10.5134041,24.4584184 8.67964558,22.6247449 C8.67964558,22.6247449 6.61240927,21.0470078 4.78811468,19.2227051 C2.96026272,17.3947857 1.37521823,15.3201691 1.37521823,15.3201691 C-0.458406076,13.4864628 -0.458406076,10.5135372 1.37521823,8.67973228 C1.37521823,8.67973228 2.76192241,6.80338087 4.48265047,5.08258378 C6.40319548,3.16220632 8.67977982,1.37525508 8.67977982,1.37525508 C10.5135048,-0.458418358 13.4865959,-0.458418358 15.3202202,1.37525508 C15.3202202,1.37525508 17.3911145,2.95644454 19.2171207,4.7824241 C21.0433953,6.6086667 22.6247818,8.67973228 22.6247818,8.67973228 C24.4584061,10.5134057 24.4584061,13.4864628 22.6247818,15.3201691 C22.6247818,15.3201691 22.538935,15.446296 20.9934579,17.0518823 Z" id="Combined-Shape"></path>
        </g>
    </g>
</svg>