<?xml version="1.0" encoding="UTF-8"?>
<svg width="30px" height="28px" viewBox="0 0 30 28" version="1.1" xmlns="http://www.w3.org/2000/svg" xmlns:xlink="http://www.w3.org/1999/xlink">
    <!-- Generator: Sketch 41.2 (35397) - http://www.bohemiancoding.com/sketch -->
    <title>icon-setting</title>
    <desc>Created with Sketch.</desc>
    <defs></defs>
    <g id="首页" stroke="none" stroke-width="1" fill="none" fill-rule="evenodd">
        <path d="M29.8866889,11.9221331 C29.769944,11.270962 29.1415819,10.606082 28.4857503,10.4621389 L27.9981688,10.3490407 C26.851322,10.0028919 25.8349548,9.24547706 25.1859907,8.13163172 C24.5404602,7.01093195 24.3859449,5.73600742 24.6675061,4.57075382 L24.6675061,4.57075382 L24.8220214,4.11150681 C25.0177407,3.47747178 24.7636489,2.60353157 24.2520317,2.16827508 C24.2520317,2.16827508 23.7919195,1.78099961 22.5008585,1.03729366 C21.2063638,0.297014902 20.6501088,0.0913819219 20.6501088,0.0913819219 C20.0217466,-0.138241587 19.1392927,0.0811002763 18.6791806,0.567764993 L18.3392469,0.931049928 C17.4705277,1.75358188 16.2996452,2.25052828 15.0051506,2.25052828 C13.7106559,2.25052828 12.5294724,1.74672747 11.6607531,0.920768316 L11.3311205,0.567765026 C10.8778757,0.0811002763 9.99198811,-0.134814349 9.36019231,0.0913819554 C9.36019231,0.0913819554 8.79706994,0.297014935 7.50257528,1.03729369 C6.20808058,1.78785409 5.75483576,2.17512952 5.75483576,2.17512952 C5.2432185,2.60353157 4.98912669,3.47061734 5.18484607,4.11150681 L5.32562665,4.57418103 C5.6003205,5.74286183 5.45610622,7.01093191 4.80714204,8.13163169 C4.15817787,9.25233147 3.13150966,10.0166007 1.97779558,10.3558952 L1.50738238,10.4621388 C0.861851866,10.6095092 0.226622397,11.2675347 0.106443844,11.9221331 C0.106443844,11.9221331 0,12.5081871 0,13.9990262 C0,15.4898654 0.106443844,16.0759194 0.106443844,16.0759194 C0.223188736,16.7339449 0.851550851,17.3919705 1.50738238,17.5359136 L1.96749456,17.6421573 C3.12120864,17.9814517 4.1547442,18.745721 4.80027469,19.8732752 C5.44580521,20.993975 5.60032046,22.2688995 5.3187593,23.4341531 L5.3187593,23.4341531 L5.18484607,23.8865457 C4.98912672,24.5205807 5.2432185,25.3945209 5.75483576,25.8297774 C5.75483576,25.8297774 6.21494794,26.2170529 7.50600894,26.9607588 C8.80050364,27.7044648 9.35675865,27.9066705 9.35675865,27.9066705 C9.98512079,28.1362941 10.8675747,27.9169522 11.3276869,27.4302875 L11.6504521,27.0841386 C12.5260387,26.2581795 13.7037885,25.7509514 15.0017169,25.7509514 C16.2996452,25.7509514 17.4842624,26.2616067 18.3529816,27.0875658 L18.3529816,27.0875658 L18.6757469,27.4337147 C19.1289917,27.9203794 20.0148793,28.1362941 20.6466751,27.9100978 C20.6466751,27.9100978 21.2097974,27.7044648 22.5042921,26.964186 C23.7987868,26.2204801 24.2520316,25.8332046 24.2520316,25.8332046 C24.7636489,25.4048026 25.0177407,24.5308623 24.8220213,23.8899729 L24.6812407,23.4204442 C24.4065469,22.2586178 24.5507611,20.9905478 25.1997253,19.8767024 C25.8452558,18.7560026 26.882225,17.9883061 28.0325054,17.6455845 L28.0325054,17.6455845 L28.4926176,17.5393408 C29.1381481,17.3919705 29.7733776,16.7339449 29.8935562,16.0793466 C29.8935562,16.0793466 30,15.4932926 30,14.0024534 C29.9931327,12.5116143 29.8866889,11.9221331 29.8866889,11.9221331 L29.8866889,11.9221331 L29.8866889,11.9221331 L29.8866889,11.9221331 Z M15.0051505,19.9692373 C11.7053909,19.9692373 9.02369234,17.2994357 9.02369234,13.9990263 C9.02369234,10.7054712 11.6985235,8.03566964 15.0051505,8.03566964 C18.3049102,8.03566964 20.9866087,10.7054712 20.9866087,14.0058807 C20.9797414,17.2994357 18.3049102,19.9692373 15.0051505,19.9692373 L15.0051505,19.9692373 L15.0051505,19.9692373 L15.0051505,19.9692373 Z" id="el-icon-setting" fill="#666666"></path>
    </g>
</svg>