<?xml version="1.0" encoding="UTF-8"?>
<svg width="52px" height="52px" viewBox="0 0 52 52" version="1.1" xmlns="http://www.w3.org/2000/svg" xmlns:xlink="http://www.w3.org/1999/xlink">
    <!-- Generator: Sketch 42 (36781) - http://www.bohemiancoding.com/sketch -->
    <title>icon-add img</title>
    <desc>Created with Sketch.</desc>
    <defs>
        <path d="M24,24 L10.9981537,24 C10.4473652,24 10,24.4477153 10,25 C10,25.5561352 10.4468886,26 10.9981537,26 L24,26 L24,39.0018463 C24,39.5531114 24.4438648,40 25,40 C25.5522847,40 26,39.5526348 26,39.0018463 L26,26 L39.0018463,26 C39.5526348,26 40,25.5522847 40,25 C40,24.4438648 39.5531114,24 39.0018463,24 L26,24 L26,10.9981537 C26,10.4468886 25.5561352,10 25,10 C24.4477153,10 24,10.4473652 24,10.9981537 L24,24 Z" id="path-1"></path>
        <mask id="mask-2" maskContentUnits="userSpaceOnUse" maskUnits="objectBoundingBox" x="0" y="0" width="30" height="30" fill="white">
            <use xlink:href="#path-1"></use>
        </mask>
    </defs>
    <g id="Page-10" stroke="none" stroke-width="1" fill="none" fill-rule="evenodd">
        <g id="Group-20" transform="translate(1.000000, 1.000000)" stroke="#C0CCDA">
            <circle id="Oval-2" cx="25" cy="25" r="25"></circle>
            <use id="Combined-Shape" mask="url(#mask-2)" stroke-width="2" xlink:href="#path-1"></use>
        </g>
    </g>
</svg>