<?xml version="1.0" encoding="UTF-8"?>
<svg width="40px" height="40px" viewBox="0 0 40 40" version="1.1" xmlns="http://www.w3.org/2000/svg" xmlns:xlink="http://www.w3.org/1999/xlink">
    <!-- Generator: Sketch 42 (36781) - http://www.bohemiancoding.com/sketch -->
    <title>icon_home_money</title>
    <desc>Created with Sketch.</desc>
    <defs></defs>
    <g id="管理员模块" stroke="none" stroke-width="1" fill="none" fill-rule="evenodd">
        <path d="M20.6395246,23.4141872 L20.6395246,21.8 L23.3677417,21.8 C23.771922,21.8 24.1255797,21.4468966 24.1255797,21.0433498 C24.1255797,20.639803 23.771922,20.2866995 23.3677417,20.2866995 L20.9417242,20.2866995 L22.9130388,18.1176355 C23.216174,17.8149754 23.1656515,17.3609852 22.8625163,17.0583251 C22.559381,16.755665 22.1046782,16.8061084 21.8015429,17.1087685 L19.8301852,19.2778799 L17.6586948,17.3105419 C17.3555595,17.0078818 16.9008567,17.0583251 16.5977214,17.3609852 C16.2945862,17.6636453 16.3451088,18.1176354 16.648244,18.4202956 L18.7083263,20.2866995 L16.5977214,20.2866995 C16.1935411,20.2866995 15.8398834,20.639803 15.8398834,21.0433498 C15.8398834,21.4468966 16.1935411,21.8 16.5977214,21.8 L19.1238484,21.8 L19.1238484,23.4141872 L16.5977214,23.4141872 C16.1935411,23.4141872 15.8398834,23.7672907 15.8398834,24.1708374 C15.8398834,24.5743842 16.1935411,24.9274877 16.5977214,24.9274877 L19.1238484,24.9274877 L19.1238484,28.2063054 C19.1238484,28.6098522 19.4775062,28.9629557 19.8816865,28.9629557 C20.2858668,28.9629557 20.6395246,28.6602956 20.6395246,28.2063054 L20.6395246,24.9274877 L23.3677417,24.9274877 C23.771922,24.9274877 24.1255797,24.5743842 24.1255797,24.1708374 C24.1255797,23.7672907 23.771922,23.4141872 23.3677417,23.4141872 L20.6395246,23.4141872 Z M20,40 C8.954305,40 0,31.045695 0,20 C0,8.954305 8.954305,0 20,0 C31.045695,0 40,8.954305 40,20 C40,31.045695 31.045695,40 20,40 Z M30.8450774,22.8593103 C30.2388069,19.2778325 27.7632025,15.5450246 24.0245346,13.9308374 C24.0245346,13.9308374 24.0750572,13.8803941 24.0750572,13.8803941 L25.4896883,12.0139901 C25.9949137,11.3582266 26.0959588,10.5006897 25.7928235,9.74403941 C25.4896883,8.93694583 24.7318502,8.38206897 23.8224445,8.28118228 C23.0140839,8.18029559 21.6499753,8.02896552 19.9827316,8.02896552 C18.4670554,8.02896552 17.0524243,8.18029555 16.1430186,8.28118228 C15.2336129,8.38206897 14.4757748,8.93694583 14.1726396,9.74403941 C13.8695044,10.5006897 13.9705495,11.3582266 14.4757748,12.0139901 L15.8904059,13.8803941 C15.8904059,13.8803941 15.8904059,13.8803941 15.9409285,13.9308374 C12.1012155,15.5450247 9.62561113,19.3282759 9.12038573,22.960197 C8.66568289,25.986798 9.67613367,27.853202 10.6360619,28.9629557 C12.4043508,30.9806897 15.4357031,31.9895567 19.9827316,31.9895567 C24.6308051,31.9895567 27.71268,30.9806897 29.4809688,28.862069 C30.3903745,27.8027586 31.3503028,25.8859113 30.8450774,22.8593103 Z M16.3956313,10.2989162 C17.1534694,10.1980296 18.5175779,10.0971428 19.9827316,10.0971429 C21.5994528,10.0971429 22.8625163,10.1980296 23.5698318,10.2989162 C23.872967,10.3493596 24.0245346,10.6015763 23.872967,10.8033498 L22.4583359,12.6697537 C22.3572909,12.7706404 22.2057232,12.8210837 22.0541556,12.8210838 L17.8607849,12.8210838 C17.7092173,12.8210838 17.5576497,12.7706404 17.4566046,12.6697537 L16.0419735,10.8033498 C15.8904059,10.6015763 16.0419735,10.3493596 16.3956313,10.2989162 Z M19.9827316,29.9718227 C12.4043508,29.9718227 10.5855393,26.8947783 11.0907648,23.2124138 C11.4949451,20.2866995 13.7179367,16.755665 17.305037,15.5450246 L22.6099036,15.5450246 C26.1970038,16.755665 28.369473,20.3371429 28.8746984,23.2124138 C29.4809688,26.8947783 27.71268,29.9718227 19.9827316,29.9718227 Z" id="Combined-Shape" fill="#FFD570"></path>
    </g>
</svg>