<?xml version="1.0" encoding="UTF-8"?>
<svg width="20px" height="16px" viewBox="0 0 20 16" version="1.1" xmlns="http://www.w3.org/2000/svg" xmlns:xlink="http://www.w3.org/1999/xlink">
    <!-- Generator: Sketch 42 (36781) - http://www.bohemiancoding.com/sketch -->
    <title>icon_user_list_wechat</title>
    <desc>Created with Sketch.</desc>
    <defs></defs>
    <g id="管理员模块" stroke="none" stroke-width="1" fill="none" fill-rule="evenodd">
        <path d="M17.6971637,14.3983106 L18.0009313,15.4442326 C18.1544402,15.9727889 17.9042498,16.155726 17.4469764,15.8560201 L16.2733255,15.0867863 C15.5721875,15.3255137 14.8045884,15.4571233 14,15.4571233 C10.6862915,15.4571233 8,13.2247395 8,10.4709545 C8,7.71716951 10.6862915,5.48478569 14,5.48478569 C17.3137085,5.48478569 20,7.71716951 20,10.4709545 C20,12.0657024 19.0990988,13.4855881 17.6971637,14.3983106 Z M7.74363773,11.9637078 C7.66274202,11.9657675 7.58152291,11.9668051 7.5,11.9668051 C6.46588581,11.9668051 5.48065425,11.7998351 4.58435257,11.4978443 L2.91722435,12.5110435 C2.44775391,12.7963648 2.19484729,12.5972182 2.35068496,12.0718224 L2.77772209,10.6320967 C1.08305122,9.53507499 0,7.86014295 0,5.98340257 C0,2.67886058 3.35786438,3.55271368e-15 7.5,3.55271368e-15 C11.2394062,3.55271368e-15 14.3396328,2.18326664 14.9071379,5.03915689 C14.6106948,5.00422714 14.3078466,4.98616881 14,4.98616881 C10.4101491,4.98616881 7.5,7.44179101 7.5,10.4709545 C7.5,10.9884021 7.58491854,11.4891137 7.74363773,11.9637078 Z M10,4.98616881 C10.5522847,4.98616881 11,4.53969205 11,3.98893505 C11,3.43817805 10.5522847,2.99170129 10,2.99170129 C9.44771525,2.99170129 9,3.43817805 9,3.98893505 C9,4.53969205 9.44771525,4.98616881 10,4.98616881 Z M5,4.98616881 C5.55228475,4.98616881 6,4.53969205 6,3.98893505 C6,3.43817805 5.55228475,2.99170129 5,2.99170129 C4.44771525,2.99170129 4,3.43817805 4,3.98893505 C4,4.53969205 4.44771525,4.98616881 5,4.98616881 Z M12,9.97233762 C12.5522847,9.97233762 13,9.52586086 13,8.97510386 C13,8.42434686 12.5522847,7.9778701 12,7.9778701 C11.4477153,7.9778701 11,8.42434686 11,8.97510386 C11,9.52586086 11.4477153,9.97233762 12,9.97233762 Z M16,9.97233762 C16.5522847,9.97233762 17,9.52586086 17,8.97510386 C17,8.42434686 16.5522847,7.9778701 16,7.9778701 C15.4477153,7.9778701 15,8.42434686 15,8.97510386 C15,9.52586086 15.4477153,9.97233762 16,9.97233762 Z" id="Combined-Shape" fill="#35BF32"></path>
    </g>
</svg>