<?xml version="1.0" encoding="UTF-8"?>
<svg width="30px" height="30px" viewBox="0 0 30 30" version="1.1" xmlns="http://www.w3.org/2000/svg" xmlns:xlink="http://www.w3.org/1999/xlink">
    <!-- Generator: Sketch 42 (36781) - http://www.bohemiancoding.com/sketch -->
    <title>icon_top_doctor_defaultavatar</title>
    <desc>Created with Sketch.</desc>
    <defs></defs>
    <g id="管理员模块" stroke="none" stroke-width="1" fill="none" fill-rule="evenodd">
        <g id="Group-6" fill-rule="nonzero">
            <g id="医生-男-copy">
                <g id="Group">
                    <path d="M1.44726489e-15,15 C9.64843257e-16,23.2842712 6.71572875,30 15,30 C23.2842712,30 30,23.2842712 30,15 C30,6.71572875 23.2842712,0 15,0 C6.71572875,-4.82421628e-16 9.64843257e-16,6.71572875 0,15 L1.44726489e-15,15 Z" id="Shape" fill="#00B3C1"></path>
                    <path d="M14.9322285,15.4925566 C15.9729299,16.062862 17.5664593,11.7476131 14.8385294,11.9915498 C12.1105995,12.2354525 14.9322285,15.4925566 14.9322285,15.4925566 Z" id="Shape" fill="#FFE1CC"></path>
                    <path d="M14.2677149,25.6053054 C14.2677149,26.0098478 14.5956613,26.3377941 15.0002036,26.3377941 C15.404746,26.3377941 15.7326923,26.0098478 15.7326923,25.6053054 C15.7326923,25.2007631 15.404746,24.8728167 15.0002036,24.8728167 C14.5956613,24.8728167 14.2677149,25.2007631 14.2677149,25.6053054 L14.2677149,25.6053054 Z" id="Shape" fill="#5A7C88"></path>
                    <path d="M8.93738688,15.4897059 C7.91233032,16.0876697 6.2038914,11.8165724 8.93738688,11.9874434 C11.6708484,12.1582466 8.93738688,15.4897059 8.93738688,15.4897059 Z M20.9042308,15.4897059 C21.9292873,16.0876697 23.6377262,11.8165724 20.9042308,11.9874434 C18.1707692,12.1582466 20.9042308,15.4897059 20.9042308,15.4897059 Z" id="Shape" fill="#FFE1CC"></path>
                    <path d="M21.5428507,13.2627149 C21.5428507,16.8645814 18.6229751,20.7630882 15.0210747,20.7630882 C11.4191742,20.7630882 8.49933258,16.8645814 8.49933258,13.2627149 C8.49933258,9.66084842 11.4192421,6.74093891 15.0211086,6.74093891 C18.6229751,6.74093891 21.5428507,9.66084842 21.5428507,13.2627149 Z M21.014491,24.9116742 C21.014491,26.4987217 18.3311538,27.7852602 15.0210747,27.7852602 C11.7109955,27.7852602 9.02765837,26.4987217 9.02765837,24.9116742 C9.02765837,23.3246267 11.7109955,22.8308145 15.0210747,22.8308145 C18.3311538,22.8308145 21.014491,23.3246267 21.014491,24.9116742 Z" id="Shape" fill="#FFE1CC"></path>
                    <path d="M23.4375,27.3958371 C22.4773303,28.0512896 21.4369005,28.5982805 20.3325339,29.0159389 C20.0430291,29.1281545 19.7495312,29.229783 19.4526244,29.3206222 C18.4997017,29.6175338 17.5191725,29.817228 16.5260294,29.9166516 C16.0563436,29.9644592 15.5846388,29.9897597 15.1125339,29.9924661 C15.0917308,29.9939593 15.0709276,29.9939593 15.0500905,29.9939593 L14.9579525,29.9939593 C14.9386425,29.9939593 14.9192986,29.9939593 14.8999887,29.9924661 C14.4328769,29.9907502 13.9661213,29.9664458 13.5013575,29.919638 C12.542681,29.8245136 11.6122398,29.6402036 10.7159729,29.3711878 C10.4467242,29.2925066 10.1800505,29.2052678 9.91635747,29.1096041 C9.76533123,29.0563697 9.61565788,28.9993723 9.46747738,28.9386652 C9.4213914,28.9208145 9.37381222,28.9029977 9.32776018,28.8821946 C8.99036199,28.7454299 8.6574095,28.5953281 8.33338235,28.4318213 C8.28757868,28.4110206 8.24247488,28.3887121 8.1981448,28.3649321 C7.64226244,28.0825452 7.10569005,27.764457 6.59290724,27.4166403 C7.07151584,26.3004299 7.7106448,25.3937443 8.4746267,24.6743552 C8.78080317,24.3845023 9.10930995,24.125905 9.45410633,23.8970023 C9.45559955,23.895509 9.45559955,23.8970023 9.45559955,23.8970023 C9.58045249,23.8137557 9.70676471,23.7334955 9.83609729,23.6577149 C9.932883,23.6008807 10.0310104,23.546363 10.1303959,23.4942081 C10.2668741,23.4213763 10.4056681,23.3529696 10.5465611,23.289095 C10.5777828,23.2742308 10.6089706,23.2608597 10.6401923,23.2474887 C10.8064916,23.1727467 10.9755606,23.1043267 11.1470362,23.0423756 C11.205,23.0200792 11.2614706,22.999276 11.3194683,22.9799661 C11.3209615,22.9799661 11.3209615,22.9799661 11.3224548,22.9784729 L11.323948,22.9784729 C11.4002929,22.9518763 11.4770916,22.926601 11.55431,22.9026584 C11.6301244,22.8774095 11.705905,22.8550792 11.7817195,22.8328167 C11.7802262,22.8446946 11.7817195,22.8595588 11.7861652,22.8759163 C11.7921041,22.9086312 11.805509,22.9487443 11.824819,22.9963235 C11.8322511,23.0111878 11.838224,23.026052 11.8456561,23.0424095 C11.8813235,23.1211765 11.9318552,23.2148416 11.9957919,23.3203507 C12.1072738,23.5091063 12.2618213,23.7350566 12.4461312,23.9728507 C12.4476244,23.9743439 12.4491176,23.9773303 12.4506109,23.9787896 C12.5011425,24.0426923 12.5546606,24.1080882 12.6081448,24.1749774 L12.609638,24.1779638 C12.6126244,24.179457 12.6141176,24.1824434 12.6155769,24.1839027 C12.6821699,24.2637751 12.7500521,24.3425637 12.8191968,24.4202376 C12.8191968,24.4202376 12.82069,24.4202376 12.82069,24.4217308 C12.9033639,24.5118843 12.9876076,24.6005856 13.0733824,24.6877941 C13.1120362,24.7249548 13.15069,24.7636086 13.18931,24.8007692 C13.2301712,24.8402185 13.2717967,24.8788684 13.3141629,24.9166968 C13.3507378,24.9515765 13.3884153,24.9852814 13.427138,25.0177602 C13.4858671,25.0676857 13.5453306,25.1167409 13.605509,25.1649095 C13.6530543,25.2020701 13.7006335,25.2377376 13.7481787,25.273405 C13.9191176,25.3982579 14.0945023,25.5038009 14.2698869,25.5870136 C14.4958032,25.6970023 14.7247059,25.7638914 14.9476357,25.7757692 C14.9714253,25.7787557 14.9967081,25.7787557 15.0204638,25.7787557 C15.0442534,25.7787557 15.0695362,25.7787557 15.0932919,25.7757692 C15.3028846,25.7653507 15.5183824,25.7029412 15.7324208,25.6063235 C15.9211765,25.5201244 16.1099661,25.40569 16.2942421,25.273371 C16.35751,25.2280818 16.4194697,25.1809925 16.4800452,25.1321606 C16.5647851,25.062319 16.6479977,24.9909502 16.7297511,24.9151697 C16.7709959,24.878711 16.8111493,24.841036 16.8501584,24.8021946 C16.906629,24.7486765 16.9631335,24.6936991 17.0166176,24.6372285 C17.094256,24.5591895 17.1695936,24.478895 17.2425339,24.396448 C17.2834959,24.3511094 17.323627,24.3050271 17.3629072,24.258224 L17.3644005,24.2567308 C17.4049652,24.2090364 17.4451026,24.1609802 17.4848077,24.1125679 C17.6312386,23.9319873 17.7696091,23.7450172 17.8995136,23.5522059 C18.0347511,23.3500792 18.1358484,23.1732014 18.1967647,23.0424095 C18.2041968,23.026052 18.2101357,23.0111878 18.2175679,22.9963235 C18.2487896,22.9220023 18.2636538,22.8670249 18.2606674,22.8328167 C18.422681,22.8803959 18.5832014,22.9309276 18.7407353,22.985905 C18.7868213,23.0022624 18.8344005,23.0186199 18.8789593,23.0364367 C19.0276018,23.0899548 19.1747511,23.1479186 19.318914,23.2118213 C19.5163156,23.2949424 19.7097481,23.3871912 19.898586,23.4882692 C19.9000792,23.4882692 19.9000792,23.4897624 19.9015724,23.4897624 C20.0056222,23.5417873 20.1051923,23.5982579 20.2062896,23.6577149 C21.5795701,24.46181 22.7002941,25.6806109 23.4375,27.3958371 L23.4375,27.3958371 Z" id="Shape" fill="#FFFDF8"></path>
                    <polygon id="Shape" fill="#FFE1CC" points="12.9023416 17.6781787 12.9023416 23.7721493 17.0640611 23.7721493 17.0640611 17.6781787"></polygon>
                    <path d="M18.2695249,23.5491855 L18.2620928,23.5729751 C18.263586,23.5744683 18.2620928,23.5744683 18.2620928,23.5744683 L17.946991,24.7263801 L17.8399887,25.1187896 L17.8147059,25.2124208 L17.7745588,25.3580769 L17.7745588,25.3595701 L17.5248529,26.2721946 L17.5233597,26.2736878 L17.1622059,27.5965385 L16.5260633,29.9166855 C16.0563775,29.9644932 15.5846727,29.9897936 15.1125679,29.9925 C15.0917647,29.9939932 15.0709615,29.9939932 15.0501244,29.9939932 L14.9579864,29.9939932 C14.9386765,29.9939932 14.9193326,29.9939932 14.9000226,29.9925 C14.4329108,29.9907842 13.9661552,29.9664798 13.5013914,29.9196719 C13.3155882,29.188405 13.1120023,28.3872624 12.9127941,27.6024774 C12.7908937,27.1313009 12.6720136,26.6646041 12.5590385,26.2246493 C12.51,26.0373869 12.463914,25.8560294 12.4178281,25.6791516 C12.4148756,25.668767 12.4118891,25.6598416 12.4103959,25.6494231 L12.4103959,25.6479299 C12.3747285,25.5141516 12.3420136,25.3848529 12.3093326,25.2585068 C12.2959955,25.2094683 12.2840837,25.1618891 12.2721719,25.1143439 L12.2706787,25.1128507 C12.2082692,24.8705769 12.1488122,24.6476471 12.0952941,24.4439932 C12.0228204,24.1670406 11.9484974,23.8905751 11.8723303,23.6146154 L11.8723303,23.6131222 C11.8602545,23.5715581 11.8483653,23.52994 11.8366629,23.4882692 L11.8366629,23.486776 C11.8024887,23.3708484 11.7816855,23.3054525 11.7757466,23.3009729 L11.995724,23.3202828 L12.9023756,23.4035294 L14.7930204,23.5744683 L14.8926244,23.5744683 L15.0427602,23.5729751 L15.0709955,23.5729751 L17.0641629,23.5581109 L17.8995136,23.5521719 L18.2071833,23.5492195 L18.2695249,23.5492195 L18.2695249,23.5491855 Z" id="Shape" fill="#79C4FF"></path>
                    <path d="M14.8999887,29.9924321 C14.4328769,29.9907163 13.9661213,29.9664119 13.5013575,29.9196041 C12.542681,29.8244796 11.6122398,29.6401697 10.7159729,29.3711538 C10.4467242,29.2924726 10.1800505,29.2052338 9.91635747,29.1095701 C9.79546208,29.0016758 9.67206886,28.8966134 9.54627828,28.7944683 C9.50762443,28.7632466 9.46751131,28.7305656 9.42736425,28.6993439 C9.40951357,28.6844796 9.39169683,28.6696154 9.37235294,28.6562443 C9.35752262,28.6428733 9.34113122,28.6309955 9.32480769,28.6190837 C9.08428553,28.4313965 8.83636162,28.2533926 8.58162896,28.0854977 C8.54300905,28.0617081 8.50584842,28.0364593 8.46719457,28.0126697 C8.42409502,27.9844344 8.37950226,27.9576923 8.33636878,27.9309163 C8.32004525,27.9204977 8.30514706,27.9116063 8.28882353,27.9011878 C8.31410633,27.8818778 8.3393552,27.8625339 8.36463801,27.8447172 C8.37502262,27.8372851 8.38544118,27.8283597 8.39436652,27.8209276 C8.46719457,27.7674095 8.53852941,27.7124321 8.60840498,27.658914 C8.68571267,27.5979638 8.76298643,27.54 8.83730769,27.4790837 L8.8388009,27.4775905 C9.26684389,27.1401923 9.65480769,26.8117195 10.0100226,26.4891855 C10.1222313,26.3874865 10.2327332,26.28392 10.3414819,26.1785294 C10.4782466,26.0492308 10.6075452,25.9213914 10.7338914,25.793552 L10.7338914,25.7920588 C10.8381568,25.6837247 10.9412062,25.5742269 11.0430204,25.463586 C11.080181,25.4234389 11.1247738,25.3803394 11.2080204,25.3862783 C11.258552,25.3892647 11.3165158,25.4115271 11.3715271,25.4338575 C11.7861991,25.6033032 12.16819,25.8812443 12.5026357,26.1740498 C12.5219457,26.1904072 12.5412896,26.2082579 12.5591063,26.2245814 C13.0569791,26.6684502 13.4951407,27.1750568 13.8626131,27.7317081 C14.3229208,28.4272765 14.6728509,29.1898695 14.8999887,29.9924321 L14.8999887,29.9924321 Z" id="Shape" fill="#E5EAF9"></path>
                    <path d="M14.0037557,27.7436199 C14.4169344,28.5804299 14.7959389,29.3518439 14.9579525,29.9939253 C14.9386425,29.9939253 14.9192986,29.9939253 14.8999887,29.9924321 C14.4328769,29.9907163 13.9661213,29.9664119 13.5013575,29.9196041 C12.542681,29.8244796 11.6122398,29.6401697 10.7159729,29.3711538 C10.4291063,29.0813348 10.1348416,28.8093326 9.83311086,28.5596267 C9.79687601,28.5262654 9.75918066,28.4945261 9.72013575,28.4645023 C9.6814819,28.4317873 9.64136878,28.4005995 9.60271493,28.3693778 C9.55961538,28.3337104 9.51651584,28.3009955 9.47341629,28.2683145 C9.22815611,28.0765724 8.97997738,27.8982014 8.72877828,27.7361878 C8.68966872,27.7088542 8.6495021,27.6830652 8.60837104,27.6588801 C8.54018278,27.6147026 8.47130553,27.5715977 8.40176471,27.5295814 C8.61281674,27.375 8.81494344,27.223405 9.00967195,27.0703167 L9.01116516,27.0703167 C9.31438914,26.8339819 9.59826923,26.6021267 9.86283937,26.3747172 C10.0181021,26.2409232 10.1712211,26.1046615 10.322138,25.9659842 C10.4395588,25.8559955 10.5525,25.7489932 10.6595362,25.6434502 C10.8081787,25.4977941 10.9493552,25.3536312 11.0816403,25.2109276 C11.1054299,25.1856787 11.1738122,25.0920136 11.2421606,25.0310633 C11.2778281,24.9998416 11.3134955,24.9775452 11.3417308,24.9790385 C11.3908032,24.9834842 11.4918665,24.9582353 11.5468778,24.9790385 C11.6092873,25.0043213 11.6687443,24.9924095 11.7282014,24.9537557 C11.7296946,24.9537557 11.7311878,24.9522624 11.732681,24.9507692 C11.7757805,24.9225339 11.8173869,24.8779412 11.8590271,24.8259163 C11.9407805,24.7218665 12.0195475,24.58069 12.095362,24.4439253 C12.174129,24.3027149 12.2499434,24.164491 12.3257579,24.0738122 C12.3450679,24.0500226 12.3629186,24.0307127 12.3822285,24.0143552 C12.4009937,23.9969182 12.4226221,23.9828436 12.4461652,23.9727489 C12.4922172,23.9534389 12.5383032,23.9593778 12.5843891,23.999491 C12.5933145,24.0604412 12.6036991,24.1198982 12.6156109,24.1808145 L12.6156109,24.183767 C12.6245362,24.2253733 12.6319683,24.2684729 12.6423529,24.3116063 L12.6423529,24.3130995 C12.6988575,24.5880543 12.7761312,24.863043 12.866776,25.139491 C12.880181,25.1796041 12.893552,25.2197511 12.9083824,25.2613575 L12.9083824,25.2628507 C12.912862,25.2762217 12.9173077,25.2895928 12.9232466,25.3029977 C12.9351244,25.3401584 12.9499887,25.3788122 12.9633937,25.4159729 L12.9633937,25.4174661 C13.2501584,26.2141968 13.6410747,27.0034276 14.0037557,27.7436199 L14.0037557,27.7436199 Z" id="Shape" fill="#F3F7FF"></path>
                    <path d="M13.3867873,24.6651244 C12.6212443,25.1604299 13.3287896,24.9331222 12.6909163,25.5779525 C12.2201131,24.731776 9.66858597,25.2012217 8.92452489,24.6593552 C11.968405,21.4027602 11.0488235,23.9187557 13.3867873,24.6651244 Z" id="Shape" fill="#E5EAF9"></path>
                    <path d="M13.3257353,24.5109502 C12.5601923,25.0062557 13.2677376,24.778914 12.6298643,25.4237783 C12.1590611,24.5776018 9.60753394,25.0470475 8.86347285,24.505181 C11.9073869,21.248552 10.9878054,23.7645475 13.3257353,24.5109502 Z" id="Shape" fill="#F3F7FF"></path>
                    <path d="M21.677681,28.0497964 C21.2214027,28.3277376 20.7710294,28.6502715 20.3325339,29.015905 C20.0430291,29.1281206 19.7495312,29.2297491 19.4526244,29.3205882 C18.4997017,29.6174998 17.5191725,29.8171941 16.5260294,29.9166176 C16.0563436,29.9644253 15.5846388,29.9897257 15.1125339,29.9924321 C15.3488688,29.2046606 15.7159615,28.4332805 16.2064819,27.7287557 C16.5617308,27.2189593 16.9808484,26.7447964 17.4639027,26.3226923 C17.4832127,26.3048416 17.5025566,26.2900113 17.5233597,26.2736538 L17.5248529,26.2721606 C17.8444005,25.9971719 18.2070814,25.7415271 18.5950113,25.5825 C18.6500226,25.5602036 18.7079864,25.5379072 18.7585181,25.5349208 C18.843224,25.5289819 18.8863235,25.5720814 18.9234842,25.6122285 C19.2118439,25.9273303 19.535871,26.2513575 19.8985181,26.5827828 C20.3295475,26.979638 20.814095,27.3868778 21.3580995,27.8075226 C21.4621493,27.8878167 21.5691516,27.9680769 21.677681,28.0497964 Z" id="Shape" fill="#E5EAF9"></path>
                    <path d="M21.5661991,27.678224 C21.4961786,27.7202437 21.4268151,27.7633484 21.3581335,27.8075226 C20.7026471,28.2236878 20.0605656,28.7320249 19.4526584,29.3206222 C18.4997356,29.6175338 17.5192065,29.817228 16.5260633,29.9166516 C16.0563775,29.9644592 15.5846727,29.9897597 15.1125679,29.9924661 C15.0917647,29.9939593 15.0709615,29.9939593 15.0501244,29.9939593 C15.2388801,29.3429525 15.62681,28.5730317 16.0340837,27.7436538 C16.3625566,27.0777828 16.7044344,26.3732579 16.9675113,25.6613009 C16.9942534,25.5914593 17.0195362,25.5215837 17.044819,25.4517421 L17.044819,25.4502489 C17.064129,25.3952715 17.0819796,25.3402602 17.0997964,25.2867421 C17.1904751,25.0102941 17.2677828,24.7353054 17.3242195,24.4618439 L17.3242195,24.4603507 C17.334638,24.4172511 17.3420701,24.3741516 17.3509955,24.331052 C17.3554751,24.3057692 17.3599208,24.2820136 17.3628733,24.258224 L17.3643665,24.2567308 C17.3703054,24.2210633 17.3762783,24.1839027 17.3822172,24.1482353 C17.4163914,24.1185068 17.4505995,24.1081222 17.4847738,24.1125679 C17.5174548,24.1155543 17.5516629,24.133371 17.5843439,24.1645928 C17.6036878,24.179457 17.6215045,24.198767 17.6408484,24.2225566 C17.7404186,24.3429638 17.8415158,24.5435973 17.9470249,24.726414 C17.9752602,24.7754525 18.0034955,24.8230317 18.0347172,24.8676244 C18.0986199,24.9686878 18.165543,25.0519344 18.2353846,25.0994796 C18.2948077,25.141086 18.3557579,25.1559502 18.4211878,25.1292081 C18.4746719,25.1069118 18.5757692,25.1321606 18.6248077,25.1292081 C18.653043,25.1262217 18.6887104,25.1485181 18.7244118,25.1797398 C18.7927941,25.2391968 18.8611425,25.3343213 18.8863914,25.3596041 C19.2222964,25.7207919 19.608767,26.0923643 20.0487217,26.4758484 C20.4975339,26.8652036 21.0013914,27.2650452 21.5661991,27.678224 L21.5661991,27.678224 Z" id="Shape" fill="#F3F7FF"></path>
                    <path d="M16.5802262,24.813767 C17.3457692,25.3090724 16.638224,25.0817308 17.2760973,25.726595 C17.7469005,24.8804186 20.2984276,25.3498643 21.0424887,24.8079977 C17.9985747,21.5514027 18.9181561,24.0673982 16.5802262,24.813767 L16.5802262,24.813767 Z" id="Shape" fill="#E5EAF9"></path>
                    <path d="M16.6412443,24.6595928 C17.4067873,25.1548982 16.6992081,24.9275905 17.3371154,25.5724208 C17.8079186,24.7262443 20.3594457,25.19569 21.1035068,24.6538235 C18.0596267,21.3971946 18.9792081,23.91319 16.6412443,24.6595928 L16.6412443,24.6595928 Z" id="Shape" fill="#F3F7FF"></path>
                    <polygon id="Shape" fill="#8FA5B0" points="13.1521493 22.4168213 10.780181 23.2141968 12.5145475 25.8034615 15.090543 23.5852262"></polygon>
                    <polygon id="Shape" fill="#64C4F4" points="12.9282692 22.1371833 10.4829299 23.0003959 12.2709502 25.8034615 15.0231448 23.4631561"></polygon>
                    <polygon id="Shape" fill="#64C4F4" points="17.113914 22.1371833 19.4821493 23.0003959 17.2120249 25.9273303 14.9419005 23.4631561"></polygon>
                    <path d="M14.7341063,23.9703394 C14.7341063,24.1286027 14.8624041,24.2569005 15.0206674,24.2569005 C15.1789307,24.2569005 15.3072285,24.1286027 15.3072285,23.9703394 C15.3072285,23.812076 15.1789307,23.6837783 15.0206674,23.6837783 C14.8624041,23.6837783 14.7341063,23.812076 14.7341063,23.9703394 Z" id="Shape" fill="#FFFDF8"></path>
                    <path d="M14.7341063,26.0511991 C14.7341063,26.2094624 14.8624041,26.3377602 15.0206674,26.3377602 C15.1789307,26.3377602 15.3072285,26.2094624 15.3072285,26.0511991 C15.3072285,25.8929358 15.1789307,25.764638 15.0206674,25.764638 C14.8624041,25.764638 14.7341063,25.8929358 14.7341063,26.0511991 L14.7341063,26.0511991 Z" id="Shape" fill="#FFFDF8"></path>
                    <path d="M14.7341063,28.42931 C14.7341063,28.5875733 14.8624041,28.715871 15.0206674,28.715871 C15.1789307,28.715871 15.3072285,28.5875733 15.3072285,28.42931 C15.3072285,28.2710466 15.1789307,28.1427489 15.0206674,28.1427489 C14.8624041,28.1427489 14.7341063,28.2710466 14.7341063,28.42931 L14.7341063,28.42931 Z" id="Shape" fill="#FFFDF8"></path>
                    <path d="M9.95042986,25.3316403 L10.3573982,25.5148303 C11.2536991,23.5239367 12.0135747,22.5616968 12.9298643,22.1055204 L12.9298643,21.6075 C12.0135747,22.0573643 10.9658824,23.0761425 9.95042986,25.3316403 L9.95042986,25.3316403 Z M17.0701357,21.5124095 L17.0701357,22.0114819 C17.9524887,22.4051131 18.6265045,23.3515724 19.5613914,25.6638801 L19.9638462,25.4966742 C18.8982014,22.8611538 18.1221719,21.8835407 17.0701357,21.5124095 Z" id="Shape" fill="#5A7C88"></path>
                    <path d="M8.33338235,28.4317873 C8.28757868,28.4109867 8.24247488,28.3886781 8.1981448,28.3648982 C8.21817576,28.3046862 8.23749836,28.2442408 8.2561086,28.1835747 C8.27097285,28.1374887 8.2858371,28.0943891 8.29920814,28.0512896 C8.31261312,28.0096833 8.32449095,27.9695362 8.33636878,27.9308824 C8.34678733,27.9011538 8.35571267,27.8729186 8.36460407,27.8446833 C8.36755656,27.8342647 8.37054299,27.8238801 8.37352941,27.8149548 L8.39436652,27.8208937 L8.51623303,27.8595475 C8.4999095,27.908586 8.48501131,27.9591176 8.46719457,28.0126357 C8.45826923,28.0393778 8.44934389,28.0676131 8.44041855,28.0973756 C8.4255543,28.1449548 8.40919683,28.1925 8.3928733,28.2430317 C8.37349548,28.3039819 8.35418552,28.3663914 8.33338235,28.4317873 L8.33338235,28.4317873 Z M9.75580317,28.3991063 C9.7438914,28.4199095 9.73204751,28.4422059 9.72013575,28.4645023 C9.69216439,28.5148838 9.66540333,28.5659278 9.63987557,28.6175905 C9.6190724,28.6577376 9.59677602,28.6978507 9.57447964,28.7409502 C9.5655543,28.7588009 9.55516968,28.7766176 9.54624434,28.7944683 C9.52096154,28.8420475 9.49421946,28.8895928 9.46747738,28.9386312 C9.4213914,28.9207805 9.37381222,28.9029638 9.32776018,28.8821606 C9.36193439,28.8197172 9.39614253,28.7588009 9.42736425,28.6993439 C9.43035068,28.693405 9.43330317,28.6874661 9.43628959,28.6829864 C9.46007919,28.6369005 9.48383484,28.5908484 9.50765837,28.5477489 C9.54033937,28.4838462 9.5730543,28.4243891 9.60278281,28.3693778 C9.61021493,28.3545136 9.61764706,28.3411425 9.62507919,28.3277715 L9.75580317,28.3991063 L9.75580317,28.3991063 Z" id="Shape" fill="#879BA0"></path>
                    <path d="M9.72957014,28.8066855 L9.3188009,28.6332353 L10.3113801,26.2826131 C10.4070475,26.056086 10.3005882,25.7940271 10.0740611,25.6983597 C9.84753394,25.6027262 9.58547511,25.7091516 9.48984163,25.9356787 L8.49726244,28.2863009 L8.08649321,28.1128507 L9.0790724,25.7622285 C9.2703733,25.3092081 9.79452489,25.0962896 10.2475452,25.2875905 C10.7005656,25.4788914 10.9134842,26.003043 10.7221833,26.4560633 L9.72957014,28.8066855 L9.72957014,28.8066855 Z" id="Shape" fill="#5A7C88"></path>
                    <path d="M16.1236765,6.33251131 C16.4000566,5.31054299 17.4221946,4.71614253 18.4321493,4.79348416 C19.4421041,4.87082579 20.4079751,5.51908371 21.1259389,6.35738688 C21.348733,6.61754525 21.5535068,6.89911765 21.7045249,7.21072398 C22.2029525,8.23924208 22.1325679,11.7798529 21.7036425,12.756957 L16.1236765,6.33251131 Z" id="Shape" fill="#332115"></path>
                    <path d="M16.1767534,4.35783937 C16.7555769,4.81700226 17.2919118,5.63721719 17.0047398,6.37584842 C16.3203054,7.37385747 15.0281335,7.32135747 13.9538348,7.61664027 C13.1144457,7.84734163 12.3420136,8.33596154 11.5038122,8.57243213 C10.5195475,8.85013575 9.43744344,8.75504525 8.55458145,8.18222851 C7.67171946,7.60941176 7.02128959,6.53005656 6.97849548,5.36440045 C7.3871267,5.58753394 7.81388009,5.81545249 8.26608597,5.80920814 C8.88207014,5.80072398 9.42111991,5.36572398 9.95585973,5.01359729 C10.5123529,4.64714932 11.1036652,4.35678733 11.6933824,4.06730769 C12.1476244,3.84434389 12.6062104,3.619819 13.0913009,3.51349548 C14.1574887,3.27980769 15.2830656,3.64890271 16.1767534,4.35783937 L16.1767534,4.35783937 Z" id="Shape" fill="#332115"></path>
                    <path d="M21.9093326,11.5250566 C21.8977262,11.1810068 21.8641968,10.8660747 21.8622624,10.7107466 C21.8480769,9.56579186 21.4905543,8.5646267 20.8079186,7.64450226 C19.6222398,6.0463914 17.8319796,5.07169683 15.8274774,5.07169683 L14.2385973,5.07169683 C12.4484389,5.07169683 10.7434615,5.89571267 9.54386878,7.20875566 C8.81429864,8.007319 8.31950226,8.99867647 8.0986086,10.0562104 C7.98532805,10.598552 7.94372172,11.155181 7.96812217,11.7084842 C7.98736425,12.144638 7.89957014,12.9785973 8.45036199,12.6647511 C8.79196833,12.4700905 9.13204751,11.7641403 9.42329186,11.4639367 C9.79479638,11.0810294 10.2039706,10.7334842 10.6515611,10.4423756 C11.545724,9.86076923 12.5755656,9.52466063 13.6418213,9.4761991 C15.3559276,9.39831448 16.982138,10.0278394 18.4539706,10.8529751 C19.2932919,11.3235068 20.0677262,11.5813235 20.6577828,12.3668213 C20.8054072,12.5633145 20.9544231,12.7819683 21.1857014,12.8650792 C21.8605656,13.1075566 21.9338348,12.2514706 21.9093326,11.5250566 L21.9093326,11.5250566 Z" id="Shape" fill="#332115"></path>
                    <path d="M8.03779412,11.211957 C8.10196833,11.0410181 8.23001131,10.9016403 8.36864253,10.7827941 C8.84307692,10.3761312 9.4806448,10.1655543 10.1039593,10.209638 C9.48257919,10.8544005 8.87945701,11.6166855 8.839819,12.5112557 C8.81382353,13.0975113 9.03223982,13.7150566 8.8019457,14.254819 C8.37122172,13.5027149 8.0969457,12.6614932 8.00154977,11.8000452 C7.97969457,11.6029412 7.96808824,11.3975905 8.03779412,11.211957 L8.03779412,11.211957 Z M21.7928959,11.211957 C21.7287217,11.0410181 21.6006787,10.9016403 21.4620475,10.7827941 C20.9876131,10.3761312 20.3500452,10.1655543 19.7267308,10.209638 C20.3481109,10.8544005 20.951233,11.6166855 20.990871,12.5112557 C21.0168665,13.0975113 20.7984842,13.7150566 21.0287443,14.254819 C21.4594683,13.5027149 21.7337443,12.6614932 21.8291403,11.8000452 C21.8509955,11.6029412 21.8626018,11.3975905 21.7928959,11.211957 L21.7928959,11.211957 Z" id="Shape" fill="#332115"></path>
                    <path d="M17.0359615,20.3372511 L17.0359615,20.9332466 C15.845871,21.5827602 14.3513009,21.4772511 12.8567647,20.9525566 L12.8567647,20.3045023 C13.0228167,20.308948 12.9157127,20.3134276 12.9246041,20.3163801 C13.5815837,20.6032466 14.2735181,20.763767 15.0047851,20.763767 C15.7182353,20.7638009 16.4270701,20.6107127 17.0359615,20.3372511 Z" id="Shape" fill="#F4C7A8"></path>
                </g>
            </g>
        </g>
    </g>
</svg>