<?xml version="1.0" encoding="UTF-8"?>
<svg width="20px" height="16px" viewBox="0 0 20 16" version="1.1" xmlns="http://www.w3.org/2000/svg" xmlns:xlink="http://www.w3.org/1999/xlink">
    <!-- Generator: Sketch 42 (36781) - http://www.bohemiancoding.com/sketch -->
    <title>icon_top_message</title>
    <desc>Created with Sketch.</desc>
    <defs></defs>
    <g id="管理员模块" stroke="none" stroke-width="1" fill="none" fill-rule="evenodd">
        <path d="M0,1.99406028 C0,0.892771196 0.898212381,0 1.99079514,0 L18.0092049,0 C19.1086907,0 20,0.894513756 20,1.99406028 L20,14.0059397 C20,15.1072288 19.1017876,16 18.0092049,16 L1.99079514,16 C0.891309342,16 0,15.1054862 0,14.0059397 L0,1.99406028 Z M1.2773501,1.58397485 C1.04758575,1.43079862 0.737151082,1.49288556 0.583974853,1.7226499 C0.430798623,1.95241425 0.492885558,2.26284892 0.722649902,2.41602515 L9.7226499,8.41602515 C9.89059961,8.52799162 10.1094004,8.52799162 10.2773501,8.41602515 L19.2773501,2.41602515 C19.5071144,2.26284892 19.5692014,1.95241425 19.4160251,1.7226499 C19.2628489,1.49288556 18.9524142,1.43079862 18.7226499,1.58397485 L10,7.39907479 L1.2773501,1.58397485 Z" id="Combined-Shape" fill="#20A0FF"></path>
    </g>
</svg>