<?xml version="1.0" encoding="UTF-8"?>
<svg width="40px" height="40px" viewBox="0 0 40 40" version="1.1" xmlns="http://www.w3.org/2000/svg" xmlns:xlink="http://www.w3.org/1999/xlink">
    <!-- Generator: Sketch 42 (36781) - http://www.bohemiancoding.com/sketch -->
    <title>icon_home_patient</title>
    <desc>Created with Sketch.</desc>
    <defs></defs>
    <g id="管理员模块" stroke="none" stroke-width="1" fill="none" fill-rule="evenodd">
        <path d="M20,40 C8.954305,40 0,31.045695 0,20 C0,8.954305 8.954305,0 20,0 C31.045695,0 40,8.954305 40,20 C40,31.045695 31.045695,40 20,40 Z M15.9842268,23.4249845 C15.9784916,23.4204866 15.9742994,23.4149466 15.9684187,23.4105584 C14.0198227,21.95895 13.188395,20.4728945 13.188395,18.4417453 C13.188395,17.9793962 12.7906291,17.6045637 12.2997318,17.6045637 C11.8088346,17.6045637 11.4110396,17.9794236 11.4110396,18.4417453 C11.4110396,20.6736261 12.2668928,22.4897821 14.0861995,24.0923437 C11.3172096,26.1369865 9.78006245,28.2326419 9.02884004,30.9515827 C8.90531514,31.3990668 9.18997847,31.8563695 9.66498022,31.9727385 C9.74020726,31.9910043 9.81540519,32 9.88946774,32 C10.2843515,32 10.644795,31.7500934 10.7489309,31.3734783 C11.4648979,28.78163 13.0432394,26.8197317 16.0260326,24.813266 C16.4255452,24.5445451 16.5180943,24.0217215 16.2328778,23.6454903 C16.1639391,23.5544905 16.0786973,23.4812628 15.9842268,23.4249845 Z M30.9703628,30.9488675 C30.2117167,28.24076 28.6965497,26.1624653 25.9884633,24.152352 C27.8496923,22.5498452 28.7249345,20.7138327 28.7249345,18.4417727 C28.7249345,17.9794236 28.3271685,17.6045911 27.8362713,17.6045911 C27.3453741,17.6045911 26.947579,17.979451 26.947579,18.4417727 C26.947579,20.4719345 26.0787125,22.0135828 24.1353568,23.4334043 C24.0138116,23.4924801 23.9035038,23.5754989 23.8186696,23.6875893 C23.533424,24.0638205 23.6260022,24.5866442 24.0255148,24.8553651 C27.0007969,26.8569215 28.515178,28.7460584 29.2519896,31.3761935 C29.3569989,31.751739 29.7168602,32 30.1105794,32 C30.1855153,32 30.2618778,31.9910043 30.3379491,31.9719431 C30.8123977,31.8539012 31.0956054,31.3960774 30.9703628,30.9488675 Z M12.1784777,16.6900954 C12.6606994,16.6114648 12.9844319,16.1787085 12.9028292,15.7239838 C12.8984914,15.7003974 12.4981345,13.3519282 14.0397066,11.6335188 C15.2058132,10.3334396 17.2056183,9.67433571 19.983604,9.67433571 C22.7638897,9.67433571 24.7686439,10.3346738 25.9425527,11.6369197 C27.4928296,13.3565358 27.1051948,15.7044838 27.1014102,15.7249163 C27.018381,16.1805734 27.3429578,16.6134943 27.8269262,16.6918233 C27.8778442,16.7001334 27.9284711,16.7040827 27.9785157,16.7040827 C28.4031817,16.7040827 28.7786764,16.4163007 28.8533212,16.0086118 C28.8761746,15.8825615 29.3925454,12.8950095 27.3128844,10.5702639 C25.7872077,8.86471738 23.3210764,8 19.9836332,8 C16.6464519,8 14.1849496,8.86458024 12.6668131,10.5699074 C10.5958276,12.8964357 11.1284141,15.886456 11.1521409,16.012616 C11.2374409,16.4669019 11.6979737,16.7694117 12.1784777,16.6900954 Z M16.8401674,16.105947 C16.3492411,16.105947 15.9514751,16.4808069 15.9514751,16.943156 L15.9514751,17.8362045 C15.9514751,18.2985536 16.3492411,18.6733861 16.8401674,18.6733861 C17.3310937,18.6733861 17.7288306,18.2985262 17.7288306,17.8362045 L17.7288306,16.943156 C17.7288305,16.4808069 17.3310646,16.105947 16.8401674,16.105947 Z M23.1598216,16.105947 C22.6688952,16.105947 22.2711293,16.4808069 22.2711293,16.943156 L22.2711293,17.8362045 C22.2711293,18.2985536 22.6688952,18.6733861 23.1598216,18.6733861 C23.6507479,18.6733861 24.0484847,18.2985262 24.0484847,17.8362045 L24.0484847,16.943156 C24.0485138,16.4808069 23.6507479,16.105947 23.1598216,16.105947 Z M22.1915062,19.6456411 C21.7841914,19.3934308 21.2360004,19.5009411 20.9635062,19.8804085 C20.9597507,19.8855921 20.5761626,20.4099241 19.9912315,20.4099241 C19.4225162,20.4099241 19.0684193,19.9242903 19.0446925,19.8906384 C18.7834648,19.5042048 18.2399028,19.3863274 17.8259503,19.6290209 C17.4090865,19.8730583 17.2809327,20.3893546 17.5401516,20.7820688 C17.859226,21.2656731 18.7343227,22.0843147 19.9912316,22.0843147 C21.242085,22.0843147 22.1281572,21.2717892 22.4544807,20.7915857 C22.7168437,20.4057005 22.5976566,19.8975773 22.1915062,19.6456411 Z" id="Combined-Shape" fill="#71E2A3"></path>
    </g>
</svg>