<?xml version="1.0" encoding="UTF-8"?>
<svg width="100px" height="100px" viewBox="0 0 100 100" version="1.1" xmlns="http://www.w3.org/2000/svg" xmlns:xlink="http://www.w3.org/1999/xlink">
    <!-- Generator: Sketch 42 (36781) - http://www.bohemiancoding.com/sketch -->
    <title>icon_newdoctor_defaultavatar</title>
    <desc>Created with Sketch.</desc>
    <defs></defs>
    <g id="管理员模块" stroke="none" stroke-width="1" fill="none" fill-rule="evenodd">
        <g id="医生-男-copy" fill-rule="nonzero">
            <g id="Group">
                <path d="M4.82421628e-15,50 C3.21614419e-15,77.6142375 22.3857625,100 50,100 C77.6142375,100 100,77.6142375 100,50 C100,22.3857625 77.6142375,0 50,0 C22.3857625,-1.60807209e-15 3.21614419e-15,22.3857625 0,50 L4.82421628e-15,50 Z" id="Shape" fill="#00B3C1"></path>
                <path d="M49.774095,51.6418552 C53.2430995,53.5428733 58.5548643,39.1587104 49.4617647,39.9718326 C40.3686652,40.7848416 49.774095,51.6418552 49.774095,51.6418552 Z" id="Shape" fill="#FFE1CC"></path>
                <path d="M47.5590498,85.3510181 C47.5590498,86.6994925 48.6522043,87.7926471 50.0006787,87.7926471 C51.3491532,87.7926471 52.4423077,86.6994925 52.4423077,85.3510181 C52.4423077,84.0025437 51.3491532,82.9093891 50.0006787,82.9093891 C48.6522043,82.9093891 47.5590498,84.0025437 47.5590498,85.3510181 L47.5590498,85.3510181 Z" id="Shape" fill="#5A7C88"></path>
                <path d="M29.7912896,51.6323529 C26.3744344,53.6255656 20.679638,39.3885747 29.7912896,39.9581448 C38.9028281,40.5274887 29.7912896,51.6323529 29.7912896,51.6323529 Z M69.6807692,51.6323529 C73.0976244,53.6255656 78.7924208,39.3885747 69.6807692,39.9581448 C60.5692308,40.5274887 69.6807692,51.6323529 69.6807692,51.6323529 Z" id="Shape" fill="#FFE1CC"></path>
                <path d="M71.8095023,44.2090498 C71.8095023,56.2152715 62.0765837,69.2102941 50.0702489,69.2102941 C38.063914,69.2102941 28.3311086,56.2152715 28.3311086,44.2090498 C28.3311086,32.2028281 38.0641403,22.4697964 50.070362,22.4697964 C62.0765837,22.4697964 71.8095023,32.2028281 71.8095023,44.2090498 Z M70.0483032,83.038914 C70.0483032,88.3290724 61.1038462,92.6175339 50.0702489,92.6175339 C39.0366516,92.6175339 30.0921946,88.3290724 30.0921946,83.038914 C30.0921946,77.7487557 39.0366516,76.1027149 50.0702489,76.1027149 C61.1038462,76.1027149 70.0483032,77.7487557 70.0483032,83.038914 Z" id="Shape" fill="#FFE1CC"></path>
                <path d="M78.125,91.319457 C74.9244344,93.5042986 71.4563348,95.3276018 67.7751131,96.7197964 C66.810097,97.0938483 65.8317707,97.43261 64.8420814,97.7354072 C61.6656722,98.7251126 58.3972418,99.3907601 55.0867647,99.7221719 C53.5211454,99.8815308 51.948796,99.9658656 50.3751131,99.9748869 C50.3057692,99.9798643 50.2364253,99.9798643 50.1669683,99.9798643 L49.8598416,99.9798643 C49.7954751,99.9798643 49.7309955,99.9798643 49.666629,99.9748869 C48.1095896,99.9691674 46.5537377,99.8881527 45.0045249,99.7321267 C41.8089367,99.4150452 38.7074661,98.8006787 35.7199095,97.9039593 C34.8224141,97.6416886 33.9335017,97.3508925 33.0545249,97.0320136 C32.5511041,96.8545657 32.0521929,96.6645744 31.5582579,96.4622172 C31.404638,96.4027149 31.2460407,96.3433258 31.0925339,96.2739819 C29.9678733,95.8180995 28.8580317,95.3177602 27.7779412,94.7727376 C27.6252623,94.7034021 27.4749163,94.6290403 27.3271493,94.5497738 C25.4742081,93.6084842 23.6856335,92.54819 21.9763575,91.3888009 C23.5717195,87.6680995 25.7021493,84.6458145 28.2487557,82.2478507 C29.2693439,81.2816742 30.3643665,80.4196833 31.5136878,79.6566742 C31.5186652,79.6516968 31.5186652,79.6566742 31.5186652,79.6566742 C31.9348416,79.3791855 32.3558824,79.1116516 32.786991,78.8590498 C33.10961,78.6696025 33.4367015,78.4878766 33.7679864,78.3140271 C34.2229138,78.0712542 34.6855605,77.843232 35.1552036,77.6303167 C35.259276,77.5807692 35.3632353,77.5361991 35.4673077,77.491629 C36.0216387,77.242489 36.585202,77.0144222 37.1567873,76.8079186 C37.35,76.7335973 37.5382353,76.6642534 37.7315611,76.5998869 C37.7365385,76.5998869 37.7365385,76.5998869 37.7415158,76.5949095 L37.7464932,76.5949095 C38.0009762,76.5062543 38.2569722,76.4220034 38.5143665,76.3421946 C38.7670814,76.2580317 39.0196833,76.1835973 39.2723982,76.1093891 C39.2674208,76.1489819 39.2723982,76.1985294 39.2872172,76.2530543 C39.3070136,76.3621041 39.3516968,76.4958145 39.4160633,76.6544118 C39.4408371,76.7039593 39.4607466,76.7535068 39.4855204,76.8080317 C39.6044118,77.0705882 39.7728507,77.3828054 39.9859729,77.7345023 C40.3575792,78.3636878 40.8727376,79.1168552 41.4871041,79.9095023 C41.4920814,79.9144796 41.4970588,79.9244344 41.5020362,79.9292986 C41.6704751,80.1423077 41.8488688,80.3602941 42.0271493,80.5832579 L42.0321267,80.5932127 C42.0420814,80.59819 42.0470588,80.6081448 42.0519231,80.613009 C42.2738997,80.8792503 42.5001737,81.141879 42.7306561,81.4007919 C42.7306561,81.4007919 42.7356335,81.4007919 42.7356335,81.4057692 C43.0112131,81.706281 43.2920253,82.0019521 43.5779412,82.2926471 C43.7067873,82.4165158 43.8356335,82.545362 43.9643665,82.6692308 C44.1005706,82.8007284 44.2393224,82.9295612 44.380543,83.0556561 C44.5024593,83.1719218 44.628051,83.2842714 44.7571267,83.3925339 C44.9528903,83.5589524 45.151102,83.7224695 45.3516968,83.8830317 C45.510181,84.0069005 45.6687783,84.1257919 45.8272624,84.2446833 C46.3970588,84.6608597 46.9816742,85.0126697 47.5662896,85.2900452 C48.3193439,85.6566742 49.0823529,85.879638 49.8254525,85.9192308 C49.9047511,85.9291855 49.9890271,85.9291855 50.0682127,85.9291855 C50.1475113,85.9291855 50.2317873,85.9291855 50.3109729,85.9192308 C51.0096154,85.8845023 51.7279412,85.6764706 52.4414027,85.3544118 C53.0705882,85.0670814 53.6998869,84.6856335 54.3141403,84.2445701 C54.5250333,84.0936061 54.7315657,83.9366415 54.9334842,83.7738688 C55.2159502,83.5410633 55.4933258,83.3031674 55.7658371,83.0505656 C55.9033197,82.9290367 56.0371644,82.8034535 56.1671946,82.6739819 C56.3554299,82.4955882 56.5437783,82.3123303 56.7220588,82.124095 C56.9808532,81.863965 57.2319788,81.5963165 57.4751131,81.3214932 C57.6116529,81.1703647 57.7454233,81.0167569 57.8763575,80.8607466 L57.8813348,80.8557692 C58.0165507,80.6967881 58.1503419,80.5366007 58.2826923,80.3752262 C58.7707953,79.7732909 59.2320305,79.1500573 59.6650452,78.5073529 C60.1158371,77.8335973 60.4528281,77.2440045 60.6558824,76.8080317 C60.6806561,76.7535068 60.7004525,76.7039593 60.7252262,76.6544118 C60.8292986,76.4066742 60.8788462,76.2234163 60.8688914,76.1093891 C61.4089367,76.2679864 61.9440045,76.4364253 62.4691176,76.6196833 C62.6227376,76.6742081 62.7813348,76.728733 62.9298643,76.7881222 C63.4253394,76.9665158 63.9158371,77.1597285 64.3963801,77.3727376 C65.0543852,77.6498081 65.6991605,77.9573041 66.3286199,78.2942308 C66.3335973,78.2942308 66.3335973,78.2992081 66.3385747,78.2992081 C66.6854072,78.4726244 67.0173077,78.6608597 67.3542986,78.8590498 C71.9319005,81.5393665 75.6676471,85.6020362 78.125,91.319457 L78.125,91.319457 Z" id="Shape" fill="#FFFDF8"></path>
                <polygon id="Shape" fill="#FFE1CC" points="43.0078054 58.9272624 43.0078054 79.2404977 56.8802036 79.2404977 56.8802036 58.9272624"></polygon>
                <path d="M60.8984163,78.4972851 L60.8736425,78.5765837 C60.8786199,78.5815611 60.8736425,78.5815611 60.8736425,78.5815611 L59.8233032,82.421267 L59.466629,83.7292986 L59.3823529,84.0414027 L59.2485294,84.5269231 L59.2485294,84.5319005 L58.4161765,87.5739819 L58.4111991,87.5789593 L57.2073529,91.9884615 L55.0868778,99.7222851 C53.5212585,99.8816439 51.9489091,99.9659787 50.3752262,99.975 C50.3058824,99.9799774 50.2365385,99.9799774 50.1670814,99.9799774 L49.8599548,99.9799774 C49.7955882,99.9799774 49.7311086,99.9799774 49.6667421,99.975 C48.1097027,99.9692806 46.5538508,99.8882659 45.004638,99.7322398 C44.3852941,97.2946833 43.7066742,94.6242081 43.0426471,92.0082579 C42.6363122,90.4376697 42.2400452,88.8820136 41.8634615,87.4154977 C41.7,86.7912896 41.5463801,86.1867647 41.3927602,85.5971719 C41.3829186,85.5625566 41.3729638,85.5328054 41.3679864,85.4980769 L41.3679864,85.4930995 C41.249095,85.0471719 41.1400452,84.6161765 41.0311086,84.1950226 C40.9866516,84.0315611 40.9469457,83.8729638 40.9072398,83.7144796 L40.9022624,83.7095023 C40.6942308,82.9019231 40.4960407,82.1588235 40.3176471,81.4799774 C40.0760679,80.5568019 39.8283248,79.6352504 39.5744344,78.7153846 L39.5744344,78.7104072 C39.5341817,78.5718603 39.4945508,78.4331334 39.455543,78.2942308 L39.455543,78.2892534 C39.341629,77.9028281 39.2722851,77.6848416 39.2524887,77.6699095 L39.9857466,77.734276 L43.0079186,78.0117647 L49.3100679,78.5815611 L49.6420814,78.5815611 L50.1425339,78.5765837 L50.2366516,78.5765837 L56.880543,78.5270362 L59.6650452,78.5072398 L60.6906109,78.4973982 L60.8984163,78.4973982 L60.8984163,78.4972851 Z" id="Shape" fill="#79C4FF"></path>
                <path d="M49.666629,99.9747738 C48.1095896,99.9690543 46.5537377,99.8880396 45.0045249,99.7320136 C41.8089367,99.4149321 38.7074661,98.8005656 35.7199095,97.9038462 C34.8224141,97.6415755 33.9335017,97.3507794 33.0545249,97.0319005 C32.6515403,96.6722527 32.2402295,96.3220445 31.8209276,95.9815611 C31.6920814,95.8774887 31.558371,95.768552 31.4245475,95.6644796 C31.3650452,95.6149321 31.3056561,95.5653846 31.2411765,95.5208145 C31.1917421,95.4762443 31.1371041,95.4366516 31.0826923,95.3969457 C30.2809518,94.7713216 29.4545387,94.1779753 28.6054299,93.6183258 C28.4766968,93.5390271 28.3528281,93.4548643 28.2239819,93.3755656 C28.0803167,93.281448 27.9316742,93.1923077 27.7878959,93.1030543 C27.7334842,93.0683258 27.6838235,93.0386878 27.6294118,93.0039593 C27.7136878,92.9395928 27.7978507,92.8751131 27.8821267,92.815724 C27.9167421,92.7909502 27.9514706,92.7611991 27.9812217,92.7364253 C28.2239819,92.5580317 28.4617647,92.3747738 28.6946833,92.1963801 C28.9523756,91.9932127 29.2099548,91.8 29.4576923,91.5969457 L29.4626697,91.5919683 C30.8894796,90.4673077 32.1826923,89.3723982 33.3667421,88.2972851 C33.740771,87.9582884 34.1091105,87.6130668 34.4716063,87.2617647 C34.9274887,86.8307692 35.3584842,86.404638 35.779638,85.9785068 L35.779638,85.9735294 C36.1271892,85.6124158 36.4706874,85.2474231 36.8100679,84.8786199 C36.9339367,84.7447964 37.0825792,84.6011312 37.3600679,84.6209276 C37.5285068,84.6308824 37.7217195,84.7050905 37.9050905,84.7795249 C39.2873303,85.3443439 40.5606335,86.2708145 41.6754525,87.2468326 C41.739819,87.3013575 41.8042986,87.3608597 41.8636878,87.4152715 C43.5232636,88.8948341 44.9838022,90.5835225 46.2087104,92.4390271 C47.7430692,94.7575882 48.9095029,97.299565 49.666629,99.9747738 L49.666629,99.9747738 Z" id="Shape" fill="#E5EAF9"></path>
                <path d="M46.6791855,92.478733 C48.056448,95.2680995 49.3197964,97.8394796 49.8598416,99.9797511 C49.7954751,99.9797511 49.7309955,99.9797511 49.666629,99.9747738 C48.1095896,99.9690543 46.5537377,99.8880396 45.0045249,99.7320136 C41.8089367,99.4149321 38.7074661,98.8005656 35.7199095,97.9038462 C34.7636878,96.9377828 33.7828054,96.0311086 32.7770362,95.1987557 C32.6562534,95.0875514 32.5306022,94.9817538 32.4004525,94.8816742 C32.2716063,94.7726244 32.1378959,94.6686652 32.0090498,94.5645928 C31.8653846,94.4457014 31.7217195,94.3366516 31.5780543,94.2277149 C30.7605204,93.5885747 29.9332579,92.9940045 29.0959276,92.4539593 C28.9655624,92.3628474 28.8316737,92.2768839 28.6945701,92.196267 C28.4672759,92.0490085 28.2376851,91.9053257 28.0058824,91.7652715 C28.7093891,91.25 29.3831448,90.7446833 30.0322398,90.2343891 L30.0372172,90.2343891 C31.0479638,89.4466063 31.9942308,88.6737557 32.8761312,87.915724 C33.3936736,87.4697441 33.9040703,87.0155385 34.4071267,86.5532805 C34.7985294,86.1866516 35.175,85.8299774 35.5317873,85.4781674 C36.0272624,84.9926471 36.4978507,84.5121041 36.9388009,84.0364253 C37.0180995,83.9522624 37.2460407,83.6400452 37.4738688,83.4368778 C37.5927602,83.3328054 37.7116516,83.2584842 37.8057692,83.2634615 C37.9693439,83.2782805 38.3062217,83.1941176 38.4895928,83.2634615 C38.6976244,83.3477376 38.8958145,83.3080317 39.0940045,83.1791855 C39.0989819,83.1791855 39.1039593,83.1742081 39.1089367,83.1692308 C39.2526018,83.0751131 39.3912896,82.9264706 39.5300905,82.7530543 C39.8026018,82.4062217 40.0651584,81.9356335 40.3178733,81.4797511 C40.5804299,81.0090498 40.8331448,80.5483032 41.0858597,80.2460407 C41.1502262,80.1667421 41.2097285,80.1023756 41.274095,80.0478507 C41.3366456,79.9897273 41.4087402,79.9428121 41.4872172,79.9091629 C41.640724,79.8447964 41.7943439,79.8645928 41.9479638,79.9983032 C41.9777149,80.2014706 42.0123303,80.3996606 42.0520362,80.6027149 L42.0520362,80.6125566 C42.0817873,80.7512443 42.1065611,80.8949095 42.1411765,81.0386878 L42.1411765,81.0436652 C42.3295249,81.960181 42.5871041,82.87681 42.8892534,83.7983032 C42.9339367,83.9320136 42.9785068,84.0658371 43.0279412,84.2045249 L43.0279412,84.2095023 C43.0428733,84.2540724 43.0576923,84.2986425 43.0774887,84.3433258 C43.1170814,84.4671946 43.166629,84.5960407 43.2113122,84.7199095 L43.2113122,84.7248869 C44.1671946,87.3806561 45.4702489,90.0114253 46.6791855,92.478733 L46.6791855,92.478733 Z" id="Shape" fill="#F3F7FF"></path>
                <path d="M44.6226244,82.2170814 C42.0708145,83.8680995 44.4292986,83.1104072 42.3030543,85.2598416 C40.7337104,82.4392534 32.2286199,84.0040724 29.7484163,82.1978507 C39.8946833,71.3425339 36.8294118,79.7291855 44.6226244,82.2170814 Z" id="Shape" fill="#E5EAF9"></path>
                <path d="M44.4191176,81.7031674 C41.8673077,83.3541855 44.2257919,82.5963801 42.0995475,84.7459276 C40.5302036,81.9253394 32.0251131,83.4901584 29.5449095,81.6839367 C39.6912896,70.8285068 36.6260181,79.2151584 44.4191176,81.7031674 Z" id="Shape" fill="#F3F7FF"></path>
                <path d="M72.2589367,93.4993213 C70.738009,94.4257919 69.2367647,95.500905 67.7751131,96.7196833 C66.810097,97.0937352 65.8317707,97.4324969 64.8420814,97.7352941 C61.6656722,98.7249995 58.3972418,99.390647 55.0867647,99.7220588 C53.5211454,99.8814176 51.948796,99.9657524 50.3751131,99.9747738 C51.1628959,97.3488688 52.3865385,94.7776018 54.0216063,92.4291855 C55.2057692,90.7298643 56.6028281,89.1493213 58.213009,87.7423077 C58.2773756,87.6828054 58.3418552,87.633371 58.4111991,87.5788462 L58.4161765,87.5738688 C59.4813348,86.6572398 60.6902715,85.8050905 61.983371,85.275 C62.1667421,85.2006787 62.3599548,85.1263575 62.5283937,85.1164027 C62.8107466,85.0966063 62.9544118,85.2402715 63.0782805,85.374095 C64.0394796,86.4244344 65.1195701,87.5045249 66.3283937,88.609276 C67.7651584,89.9321267 69.3803167,91.2895928 71.1936652,92.6917421 C71.5404977,92.9593891 71.8971719,93.2269231 72.2589367,93.4993213 Z" id="Shape" fill="#E5EAF9"></path>
                <path d="M71.8873303,92.2607466 C71.6539288,92.4008123 71.4227169,92.5444948 71.1937783,92.6917421 C69.0088235,94.0789593 66.868552,95.7734163 64.8421946,97.7354072 C61.6657854,98.7251126 58.3973549,99.3907601 55.0868778,99.7221719 C53.5212585,99.8815308 51.9489091,99.9658656 50.3752262,99.9748869 C50.3058824,99.9798643 50.2365385,99.9798643 50.1670814,99.9798643 C50.796267,97.8098416 52.0893665,95.2434389 53.4469457,92.4788462 C54.5418552,90.259276 55.681448,87.9108597 56.558371,85.5376697 C56.6475113,85.3048643 56.7317873,85.0719457 56.8160633,84.8391403 L56.8160633,84.8341629 C56.8804299,84.650905 56.9399321,84.4675339 56.9993213,84.2891403 C57.3015837,83.3676471 57.559276,82.4510181 57.7473982,81.5394796 L57.7473982,81.5345023 C57.7821267,81.3908371 57.8069005,81.2471719 57.8366516,81.1035068 C57.8515837,81.0192308 57.8664027,80.9400452 57.8762443,80.8607466 L57.8812217,80.8557692 C57.9010181,80.7368778 57.9209276,80.613009 57.940724,80.4941176 C58.054638,80.3950226 58.1686652,80.3604072 58.2825792,80.3752262 C58.3915158,80.385181 58.505543,80.4445701 58.6144796,80.5486425 C58.6789593,80.59819 58.7383484,80.6625566 58.8028281,80.7418552 C59.1347285,81.1432127 59.4717195,81.811991 59.8234163,82.4213801 C59.9175339,82.5848416 60.0116516,82.7434389 60.115724,82.8920814 C60.328733,83.2289593 60.55181,83.506448 60.7846154,83.6649321 C60.9826923,83.8036199 61.1858597,83.8531674 61.4039593,83.7640271 C61.5822398,83.6897059 61.9192308,83.7738688 62.0826923,83.7640271 C62.17681,83.7540724 62.2957014,83.8283937 62.4147059,83.9324661 C62.6426471,84.1306561 62.8704751,84.4477376 62.954638,84.5320136 C64.0743213,85.7359729 65.3625566,86.9745475 66.8290724,88.2528281 C68.3251131,89.5506787 70.004638,90.8834842 71.8873303,92.2607466 L71.8873303,92.2607466 Z" id="Shape" fill="#F3F7FF"></path>
                <path d="M55.2674208,82.7125566 C57.8192308,84.3635747 55.4607466,83.6057692 57.586991,85.7553167 C59.1563348,82.9347285 67.6614253,84.4995475 70.141629,82.6933258 C59.9952489,71.838009 63.0605204,80.2246606 55.2674208,82.7125566 L55.2674208,82.7125566 Z" id="Shape" fill="#E5EAF9"></path>
                <path d="M55.4708145,82.1986425 C58.0226244,83.8496606 55.6640271,83.0919683 57.7903846,85.2414027 C59.3597285,82.4208145 67.864819,83.9856335 70.3450226,82.1794118 C60.1987557,71.3239819 63.2640271,79.7106335 55.4708145,82.1986425 L55.4708145,82.1986425 Z" id="Shape" fill="#F3F7FF"></path>
                <polygon id="Shape" fill="#8FA5B0" points="43.8404977 74.7227376 35.9339367 77.3806561 41.7151584 86.0115385 50.30181 78.6174208"></polygon>
                <polygon id="Shape" fill="#64C4F4" points="43.0942308 73.7906109 34.9430995 76.6679864 40.9031674 86.0115385 50.0771493 78.2105204"></polygon>
                <polygon id="Shape" fill="#64C4F4" points="57.0463801 73.7906109 64.9404977 76.6679864 57.3734163 86.4244344 49.8063348 78.2105204"></polygon>
                <path d="M49.1136878,79.9011312 C49.1136878,80.4286756 49.541347,80.8563348 50.0688914,80.8563348 C50.5964358,80.8563348 51.024095,80.4286756 51.024095,79.9011312 C51.024095,79.3735868 50.5964358,78.9459276 50.0688914,78.9459276 C49.541347,78.9459276 49.1136878,79.3735868 49.1136878,79.9011312 Z" id="Shape" fill="#FFFDF8"></path>
                <path d="M49.1136878,86.8373303 C49.1136878,87.3648747 49.541347,87.7925339 50.0688914,87.7925339 C50.5964358,87.7925339 51.024095,87.3648747 51.024095,86.8373303 C51.024095,86.3097859 50.5964358,85.8821267 50.0688914,85.8821267 C49.541347,85.8821267 49.1136878,86.3097859 49.1136878,86.8373303 L49.1136878,86.8373303 Z" id="Shape" fill="#FFFDF8"></path>
                <path d="M49.1136878,94.7643665 C49.1136878,95.2919109 49.541347,95.7195701 50.0688914,95.7195701 C50.5964358,95.7195701 51.024095,95.2919109 51.024095,94.7643665 C51.024095,94.2368221 50.5964358,93.8091629 50.0688914,93.8091629 C49.541347,93.8091629 49.1136878,94.2368221 49.1136878,94.7643665 L49.1136878,94.7643665 Z" id="Shape" fill="#FFFDF8"></path>
                <path d="M33.1680995,84.4388009 L34.5246606,85.0494344 C37.5123303,78.4131222 40.0452489,75.2056561 43.0995475,73.6850679 L43.0995475,72.025 C40.0452489,73.5245475 36.5529412,76.9204751 33.1680995,84.4388009 L33.1680995,84.4388009 Z M56.9004525,71.7080317 L56.9004525,73.3716063 C59.841629,74.6837104 62.0883484,77.8385747 65.204638,85.546267 L66.5461538,84.988914 C62.9940045,76.2038462 60.4072398,72.9451357 56.9004525,71.7080317 Z" id="Shape" fill="#5A7C88"></path>
                <path d="M27.7779412,94.7726244 C27.6252623,94.703289 27.4749163,94.6289272 27.3271493,94.5496606 C27.3939192,94.3489539 27.4583279,94.1474694 27.520362,93.9452489 C27.5699095,93.791629 27.619457,93.6479638 27.6640271,93.5042986 C27.7087104,93.3656109 27.7483032,93.2317873 27.7878959,93.1029412 C27.8226244,93.0038462 27.8523756,92.9097285 27.8820136,92.8156109 C27.8918552,92.7808824 27.90181,92.746267 27.9117647,92.7165158 L27.9812217,92.7363122 L28.3874434,92.8651584 C28.3330317,93.0286199 28.283371,93.1970588 28.2239819,93.3754525 C28.1942308,93.4645928 28.1644796,93.5587104 28.1347285,93.6579186 C28.085181,93.8165158 28.0306561,93.975 27.9762443,94.1434389 C27.9116516,94.3466063 27.8472851,94.554638 27.7779412,94.7726244 L27.7779412,94.7726244 Z M32.5193439,94.6636878 C32.479638,94.7330317 32.4401584,94.8073529 32.4004525,94.8816742 C32.3072146,95.0496127 32.2180111,95.2197595 32.1329186,95.3919683 C32.0635747,95.5257919 31.9892534,95.6595023 31.9149321,95.8031674 C31.885181,95.8626697 31.8505656,95.9220588 31.8208145,95.9815611 C31.7365385,96.1401584 31.6473982,96.2986425 31.5582579,96.4621041 C31.404638,96.4026018 31.2460407,96.3432127 31.0925339,96.2738688 C31.206448,96.065724 31.3204751,95.8626697 31.4245475,95.6644796 C31.4345023,95.6446833 31.4443439,95.6248869 31.4542986,95.6099548 C31.5335973,95.4563348 31.6127828,95.3028281 31.6921946,95.1591629 C31.8011312,94.9461538 31.910181,94.7479638 32.009276,94.5645928 C32.0340498,94.5150452 32.0588235,94.4704751 32.0835973,94.425905 L32.5193439,94.6636878 L32.5193439,94.6636878 Z" id="Shape" fill="#879BA0"></path>
                <path d="M32.4319005,96.0222851 L31.0626697,95.4441176 L34.371267,87.6087104 C34.6901584,86.8536199 34.3352941,85.9800905 33.5802036,85.6611991 C32.8251131,85.3424208 31.9515837,85.6971719 31.6328054,86.4522624 L28.3242081,94.2876697 L26.9549774,93.7095023 L30.2635747,85.874095 C30.9012443,84.3640271 32.6484163,83.6542986 34.1584842,84.2919683 C35.668552,84.929638 36.3782805,86.67681 35.7406109,88.1868778 L32.4319005,96.0222851 L32.4319005,96.0222851 Z" id="Shape" fill="#5A7C88"></path>
                <path d="M53.7455882,21.108371 C54.6668552,17.70181 58.0739819,15.7204751 61.4404977,15.9782805 C64.8070136,16.236086 68.0265837,18.3969457 70.4197964,21.1912896 C71.1624434,22.0584842 71.8450226,22.9970588 72.3484163,24.0357466 C74.0098416,27.4641403 73.7752262,39.2661765 72.3454751,42.52319 L53.7455882,21.108371 Z" id="Shape" fill="#332115"></path>
                <path d="M53.9225113,14.5261312 C55.8519231,16.0566742 57.6397059,18.790724 56.6824661,21.2528281 C54.4010181,24.5795249 50.0937783,24.4045249 46.5127828,25.3888009 C43.714819,26.1578054 41.1400452,27.7865385 38.3460407,28.5747738 C35.0651584,29.5004525 31.4581448,29.1834842 28.5152715,27.274095 C25.5723982,25.3647059 23.4042986,21.7668552 23.2616516,17.8813348 C24.6237557,18.6251131 26.046267,19.3848416 27.5536199,19.3640271 C29.6069005,19.3357466 31.403733,17.8857466 33.1861991,16.711991 C35.0411765,15.4904977 37.0122172,14.5226244 38.9779412,13.5576923 C40.4920814,12.8144796 42.0207014,12.0660633 43.6376697,11.7116516 C47.191629,10.9326923 50.943552,12.163009 53.9225113,14.5261312 L53.9225113,14.5261312 Z" id="Shape" fill="#332115"></path>
                <path d="M73.0311086,38.4168552 C72.9924208,37.2700226 72.8806561,36.2202489 72.8742081,35.7024887 C72.8269231,31.8859729 71.635181,28.5487557 69.3597285,25.4816742 C65.4074661,20.154638 59.4399321,16.9056561 52.7582579,16.9056561 L47.461991,16.9056561 C41.4947964,16.9056561 35.8115385,19.6523756 31.8128959,24.0291855 C29.3809955,26.6910633 27.7316742,29.9955882 26.995362,33.5207014 C26.6177602,35.3285068 26.4790724,37.1839367 26.5604072,39.0282805 C26.6245475,40.4821267 26.3319005,43.261991 28.1678733,42.2158371 C29.3065611,41.5669683 30.4401584,39.2138009 31.4109729,38.2131222 C32.6493213,36.9367647 34.0132353,35.7782805 35.5052036,34.8079186 C38.4857466,32.8692308 41.918552,31.7488688 45.4727376,31.5873303 C51.1864253,31.3277149 56.6071267,33.4261312 61.5132353,36.1765837 C64.3109729,37.7450226 66.8924208,38.6044118 68.859276,41.2227376 C69.3513575,41.8777149 69.8480769,42.6065611 70.6190045,42.8835973 C72.868552,43.6918552 73.1127828,40.8382353 73.0311086,38.4168552 L73.0311086,38.4168552 Z" id="Shape" fill="#332115"></path>
                <path d="M26.7926471,37.37319 C27.0065611,36.8033937 27.433371,36.3388009 27.8954751,35.9426471 C29.4769231,34.5871041 31.6021493,33.885181 33.6798643,34.0321267 C31.6085973,36.1813348 29.59819,38.7222851 29.4660633,41.7041855 C29.3794118,43.658371 30.1074661,45.7168552 29.339819,47.5160633 C27.9040724,45.0090498 26.989819,42.2049774 26.6718326,39.3334842 C26.5989819,38.6764706 26.5602941,37.9919683 26.7926471,37.37319 L26.7926471,37.37319 Z M72.6429864,37.37319 C72.4290724,36.8033937 72.0022624,36.3388009 71.5401584,35.9426471 C69.9587104,34.5871041 67.8334842,33.885181 65.7557692,34.0321267 C67.8270362,36.1813348 69.8374434,38.7222851 69.9695701,41.7041855 C70.0562217,43.658371 69.3282805,45.7168552 70.0958145,47.5160633 C71.5315611,45.0090498 72.4458145,42.2049774 72.7638009,39.3334842 C72.8366516,38.6764706 72.8753394,37.9919683 72.6429864,37.37319 L72.6429864,37.37319 Z" id="Shape" fill="#332115"></path>
                <path d="M56.7865385,67.7908371 L56.7865385,69.7774887 C52.8195701,71.9425339 47.8376697,71.5908371 42.8558824,69.8418552 L42.8558824,67.6816742 C43.4093891,67.6964932 43.0523756,67.7114253 43.0820136,67.721267 C45.2719457,68.6774887 47.5783937,69.2125566 50.0159502,69.2125566 C52.3941176,69.2126697 54.7569005,68.7023756 56.7865385,67.7908371 Z" id="Shape" fill="#F4C7A8"></path>
            </g>
        </g>
    </g>
</svg>