<?xml version="1.0" encoding="UTF-8"?>
<svg width="20px" height="20px" viewBox="0 0 20 20" version="1.1" xmlns="http://www.w3.org/2000/svg" xmlns:xlink="http://www.w3.org/1999/xlink">
    <!-- Generator: Sketch 42 (36781) - http://www.bohemiancoding.com/sketch -->
    <title>icon_sidetbarleft_management</title>
    <desc>Created with Sketch.</desc>
    <defs></defs>
    <g id="管理员模块" stroke="none" stroke-width="1" fill="none" fill-rule="evenodd">
        <path d="M19.7103919,9.504448 C20.0978173,9.89187347 20.0952526,10.5225789 19.7103919,10.9074397 L10.9074397,19.7103919 C10.5200142,20.0978173 9.88930878,20.0952526 9.504448,19.7103919 L0.701495853,10.9074397 C0.314070391,10.5200142 -7.10542736e-15,9.76740721 -7.99360578e-15,9.2087725 L-7.10542736e-15,0.997171356 C-7.10542736e-15,0.446448823 0.43853665,7.10542736e-14 0.997171356,7.10542736e-14 L9.2087725,7.28306304e-14 C9.75949503,7.28306304e-14 10.5225789,0.316635073 10.9074397,0.701495853 L19.7103919,9.504448 Z M3.49687726,4.99553895 C4.32456526,4.99553895 4.99553895,4.32456526 4.99553895,3.49687726 C4.99553895,2.66918927 4.32456526,1.99821558 3.49687726,1.99821558 C2.66918927,1.99821558 1.99821558,2.66918927 1.99821558,3.49687726 C1.99821558,4.32456526 2.66918927,4.99553895 3.49687726,4.99553895 Z" id="Combined-Shape" fill="#B8B8B8"></path>
    </g>
</svg>