<?xml version="1.0" encoding="UTF-8"?>
<svg width="40px" height="40px" viewBox="0 0 40 40" version="1.1" xmlns="http://www.w3.org/2000/svg" xmlns:xlink="http://www.w3.org/1999/xlink">
    <!-- Generator: Sketch 42 (36781) - http://www.bohemiancoding.com/sketch -->
    <title>icon_order_information_balance</title>
    <desc>Created with Sketch.</desc>
    <defs></defs>
    <g id="管理员模块" stroke="none" stroke-width="1" fill="none" fill-rule="evenodd">
        <path d="M21.2551009,13.2459612 C20.8563671,13.2032475 20.4739869,13.1910595 20.0804052,13.1972616 C20.0116753,13.1983981 20.0116753,13.1983981 19.9804119,13.1986535 C19.9579202,13.1986535 19.9319214,13.1981205 19.8338136,13.1958213 C19.4693974,13.1876385 19.1240824,13.194845 18.7720746,13.2267365 C17.9134174,13.2434614 17.4768149,13.085967 17.315276,12.7628794 L17.2350382,12.6295162 L16.1928858,11.1685812 C15.9461815,10.6386299 16.0343601,10.3283206 16.3098069,10.2615126 C16.3593809,10.2481304 16.3941226,10.2396254 16.4678813,10.2250449 C16.6150794,10.1959468 16.8094683,10.1656779 17.0549593,10.1366845 C17.7871905,10.0502051 18.7723222,9.99750288 20.0417243,9.99750288 C21.3114433,9.99750288 22.3019706,10.0502353 23.0431131,10.1368298 C23.4592552,10.1854516 23.687426,10.2297537 23.7574964,10.2500868 C23.9971713,10.3141549 24.0604271,10.6086199 23.7912444,11.1742507 L22.7786591,12.6424984 L22.7075275,12.7628794 C22.5490755,13.0797929 22.0069851,13.2679587 21.2551009,13.2459612 Z M24.2349014,14.0756117 C24.3167624,13.9670744 24.3914636,13.850343 24.4584241,13.7251506 L25.4778877,12.2469292 L25.5490194,12.1265483 C26.3421493,10.5402397 26.0095576,8.7829305 24.2928007,8.32577939 C24.1325112,8.27901076 23.7964311,8.21375679 23.2749089,8.1528225 C22.4532774,8.05682365 21.3858999,8 20.0417243,8 C18.6972317,8 17.6344984,8.05685378 16.820689,8.15296784 C16.3024316,8.21417605 15.9695104,8.2799877 15.7890943,8.33377125 C14.0974268,8.74269862 13.6443095,10.5400266 14.437546,12.1265483 L14.5177838,12.2599114 L15.5677092,13.731743 C15.6293566,13.8474419 15.6959467,13.9553567 15.7674718,14.0558417 C14.8654276,14.4687506 13.960162,15.0373023 13.0595108,15.7825051 C9.09872355,19.0596783 7.39827785,26.3714543 10.8997648,29.3436278 C14.2083167,32.1520318 21.6209875,32.7693334 26.3391518,31.0247714 C31.2532697,29.2077548 32.5530212,23.1650047 28.9285147,18.0899037 C28.2998079,17.2095768 27.6188408,16.4530839 26.8925121,15.8137557 C26.0422527,15.0653413 25.150673,14.4930023 24.2349014,14.0756117 Z M20.6353608,15.2016458 C20.7965461,15.2203129 20.9559518,15.2334433 21.1130293,15.2407846 C21.4364372,15.2790475 21.7747831,15.3434334 22.1542368,15.4444506 C23.329865,15.7574236 24.4828938,16.3538231 25.5727844,17.3131654 C26.1837519,17.8509506 26.762356,18.4937274 27.3030608,19.2508324 C30.2078209,23.3181311 29.2388744,27.8229167 25.6464454,29.151233 C21.5514372,30.6653802 14.8900415,30.1106422 12.1923485,27.8207547 C9.8330274,25.8180879 11.2076538,19.907308 14.3328258,17.3215265 C16.0402634,15.908785 17.4682811,15.3519903 18.8850264,15.2219972 C19.0390816,15.2177264 19.1976711,15.2094985 19.3607881,15.1976322 L19.3605087,15.1937919 C19.5030506,15.1897838 19.6457819,15.1896055 19.7889751,15.1928208 C19.8847983,15.1951475 19.934001,15.1961564 19.9804119,15.1961564 C20.0456178,15.1956539 20.0456178,15.1956539 20.1118761,15.1945165 C20.2887321,15.1917296 20.4617671,15.1935198 20.6353608,15.2016458 Z M17.5748033,19.9850173 L16.9970301,19.9850173 C16.4530363,19.9850173 16,20.4321735 16,20.9837687 C16,21.5392095 16.4463856,21.9825202 16.9970301,21.9825202 L18.9872078,21.9825202 L18.9872078,23.980023 L16.9970301,23.980023 C16.4530363,23.980023 16,24.4271793 16,24.9787745 C16,25.5342153 16.4463856,25.9775259 16.9970301,25.9775259 L18.9872078,25.9775259 L18.9872078,27.9774811 C18.9872078,28.5280261 19.4343503,28.9737802 19.9859285,28.9737802 C20.5413523,28.9737802 20.9846493,28.5277219 20.9846493,27.9774811 L20.9846493,25.9775259 L23.0029699,25.9775259 C23.5469637,25.9775259 24,25.5303697 24,24.9787745 C24,24.4233337 23.5536144,23.980023 23.0029699,23.980023 L20.9846493,23.980023 L20.9846493,21.9825202 L23.0029699,21.9825202 C23.5469637,21.9825202 24,21.5353639 24,20.9837687 C24,20.4283279 23.5536144,19.9850173 23.0029699,19.9850173 L22.3970538,19.9850173 L23.6882931,18.6937383 C24.0783178,18.3037016 24.0783178,17.6713272 23.6882931,17.2812905 C23.2982684,16.8912538 22.6659134,16.8912538 22.2758886,17.2812905 L19.9859285,19.5713209 L17.6959684,17.2812905 C17.3059437,16.8912538 16.6735887,16.8912538 16.283564,17.2812905 C15.8935393,17.6713272 15.8935393,18.3037016 16.283564,18.6937383 L17.5748033,19.9850173 Z M20,40 C8.954305,40 0,31.045695 0,20 C0,8.954305 8.954305,0 20,0 C31.045695,0 40,8.954305 40,20 C40,31.045695 31.045695,40 20,40 Z" id="Combined-Shape" fill="#20A0FF"></path>
    </g>
</svg>