<?xml version="1.0" encoding="UTF-8"?>
<svg width="20px" height="20px" viewBox="0 0 20 20" version="1.1" xmlns="http://www.w3.org/2000/svg" xmlns:xlink="http://www.w3.org/1999/xlink">
    <!-- Generator: Sketch 42 (36781) - http://www.bohemiancoding.com/sketch -->
    <title>icon_sidetbarleft_patientlist</title>
    <desc>Created with Sketch.</desc>
    <defs></defs>
    <g id="管理员模块" stroke="none" stroke-width="1" fill="none" fill-rule="evenodd">
        <path d="M1.47302515,11.15 C1.52640228,11.2317872 1.57926839,11.3120801 1.6312285,11.3909937 C3.74226467,14.5977988 9.05222383,18.5884036 9.27744767,18.756678 C9.49379914,18.9188295 9.74670365,19 10,19 C10.2532964,19 10.5062009,18.9188295 10.7225523,18.756678 C10.9477762,18.5884036 16.2577353,14.5977988 18.3687715,11.3909937 C19.095718,10.2869552 20,8.91293524 20,6.95419482 C20,3.67087912 17.4761048,1 14.3741901,1 C12.6534262,1 11.053377,1.83565555 10.0003079,3.21346852 C9.99580613,3.20757355 9.99133827,3.2020178 9.9869041,3.19679849 L9.9869041,3.19679849 C8.93369462,1.8289181 7.33962294,1 5.62580992,1 C2.52389522,1 0,3.67087912 0,6.95419482 C0,8.00483593 0.260171,8.8872471 0.61359384,9.65 L4.68533834,9.65 C4.75831563,9.46697018 4.83271846,9.22383996 4.94864506,8.80471745 C5.11905164,8.18862731 5.09219942,8.28468503 5.14443443,8.11282746 C5.22558345,7.84584039 5.29834561,7.64504516 5.38057158,7.47988915 C5.57026089,7.09888627 5.80209472,6.85 6.27218935,6.85 C6.88585529,6.85 7.07826186,7.16921168 7.28490038,7.81373359 C7.36472947,8.06272685 7.42011114,8.29196905 7.54258423,8.8441499 C7.63599489,9.26529973 7.6865786,9.47997156 7.73645853,9.65 L9.17159763,9.65 C9.56936667,9.65 9.76155152,9.8305984 9.93182438,10.1067684 C9.99412077,10.2078085 10.0495831,10.32594 10.1073054,10.4709951 C10.1459976,10.5682281 10.1852127,10.6761347 10.2277969,10.8019609 C10.2585386,10.7113418 10.2823569,10.6443109 10.3132942,10.5591295 C10.3684271,10.4073289 10.4161705,10.288503 10.4624865,10.1927346 C10.4983841,10.1185082 10.5347566,10.0544014 10.5807471,9.99195919 C10.7297901,9.78960052 10.903872,9.65 11.2426036,9.65 L11.7180116,9.65 C11.7275917,9.61657384 11.7373958,9.57959257 11.7471936,9.53933578 C11.8248915,9.2200929 11.8868443,8.77951405 11.9533697,8.12593288 C11.9710921,7.95181821 12.0295961,7.34305226 12.0282518,7.35677586 C12.0784694,6.84412169 12.1155081,6.53686759 12.1636005,6.28203138 C12.1979275,6.10013688 12.2368699,5.95329161 12.2913142,5.82509625 C12.4308287,5.49659341 12.6563031,5.25 13.1065089,5.25 C13.4837321,5.25 13.7059028,5.43717459 13.8678746,5.69666809 C13.9367644,5.80703589 13.9920646,5.9332523 14.044952,6.08590716 C14.1223736,6.30937755 14.1976973,6.6012957 14.2813287,6.98473859 C14.3432405,7.26859879 14.3982302,7.54485664 14.4977025,8.061669 C14.66491,8.93040274 14.7225347,9.21535663 14.8019301,9.53701476 C14.8118119,9.57704937 14.8214454,9.61474689 14.8307832,9.65 L16.4201183,9.65 C16.8449528,9.65 17.1893491,9.98578644 17.1893491,10.4 C17.1893491,10.8142136 16.8449528,11.15 16.4201183,11.15 L14.3491124,11.15 C13.8425763,11.15 13.6616367,10.9083301 13.4899649,10.4889447 C13.4264726,10.3338364 13.3678859,10.1380006 13.3061742,9.88798524 C13.3000847,9.86331441 13.2941333,9.83895105 13.2882731,9.81467398 C13.1008318,10.8367411 12.8157881,11.15 12.0710059,11.15 L11.7311181,11.15 C11.679978,11.2943212 11.6301915,11.4460858 11.4702913,11.9372462 C11.4570293,11.9779696 11.4570293,11.9779696 11.4437252,12.0187505 C11.3077029,12.4354594 11.2198153,12.6921434 11.1359783,12.9074021 C11.0785139,13.0549469 11.0264083,13.1730079 10.972921,13.270508 C10.930537,13.3477685 10.8860284,13.4154842 10.8289415,13.4806549 C10.680866,13.6496989 10.4952465,13.7706798 10.2020413,13.7706798 C9.89332521,13.7706798 9.70291651,13.6383366 9.55511359,13.4554798 C9.49959199,13.3867904 9.45707677,13.3158654 9.41678149,13.2346382 C9.36621698,13.1327104 9.31736139,13.0090866 9.26274258,12.852019 C9.18933298,12.6409147 9.17286804,12.5875701 8.97159125,11.9226383 C8.94379069,11.8309069 8.94379069,11.8309069 8.91614296,11.7404346 C8.83866873,11.4876679 8.77703879,11.296945 8.72434209,11.15 L7.30769231,11.15 C6.69430281,11.15 6.5020896,10.8311571 6.2956178,10.1873224 C6.26811518,10.1015618 6.24349704,10.0180611 6.21805801,9.92297735 C6.17873393,10.0402104 6.14041827,10.1432694 6.09912271,10.2430794 C5.8620627,10.8160455 5.60405988,11.15 5.0295858,11.15 L1.47302515,11.15 Z" id="Combined-Shape" fill="#B8B8B8"></path>
    </g>
</svg>