<?xml version="1.0" encoding="UTF-8"?>
<svg width="20px" height="20px" viewBox="0 0 20 20" version="1.1" xmlns="http://www.w3.org/2000/svg" xmlns:xlink="http://www.w3.org/1999/xlink">
    <!-- Generator: Sketch 42 (36781) - http://www.bohemiancoding.com/sketch -->
    <title>icon_sidetbarleft_dataanalysis</title>
    <desc>Created with Sketch.</desc>
    <defs></defs>
    <g id="管理员模块" stroke="none" stroke-width="1" fill="none" fill-rule="evenodd">
        <path d="M0,0.99180311 C0,0.444045377 0.443353176,0 1.0093689,0 L2.9906311,0 C3.54809015,0 4,0.455305576 4,0.99180311 L4,19.0081969 C4,19.5559546 3.55664682,20 2.9906311,20 L1.0093689,20 C0.451909848,20 0,19.5446944 0,19.0081969 L0,0.99180311 Z M8,9.00247329 C8,8.44882258 8.44335318,8 9.0093689,8 L10.9906311,8 C11.5480902,8 12,8.45576096 12,9.00247329 L12,18.9975267 C12,19.5511774 11.5566468,20 10.9906311,20 L9.0093689,20 C8.45190985,20 8,19.544239 8,18.9975267 L8,9.00247329 Z M16,5.00087166 C16,4.4481055 16.4433532,4 17.0093689,4 L18.9906311,4 C19.5480902,4 20,4.44463086 20,5.00087166 L20,18.9991283 C20,19.5518945 19.5566468,20 18.9906311,20 L17.0093689,20 C16.4519098,20 16,19.5553691 16,18.9991283 L16,5.00087166 Z" id="Combined-Shape" fill="#B8B8B8"></path>
    </g>
</svg>