<?xml version="1.0" encoding="UTF-8"?>
<svg width="24px" height="24px" viewBox="0 0 24 24" version="1.1" xmlns="http://www.w3.org/2000/svg" xmlns:xlink="http://www.w3.org/1999/xlink">
    <!-- Generator: Sketch 42 (36781) - http://www.bohemiancoding.com/sketch -->
    <title>icon_home_new</title>
    <desc>Created with Sketch.</desc>
    <defs></defs>
    <g id="管理员模块" stroke="none" stroke-width="1" fill="none" fill-rule="evenodd">
        <path d="M11.2,6.52543553 C9.96708347,6.92155268 9.0635078,8.2104414 9.0635078,9.73913043 L9.0635078,12.2597565 C9.0635078,13.2389565 8.6178951,14.1480348 7.8852403,14.6626783 L7.38970724,15.0504348 C7.09862745,15.277913 7.15258549,15.7833739 7.4825738,15.925287 C7.59746406,15.9745391 7.71932849,16 7.8422941,16 L12,16 L16.1577059,16 C16.2806715,16 16.4025359,15.9745391 16.5174262,15.925287 C16.8474145,15.7833739 16.9013726,15.277913 16.6102928,15.0504348 L16.1147597,14.6626783 C15.3821049,14.1480348 14.9364922,13.2389565 14.9364922,12.2597565 L14.9364922,9.73913043 C14.9364922,8.2104414 14.0329165,6.92155268 12.8,6.52543553 L12.8,5.6 L11.2,5.6 L11.2,6.52543553 Z M12,24 C5.372583,24 0,18.627417 0,12 C0,5.372583 5.372583,0 12,0 C18.627417,0 24,5.372583 24,12 C24,18.627417 18.627417,24 12,24 Z M10.4,16.8 C10.4653971,17.6938667 11.1525623,18.4 12.0002477,18.4 C12.8474377,18.4 13.5346029,17.6938667 13.6,16.8 L10.4,16.8 Z" id="Combined-Shape" fill="#FF9404"></path>
    </g>
</svg>