<?xml version="1.0" encoding="UTF-8"?>
<svg width="16px" height="14px" viewBox="0 0 16 14" version="1.1" xmlns="http://www.w3.org/2000/svg" xmlns:xlink="http://www.w3.org/1999/xlink">
    <!-- Generator: Sketch 42 (36781) - http://www.bohemiancoding.com/sketch -->
    <title>icon_message_datawarning</title>
    <desc>Created with Sketch.</desc>
    <defs></defs>
    <g id="管理员模块" stroke="none" stroke-width="1" fill="none" fill-rule="evenodd">
        <path d="M6.47781161,1.06859031 C7.31868606,-0.355513505 8.68120614,-0.356879872 9.52288738,1.06859031 L15.6358126,11.4214319 C16.476687,12.8455358 15.8115311,14 14.1543451,14 L1.84635393,14 C0.18728757,14 -0.476794803,12.8469021 0.364886436,11.4214319 L6.47781161,1.06859031 Z M8.00031761,12 C8.552323,12 8.99981178,11.5522847 8.99981178,11 C8.99981178,10.4477153 8.552323,10 8.00031761,10 C7.44831222,10 7.00082344,10.4477153 7.00082344,11 C7.00082344,11.5522847 7.44831222,12 8.00031761,12 Z M7.01499725,3.99077797 L7.42106718,8.50899482 C7.44471523,8.77211952 7.68966039,9 7.96655157,9 L8.04232716,9 C8.31496357,9 8.56344001,8.78016949 8.58781154,8.50899482 L8.99388147,3.99077797 C9.04239567,3.45097518 8.6339973,3 8.08021495,3 L7.92866377,3 C7.38339094,3 6.96581899,3.44358641 7.01499725,3.99077797 Z" id="Combined-Shape" fill="#A5A5A5"></path>
    </g>
</svg>