<?xml version="1.0" encoding="UTF-8"?>
<svg width="40px" height="41px" viewBox="0 0 40 41" version="1.1" xmlns="http://www.w3.org/2000/svg" xmlns:xlink="http://www.w3.org/1999/xlink">
    <!-- Generator: Sketch 42 (36781) - http://www.bohemiancoding.com/sketch -->
    <title>icon_order_information_cost</title>
    <desc>Created with Sketch.</desc>
    <defs></defs>
    <g id="管理员模块" stroke="none" stroke-width="1" fill="none" fill-rule="evenodd">
        <path d="M17.7429213,16.6666667 L11.9933977,16.6666667 C11.4449463,16.6666667 11,17.1143819 11,17.6666667 C11,18.2228018 11.4447593,18.6666667 11.9933977,18.6666667 L19,18.6666667 L19,22.6666667 L11.9933977,22.6666667 C11.4449463,22.6666667 11,23.1143819 11,23.6666667 C11,24.2228018 11.4447593,24.6666667 11.9933977,24.6666667 L19,24.6666667 L19,31.665795 C19,32.2220358 19.4477153,32.6666667 20,32.6666667 C20.5561352,32.6666667 21,32.2185612 21,31.665795 L21,24.6666667 L28.0066023,24.6666667 C28.5550537,24.6666667 29,24.2189514 29,23.6666667 C29,23.1105315 28.5552407,22.6666667 28.0066023,22.6666667 L21,22.6666667 L21,18.6666667 L28.0066023,18.6666667 C28.5550537,18.6666667 29,18.2189514 29,17.6666667 C29,17.1105315 28.5552407,16.6666667 28.0066023,16.6666667 L22.2570787,16.6666667 L26.7396505,12.1840949 C27.0867832,11.8369622 27.0867832,11.2741489 26.7396505,10.9270162 C26.3925178,10.5798835 25.8297045,10.5798835 25.4825718,10.9270162 L20,16.4095879 L14.5174282,10.9270162 C14.1702955,10.5798835 13.6074822,10.5798835 13.2603495,10.9270162 C12.9132168,11.2741489 12.9132168,11.8369622 13.2603495,12.1840949 L17.7429213,16.6666667 Z M20,40.6666667 C8.954305,40.6666667 0,31.7123617 0,20.6666667 C0,9.62097167 8.954305,0.666666667 20,0.666666667 C31.045695,0.666666667 40,9.62097167 40,20.6666667 C40,31.7123617 31.045695,40.6666667 20,40.6666667 Z" id="Combined-Shape" fill="#20A0FF"></path>
    </g>
</svg>