<?xml version="1.0" encoding="UTF-8"?>
<svg width="40px" height="41px" viewBox="0 0 40 41" version="1.1" xmlns="http://www.w3.org/2000/svg" xmlns:xlink="http://www.w3.org/1999/xlink">
    <!-- Generator: Sketch 42 (36781) - http://www.bohemiancoding.com/sketch -->
    <title>icon_order_information_profit</title>
    <desc>Created with Sketch.</desc>
    <defs></defs>
    <g id="管理员模块" stroke="none" stroke-width="1" fill="none" fill-rule="evenodd">
        <path d="M20,40.3333333 C8.954305,40.3333333 0,31.3790283 0,20.3333333 C0,9.28763834 8.954305,0.333333333 20,0.333333333 C31.045695,0.333333333 40,9.28763834 40,20.3333333 C40,31.3790283 31.045695,40.3333333 20,40.3333333 Z M18,18.3314347 L18,22.335232 C18,23.9979755 19.3459914,25.3333333 21.0085302,25.3333333 L28.9914698,25.3333333 C30.6498986,25.3333333 32,23.9914884 32,22.335232 L32,18.3314347 C32,16.6686911 30.6540086,15.3333333 28.9914698,15.3333333 L21.0085302,15.3333333 C19.3501014,15.3333333 18,16.6751783 18,18.3314347 Z M20,18.3314347 C20,17.7825034 20.4519338,17.3333333 21.0085302,17.3333333 L28.9914698,17.3333333 C29.5529745,17.3333333 30,17.7768272 30,18.3314347 L30,22.335232 C30,22.8841633 29.5480662,23.3333333 28.9914698,23.3333333 L21.0085302,23.3333333 C20.4470255,23.3333333 20,22.8898394 20,22.335232 L20,18.3314347 Z M25,27.3333333 L25,28.3333333 C25,28.9738913 24.6436675,29.3333333 24,29.3333333 L12,29.3333333 C11.3527286,29.3333333 11,28.978735 11,28.3333333 L11,12.3333333 C11,11.6886129 11.3531324,11.3333333 12,11.3333333 L24,11.3333333 C24.645028,11.3333333 25,11.6908442 25,12.3333333 L25,13.3333333 C25,13.8856181 25.4477153,14.3333333 26,14.3333333 C26.5522847,14.3333333 27,13.8856181 27,13.3333333 L27,12.3333333 C27,10.589453 25.7528009,9.33333333 24,9.33333333 L12,9.33333333 C10.2458398,9.33333333 9,10.5867483 9,12.3333333 L9,28.3333333 C9,30.0809444 10.2457851,31.3333333 12,31.3333333 L24,31.3333333 C25.7521456,31.3333333 27,30.0745896 27,28.3333333 L27,27.3333333 C27,26.7810486 26.5522847,26.3333333 26,26.3333333 C25.4477153,26.3333333 25,26.7810486 25,27.3333333 Z M27,21.3333333 C27.5522847,21.3333333 28,20.8856181 28,20.3333333 C28,19.7810486 27.5522847,19.3333333 27,19.3333333 C26.4477153,19.3333333 26,19.7810486 26,20.3333333 C26,20.8856181 26.4477153,21.3333333 27,21.3333333 Z" id="Combined-Shape" fill="#20A0FF"></path>
    </g>
</svg>