<?xml version="1.0" encoding="UTF-8"?>
<svg width="16px" height="16px" viewBox="0 0 16 16" version="1.1" xmlns="http://www.w3.org/2000/svg" xmlns:xlink="http://www.w3.org/1999/xlink">
    <!-- Generator: Sketch 42 (36781) - http://www.bohemiancoding.com/sketch -->
    <title>icon_head_password</title>
    <desc>Created with Sketch.</desc>
    <defs></defs>
    <g id="管理员模块" stroke="none" stroke-width="1" fill="none" fill-rule="evenodd">
        <path d="M3.10001812,4 C3.56328845,1.71775968 5.58104209,0 8,0 C10.4189579,0 12.4367116,1.71775968 12.8999819,4 L14.0059397,4 C15.1072288,4 16,4.90195036 16,6.0085302 L16,12.0041738 C16,14.2110077 14.2111696,16 12.0037973,16 L3.99620271,16 C1.78916089,16 0,14.2034788 0,12.0041738 L0,6.0085302 C0,4.8992496 0.894513756,4 1.99406028,4 L3.10001812,4 Z M7,10.7324356 L7,12.009222 C7,12.5490248 7.44771525,13 8,13 C8.55613518,13 9,12.5564136 9,12.009222 L9,10.7324356 C9.59780137,10.3866262 10,9.74028236 10,9 C10,7.8954305 9.1045695,7 8,7 C6.8954305,7 6,7.8954305 6,9 C6,9.74028236 6.40219863,10.3866262 7,10.7324356 Z M8,2 C6.69378117,2 5.58254212,2.83480763 5.17070571,4 C5.67078565,4 6.41857568,4 8,4 L10.8292943,4 C10.4174579,2.83480763 9.30621883,2 8,2 Z" id="Combined-Shape" fill="#A5A5A5"></path>
    </g>
</svg>