<?xml version="1.0" encoding="UTF-8"?>
<svg width="16px" height="16px" viewBox="0 0 16 16" version="1.1" xmlns="http://www.w3.org/2000/svg" xmlns:xlink="http://www.w3.org/1999/xlink">
    <!-- Generator: Sketch 42 (36781) - http://www.bohemiancoding.com/sketch -->
    <title>icon_head_signout</title>
    <desc>Created with Sketch.</desc>
    <defs></defs>
    <g id="管理员模块" stroke="none" stroke-width="1" fill="none" fill-rule="evenodd">
        <path d="M12,6 L12,4.99703014 C12,4.4463856 12.3138733,4.31387329 12.7059121,4.70591205 L15.2940879,7.29408795 C15.6839524,7.68395241 15.6861267,8.31387329 15.2940879,8.70591205 L12.7059121,11.2940879 C12.3160476,11.6839524 12,11.5469637 12,11.0029699 L12,10 L8.00292933,10 C7.44902676,10 7,9.55664682 7,8.9906311 L7,7.0093689 C7,6.45190985 7.43788135,6 8.00292933,6 L12,6 Z M10,4 L5.99077797,4 C5.45097518,4 5,4.4463856 5,4.99703014 L5,11.0029699 C5,11.5469637 5.44358641,12 5.99077797,12 L10,12 L10,14.9991283 C10,15.5518945 9.5443356,16 9.00460243,16 L0.995397568,16 C0.445654671,16 0,15.5553691 0,14.9991283 L0,1.00087166 C0,0.448105505 0.455664396,0 0.995397568,0 L9.00460243,0 C9.55434533,0 10,0.444630861 10,1.00087166 L10,4 Z" id="Combined-Shape" fill="#A5A5A5"></path>
    </g>
</svg>