<?xml version="1.0" encoding="UTF-8"?>
<svg width="16px" height="16px" viewBox="0 0 16 16" version="1.1" xmlns="http://www.w3.org/2000/svg" xmlns:xlink="http://www.w3.org/1999/xlink">
    <!-- Generator: Sketch 42 (36781) - http://www.bohemiancoding.com/sketch -->
    <title>icon_message_dialogue</title>
    <desc>Created with Sketch.</desc>
    <defs></defs>
    <g id="管理员模块" stroke="none" stroke-width="1" fill="none" fill-rule="evenodd">
        <path d="M9.50436646,14 L8.60425095,15.200154 C8.27059644,15.6450267 7.73578902,15.6418968 7.40448196,15.200154 L6.50436646,14 L1.99842673,14 C0.897137652,14 0.00436645531,13.1029399 0.00436645531,11.9941413 L0.00436645531,2.00585866 C0.00436645531,0.898053512 0.898880211,0 1.99842673,0 L14.0103062,0 C15.1115953,0 16.0043665,0.897060126 16.0043665,2.00585866 L16.0043665,11.9941413 C16.0043665,13.1019465 15.1098527,14 14.0103062,14 L9.50436646,14 Z M4.00436646,8 C4.55665121,8 5.00436646,7.55228475 5.00436646,7 C5.00436646,6.44771525 4.55665121,6 4.00436646,6 C3.45208171,6 3.00436646,6.44771525 3.00436646,7 C3.00436646,7.55228475 3.45208171,8 4.00436646,8 Z M8.00436646,8 C8.55665121,8 9.00436646,7.55228475 9.00436646,7 C9.00436646,6.44771525 8.55665121,6 8.00436646,6 C7.45208171,6 7.00436646,6.44771525 7.00436646,7 C7.00436646,7.55228475 7.45208171,8 8.00436646,8 Z M12.0043665,8 C12.5566512,8 13.0043665,7.55228475 13.0043665,7 C13.0043665,6.44771525 12.5566512,6 12.0043665,6 C11.4520817,6 11.0043665,6.44771525 11.0043665,7 C11.0043665,7.55228475 11.4520817,8 12.0043665,8 Z" id="Combined-Shape" fill="#A5A5A5"></path>
    </g>
</svg>