<?xml version="1.0" encoding="UTF-8"?>
<svg width="20px" height="20px" viewBox="0 0 20 20" version="1.1" xmlns="http://www.w3.org/2000/svg" xmlns:xlink="http://www.w3.org/1999/xlink">
    <!-- Generator: Sketch 42 (36781) - http://www.bohemiancoding.com/sketch -->
    <title>icon_sidetbarleft_doctorlist</title>
    <desc>Created with Sketch.</desc>
    <defs></defs>
    <g id="管理员模块" stroke="none" stroke-width="1" fill="none" fill-rule="evenodd">
        <path d="M9,9 L5.99539757,9 C5.4556644,9 5,9.44771525 5,10 C5,10.5561352 5.44565467,11 5.99539757,11 L9,11 L9,14.0046024 C9,14.5443356 9.44771525,15 10,15 C10.5561352,15 11,14.5543453 11,14.0046024 L11,11 L14.0046024,11 C14.5443356,11 15,10.5522847 15,10 C15,9.44386482 14.5543453,9 14.0046024,9 L11,9 L11,5.99539757 C11,5.4556644 10.5522847,5 10,5 C9.44386482,5 9,5.44565467 9,5.99539757 L9,9 Z M17.4945482,14.2099019 C16.5231226,15.2192021 14.1012844,17.5185137 14.1012844,17.5185137 L12.7668502,18.8539541 C11.238718,20.3820153 8.7611701,20.3820153 7.23303798,18.8539541 C7.23303798,18.8539541 5.51034106,17.5391732 3.99009557,16.018921 C2.4668856,14.4956547 1.14601519,12.7668076 1.14601519,12.7668076 C-0.382005063,11.238719 -0.382005063,8.76128102 1.14601519,7.23311023 C1.14601519,7.23311023 2.30160201,5.66948405 3.73554206,4.23548648 C5.33599624,2.63517193 7.23314985,1.1460459 7.23314985,1.1460459 C8.761254,-0.382015299 11.2388299,-0.382015299 12.7668502,1.1460459 C12.7668502,1.1460459 14.4925954,2.46370379 16.0142672,3.98535342 C17.5361628,5.50722225 18.8539848,7.23311023 18.8539848,7.23311023 C20.3820051,8.76117142 20.3820051,11.238719 18.8539848,12.7668076 C18.8539848,12.7668076 18.7824458,12.8719133 17.4945482,14.2099019 Z" id="Combined-Shape" fill="#B8B8B8"></path>
    </g>
</svg>