<?xml version="1.0" encoding="UTF-8"?>
<svg width="40px" height="40px" viewBox="0 0 40 40" version="1.1" xmlns="http://www.w3.org/2000/svg" xmlns:xlink="http://www.w3.org/1999/xlink">
    <!-- Generator: Sketch 42 (36781) - http://www.bohemiancoding.com/sketch -->
    <title>icon_home doctor</title>
    <desc>Created with Sketch.</desc>
    <defs></defs>
    <g id="管理员模块" stroke="none" stroke-width="1" fill="none" fill-rule="evenodd">
        <path d="M20,40 C8.954305,40 0,31.045695 0,20 C0,8.954305 8.954305,0 20,0 C31.045695,0 40,8.954305 40,20 C40,31.045695 31.045695,40 20,40 Z M12.3748901,16.5679674 L12.4883923,16.5679674 C12.9627979,16.5419035 13.299087,16.1951518 13.299087,15.7239603 L13.299087,12.0995319 C13.299087,11.7387163 13.5589434,11.045069 15.3061669,10.4437016 C16.5851013,9.998694 18.313753,9.74407826 20.0547365,9.74407826 C21.7400048,9.74407826 23.4191319,9.99257401 24.6589004,10.4216936 C25.3994763,10.6782773 26.6474085,11.2375728 26.6474085,12.0995559 L26.6474085,15.7239843 C26.6474085,16.1951758 26.9816258,16.5419275 27.454009,16.5679914 L27.5756995,16.5679914 C28.0501051,16.5419275 28.3863942,16.1951758 28.3863942,15.7239843 L28.3863942,12.0995319 C28.3863942,11.1292609 27.8830335,9.78211822 25.492261,8.87801512 C23.9843738,8.31065569 22.0535787,8 20.0547365,8 C17.8599168,8 15.8259536,8.33071967 14.3221606,8.93014307 C12.5131053,9.65179835 11.5560071,10.7303573 11.5560071,12.045436 L11.5560071,15.6718323 C11.5560071,16.1329919 11.9355563,16.5399355 12.3748901,16.5679674 L12.3748901,16.5679674 Z M30.9421666,30.7910972 C30.26764,29.0731069 29.1681831,27.6738363 27.6747241,26.6334374 C26.467931,25.7914942 25.0178554,25.2021268 23.3552283,24.8633191 C24.41547,24.3441757 25.3540705,23.5843364 26.067763,22.6541933 C27.0435069,21.3771546 27.5633184,19.8597081 27.5633184,18.2679817 C27.5633184,17.7788142 27.196175,17.4259186 26.6928143,17.4259186 C26.1895275,17.4259186 25.8202384,17.7787902 25.8202384,18.2679817 C25.8202384,19.7854282 25.2179024,21.2068508 24.1184701,22.2752577 C23.0210356,23.3418407 21.5585296,23.9291441 20.0011177,23.9291441 C18.4416094,23.9291441 16.9749598,23.3418407 15.8775993,22.2752577 C14.7801649,21.2068508 14.1778288,19.7854522 14.1778288,18.2679817 C14.1778288,17.7788142 13.8085644,17.4259186 13.305253,17.4259186 C12.7998698,17.4259186 12.4347489,17.7787902 12.4347489,18.2679817 C12.4347489,19.8597081 12.9545356,21.3771546 13.932302,22.6541933 C14.6439721,23.5843364 15.5825726,24.3441757 16.6428142,24.8633191 C14.9802118,25.2021268 13.5301116,25.7915182 12.3233184,26.6334374 C10.8298594,27.6738363 9.73040252,29.0730829 9.05587592,30.7910972 C8.97127954,30.997641 8.9836607,31.2341608 9.08677949,31.4466806 C9.18373236,31.6491924 9.35911569,31.8075202 9.56535327,31.8877761 L9.62106849,31.9137201 L9.64380839,31.9137201 C9.69328371,31.9318401 9.78197425,31.96388 9.90366478,31.96388 C10.2915009,31.96388 10.6091689,31.7513362 10.7020277,31.4287046 C12.4079641,27.1546928 16.7295317,26.2585577 20.0567589,26.2585577 C22.0989845,26.2585577 23.8832774,26.5913654 25.3458328,27.2429168 C27.2621503,28.0989239 28.6297753,29.5142025 29.4115642,31.4507365 C29.5456605,31.7735122 29.8881155,32 30.2429024,32 C30.3480929,32 30.4471175,31.979936 30.541974,31.9418721 L30.6038551,31.9198401 L30.651308,31.8756801 C30.9030254,31.6271604 31.1030724,31.1840968 30.9421666,30.7910972 Z M20.0011177,11.011853 C19.4977569,11.011853 19.1285418,11.3666926 19.1285418,11.8558601 L19.1284185,11.8558601 L19.1284185,13.4988745 C19.1284185,13.4988745 18.2406745,13.4880265 17.3363319,13.7120183 C16.4319892,13.9360101 15.9368908,14.3071457 15.8565119,14.7920172 C15.7331936,15.5360165 16.3905049,15.9122161 16.8677222,15.6800163 C18.1995602,15.032017 19.1284185,15.1768568 19.1284185,15.1768568 L19.1285418,16.9499271 C19.1285418,17.4190306 19.5184004,17.7959022 20.0011177,17.7959022 C20.5023327,17.7959022 20.8716218,17.4391186 20.8716218,16.9499271 L20.8716218,15.1768568 C20.8716218,15.1768568 21.8004801,15.032017 23.1323181,15.6800163 C23.6095354,15.9122161 24.2668467,15.5360165 24.1435284,14.7920172 C24.0631495,14.3071457 23.6995824,13.9360101 22.6637084,13.7120183 C21.6278345,13.4880265 20.8716218,13.4988745 20.8716218,13.4988745 L20.8716218,11.8558601 C20.8715971,11.3666926 20.5023327,11.011853 20.0011177,11.011853 Z" id="Combined-Shape" fill="#79C6FF"></path>
    </g>
</svg>