<?xml version="1.0" encoding="UTF-8"?>
<svg width="16px" height="16px" viewBox="0 0 16 16" version="1.1" xmlns="http://www.w3.org/2000/svg" xmlns:xlink="http://www.w3.org/1999/xlink">
    <!-- Generator: Sketch 42 (36781) - http://www.bohemiancoding.com/sketch -->
    <title>icon_message_link</title>
    <desc>Created with Sketch.</desc>
    <defs></defs>
    <g id="管理员模块" stroke="none" stroke-width="1" fill="none" fill-rule="evenodd">
        <path d="M0.00436645531,8 C0.00436645531,3.581722 3.59507876,0 8.00436646,0 C12.4226445,0 16.0043665,3.59071231 16.0043665,8 C16.0043665,12.418278 12.4136541,16 8.00436646,16 C3.58608846,16 0.00436645531,12.4092877 0.00436645531,8 Z M8.90731116,7.65426694 C9.77982597,8.4398828 9.98390357,9.57106679 9.45040036,10.1635821 L7.4880077,12.34304 C6.95509833,12.9348958 5.8068118,12.8495999 4.93567053,12.0652207 C4.06363626,11.2800376 3.8600595,10.147331 4.39384869,9.55449801 C4.578624,9.34928423 4.56205535,9.03313561 4.35684158,8.84836029 C4.1516278,8.66358498 3.83547917,8.68015363 3.65070386,8.8853674 C2.70493314,9.93575221 3.019396,11.6854321 4.26653992,12.8083656 C5.51255908,13.9302863 7.28587299,14.0620099 8.23115253,13.0121706 L10.1935452,10.8327127 C11.1392784,9.78236964 10.8239179,8.03435468 9.57644177,6.91112212 C9.37122799,6.7263468 9.05507937,6.74291545 8.87030405,6.94812923 C8.68552874,7.153343 8.70209739,7.46949163 8.90731116,7.65426694 Z M7.33642876,8.96603652 C6.46391396,8.18042066 6.25983636,7.04923667 6.79333957,6.45672133 L8.75573222,4.27726349 C9.28864159,3.68540767 10.4369281,3.7707036 11.3080694,4.55508272 C12.1801037,5.3402659 12.3836804,6.47297251 11.8498912,7.06580545 C11.6651159,7.27101923 11.6816846,7.58716785 11.8868983,7.77194317 C12.0921121,7.95671848 12.4082607,7.94014983 12.5930361,7.73493606 C13.5388068,6.68455125 13.2243439,4.93487132 11.9772,3.8119379 C10.7311808,2.6900172 8.95786694,2.55829359 8.0125874,3.60813288 L6.05019474,5.78759072 C5.10446157,6.83793382 5.41982202,8.58594879 6.66729816,9.70918134 C6.87251193,9.89395666 7.18866056,9.87738801 7.37343587,9.67217423 C7.55821119,9.46696046 7.54164254,9.15081183 7.33642876,8.96603652 Z" id="Combined-Shape" fill="#A5A5A5"></path>
    </g>
</svg>