<?xml version="1.0" encoding="UTF-8"?>
<svg width="20px" height="20px" viewBox="0 0 20 20" version="1.1" xmlns="http://www.w3.org/2000/svg" xmlns:xlink="http://www.w3.org/1999/xlink">
    <!-- Generator: Sketch 42 (36781) - http://www.bohemiancoding.com/sketch -->
    <title>icon_sidetbarleft_home</title>
    <desc>Created with Sketch.</desc>
    <defs></defs>
    <g id="管理员模块" stroke="none" stroke-width="1" fill="none" fill-rule="evenodd">
        <path d="M0,1.9973917 C0,0.894262725 0.895857811,0 1.9973917,0 L7.0026083,0 C8.10573727,0 9,0.895857811 9,1.9973917 L9,7.0026083 C9,8.10573727 8.10414219,9 7.0026083,9 L1.9973917,9 C0.894262725,9 0,8.10414219 0,7.0026083 L0,1.9973917 Z M0,12.9973917 C0,11.8942627 0.895857811,11 1.9973917,11 L7.0026083,11 C8.10573727,11 9,11.8958578 9,12.9973917 L9,18.0026083 C9,19.1057373 8.10414219,20 7.0026083,20 L1.9973917,20 C0.894262725,20 0,19.1041422 0,18.0026083 L0,12.9973917 Z M11,1.9973917 C11,0.894262725 11.8958578,0 12.9973917,0 L18.0026083,0 C19.1057373,0 20,0.895857811 20,1.9973917 L20,7.0026083 C20,8.10573727 19.1041422,9 18.0026083,9 L12.9973917,9 C11.8942627,9 11,8.10414219 11,7.0026083 L11,1.9973917 Z M11,12.9973917 C11,11.8942627 11.8958578,11 12.9973917,11 L18.0026083,11 C19.1057373,11 20,11.8958578 20,12.9973917 L20,18.0026083 C20,19.1057373 19.1041422,20 18.0026083,20 L12.9973917,20 C11.8942627,20 11,19.1041422 11,18.0026083 L11,12.9973917 Z" id="Combined-Shape" fill="#B8B8B8"></path>
    </g>
</svg>