<?xml version="1.0" encoding="UTF-8"?>
<svg width="40px" height="40px" viewBox="0 0 40 40" version="1.1" xmlns="http://www.w3.org/2000/svg" xmlns:xlink="http://www.w3.org/1999/xlink">
    <!-- Generator: Sketch 42 (36781) - http://www.bohemiancoding.com/sketch -->
    <title>icon_order_information_order</title>
    <desc>Created with Sketch.</desc>
    <defs></defs>
    <g id="管理员模块" stroke="none" stroke-width="1" fill="none" fill-rule="evenodd">
        <path d="M20,40 C8.954305,40 0,31.045695 0,20 C0,8.954305 8.954305,1.8189894e-12 20,1.8189894e-12 C31.045695,1.8189894e-12 40,8.954305 40,20 C40,31.045695 31.045695,40 20,40 Z M25.0095505,11 L26.0053269,11 C26.5521867,11 27,11.4480132 27,11.9907951 L27,28.0092049 C27,28.5553029 26.5543046,29 26.0059397,29 L13.9940603,29 C13.447607,29 13,28.5520556 13,28.0092049 L13,11.9907951 C13,11.4465626 13.4496077,11 14.0014678,11 L15.0006362,11 C15.5529209,11 16.0006362,10.5522847 16.0006362,10 C16.0006362,9.44771525 15.5529209,9 15.0006362,9 L14.0014678,9 C12.3480693,9 11,10.3389391 11,11.9907951 L11,28.0092049 C11,29.6562879 12.3427,31 13.9940603,31 L26.0059397,31 C27.6578715,31 29,29.6608775 29,28.0092049 L29,11.9907951 C29,10.3436434 27.656956,9 26.0053269,9 L25.0095505,9 C24.4572658,9 24.0095505,9.44771525 24.0095505,10 C24.0095505,10.5522847 24.4572658,11 25.0095505,11 Z M15,15 C15,15.5561352 15.4456547,16 15.9953976,16 L24.0046024,16 C24.5443356,16 25,15.5522847 25,15 C25,14.4438648 24.5543453,14 24.0046024,14 L15.9953976,14 C15.4556644,14 15,14.4477153 15,15 Z M15,20 C15,20.5561352 15.4456547,21 15.9953976,21 L24.0046024,21 C24.5443356,21 25,20.5522847 25,20 C25,19.4438648 24.5543453,19 24.0046024,19 L15.9953976,19 C15.4556644,19 15,19.4477153 15,20 Z M15,25 C15,25.5561352 15.4456547,26 15.9953976,26 L24.0046024,26 C24.5443356,26 25,25.5522847 25,25 C25,24.4438648 24.5543453,24 24.0046024,24 L15.9953976,24 C15.4556644,24 15,24.4477153 15,25 Z M17,8.99895656 L17,10.0010434 C17,10.5573397 17.4435864,11 17.990778,11 L22.009222,11 C22.5490248,11 23,10.5527519 23,10.0010434 L23,8.99895656 C23,8.44266033 22.5564136,8 22.009222,8 L17.990778,8 C17.4509752,8 17,8.44724809 17,8.99895656 Z" id="Combined-Shape" fill="#20A0FF"></path>
    </g>
</svg>