<?xml version="1.0" encoding="UTF-8"?>
<svg width="80px" height="80px" viewBox="0 0 80 80" version="1.1" xmlns="http://www.w3.org/2000/svg" xmlns:xlink="http://www.w3.org/1999/xlink">
    <!-- Generator: Sketch 42 (36781) - http://www.bohemiancoding.com/sketch -->
    <title>icon_home_defaultavatar</title>
    <desc>Created with Sketch.</desc>
    <defs></defs>
    <g id="管理员模块" stroke="none" stroke-width="1" fill="none" fill-rule="evenodd">
        <g id="头像-copy" fill-rule="nonzero">
            <g id="Group">
                <path d="M0.0567136719,40 C0.0560823815,54.2778985 7.67288799,67.4714909 20.0378056,74.6106225 C32.4027233,81.749754 47.6371123,81.749754 60.0020299,74.6106225 C72.3669476,67.4714909 79.9837532,54.2778985 79.9831219,40 C79.9837532,25.7221015 72.3669476,12.5285091 60.0020299,5.38937754 C47.6371123,-1.74975397 32.4027233,-1.74975397 20.0378056,5.38937754 C7.67288799,12.5285091 0.0560823815,25.7221015 0.0567136719,40 L0.0567136719,40 Z" id="Shape" fill="#C0CCDA"></path>
                <path d="M58.5667205,66.1908266 C56.6975699,65.4622682 54.500136,64.8456173 52.0622491,64.3678308 L52.0621691,64.3678308 C50.6974419,64.1003407 49.258563,63.8756459 47.7562513,63.7014255 C45.5571377,64.2925593 42.8923961,64.6390005 40.0199977,64.6390005 C37.1443198,64.6390005 34.4768586,64.2917594 32.2763051,63.6994257 C30.6576064,63.8866848 29.1129794,64.1325772 27.6552226,64.4275841 C27.784648,64.4719791 27.9171133,64.509015 28.0485386,64.5487705 C28.0923737,64.5619691 28.1360488,64.5754876 28.1794039,64.5897259 C28.1360487,64.5755675 28.0922937,64.5620491 28.0485386,64.5487705 C27.9171133,64.509015 27.7846481,64.4720591 27.6552226,64.4275841 C25.3550002,64.893132 23.2747532,65.4829859 21.4917529,66.1745084 C21.4571168,66.0737997 17.1651975,68.4653719 14.6986737,70.9248564 C21.5907019,76.5719839 30.4025149,79.9631241 40.0077591,79.9631241 C49.6242021,79.9631241 58.4457741,76.5646248 65.3414018,70.9056586 C62.8763179,68.4607324 58.6029565,66.0859584 58.5667205,66.1908266 Z" id="Shape" fill="#20A0FF"></path>
                <path d="M57.5543539,34.6973939 C57.0467308,34.5056554 56.4835138,34.5976451 55.9274161,34.9064905 C55.9766105,31.6150191 55.4893852,28.6363127 54.518134,26.2725775 L25.4970643,26.2725775 C24.4874173,28.7299823 23.9973923,31.8499528 24.0932216,35.2974067 C23.5354441,34.9861616 22.9702273,34.893052 22.4608444,35.0854305 C21.0170061,35.6308894 20.570896,38.2249988 21.464476,40.8796615 C22.3578959,43.5336842 24.2520838,45.2432527 25.6957621,44.6990737 C26.9951366,48.9146016 28.9238005,52.5477146 31.1386725,55.2650103 C31.5276689,55.7422369 31.9253044,56.1918665 32.3301391,56.6106996 L32.3301391,63.6930264 C32.3120611,63.6951062 32.294223,63.6974259 32.2761451,63.6995056 C34.4766986,64.2918393 37.1441598,64.6390804 40.0198378,64.6390804 C42.8922361,64.6390804 45.5569777,64.2926392 47.7560913,63.7015055 C47.732334,63.6987858 47.7088966,63.6957461 47.6850593,63.6930264 L47.6850593,56.6138992 C48.0926137,56.1925064 48.4929688,55.7400771 48.8845249,55.2595709 C51.0947573,52.5472347 53.0195818,48.9227606 54.3175964,44.7180316 C54.3561521,44.5932455 57.7538516,44.7180316 58.5506423,40.4915449 C59.4443823,37.8368823 58.9982722,35.2426928 57.5543539,34.6973939 Z" id="Shape" fill="#FFE1CC"></path>
                <path d="M54.518214,26.4094421 C54.518214,26.4094421 54.3429536,30.1023885 55.9274961,35.4153135 C55.9274961,35.4153135 62.8491209,15.3013262 49.8399379,15.3013262 C49.8399379,15.3013262 16.1495513,3.5873582 24.0933016,35.8230278 C24.0933016,35.8230278 24.3162366,36.7209273 24.7111523,37.4534852 C30.0481546,29.5590894 47.7272945,32.116483 54.518214,26.4094421 Z" id="Shape" fill="#5C4948"></path>
                <path d="M39.982162,64.6381205 C39.982162,64.6381205 41.6370167,67.4247684 45.7512759,68.2401971 C45.7512759,68.2401971 47.8694386,65.4249124 47.7184155,63.7005455 L39.982162,64.6381205 Z" id="Shape" fill="#64C4F4"></path>
                <path d="M39.9784024,64.6393204 C39.9784024,64.6393204 38.3235477,67.4259683 34.2092886,68.241397 C34.2092886,68.241397 32.0911259,65.4261123 32.2420689,63.7017454 L39.9784024,64.6393204 Z" id="Shape" fill="#64C4F4"></path>
                <path d="M39.2545635,66.6992497 C39.2544783,66.959281 39.3931544,67.1995962 39.6183339,67.3296365 C39.8435134,67.4596767 40.1209706,67.4596767 40.3461501,67.3296365 C40.5713296,67.1995962 40.7100057,66.959281 40.7099205,66.6992497 C40.7100057,66.4392184 40.5713296,66.1989032 40.3461501,66.0688629 C40.1209706,65.9388227 39.8435134,65.9388227 39.6183339,66.0688629 C39.3931544,66.1989032 39.2544783,66.4392184 39.2545635,66.6992497 L39.2545635,66.6992497 Z" id="Shape" fill="#FFFFFF"></path>
                <path d="M39.2507239,69.491497 C39.2507239,69.7514715 39.3894186,69.9916978 39.6145631,70.1216851 C39.8397077,70.2516723 40.1170972,70.2516723 40.3422417,70.1216851 C40.5673862,69.9916978 40.706081,69.7514715 40.7060809,69.491497 C40.7060809,69.0896112 40.3802882,68.7638184 39.9784024,68.7638184 C39.5765167,68.7638184 39.2507239,69.0896112 39.2507239,69.491497 L39.2507239,69.491497 Z" id="Shape" fill="#FFFFFF"></path>
                <path d="M39.2507239,72.3330987 C39.2507239,72.5930732 39.3894186,72.8332995 39.6145631,72.9632868 C39.8397077,73.0932741 40.1170972,73.0932741 40.3422417,72.9632868 C40.5673862,72.8332995 40.706081,72.5930732 40.7060809,72.3330987 C40.7060809,71.9312129 40.3802882,71.6054202 39.9784024,71.6054202 C39.5765167,71.6054202 39.2507239,71.9312129 39.2507239,72.3330987 L39.2507239,72.3330987 Z" id="Shape" fill="#FFFFFF"></path>
            </g>
        </g>
    </g>
</svg>