<?xml version="1.0" encoding="UTF-8"?>
<svg width="26px" height="26px" viewBox="0 0 26 26" version="1.1" xmlns="http://www.w3.org/2000/svg" xmlns:xlink="http://www.w3.org/1999/xlink">
    <!-- Generator: Sketch 43.2 (39069) - http://www.bohemiancoding.com/sketch -->
    <title>icon-login-tick-blue</title>
    <desc>Created with Sketch.</desc>
    <defs></defs>
    <g id="医生模块" stroke="none" stroke-width="1" fill="none" fill-rule="evenodd">
        <g id="icon-login-tick-blue" fill-rule="nonzero">
            <g id="Group">
                <path d="M13,26 C5.9090909,26 0,20.2386364 0,13 C5.53534491e-16,5.9090909 5.76136362,0 13,0 C20.0909091,0 26,5.76136365 26,13 C26,20.0909091 20.0909091,26 13,26 L13,26 Z M13,3 C7.44444443,3 3,7.44444443 3,13 C3,18.5555556 7.58333333,23 13,23 C18.5555556,23 23,18.4166667 23,13 C23,7.44444443 18.5555556,3 13,3 L13,3 Z" id="Shape" fill="#8ECFFF"></path>
                <path d="M7.94586596,10.2369597 L12.6972208,13.8882265 L24.3596371,3.37257824 C24.3596371,3.37257824 25.0795393,2.6423249 25.7994416,3.22652756 C25.943422,3.37257824 26.231383,3.81073026 25.6554611,4.5409836 L13.417123,18.4157973 C13.417123,18.4157973 12.4092599,19.7302534 11.4013967,18.4157973 L6.21810057,11.6974665 C6.21810057,11.6974665 5.64217876,10.8211624 6.36208102,10.2369597 C6.65004192,9.9448584 7.2259637,9.65275705 7.94586596,10.2369597 L7.94586596,10.2369597 Z" id="Shape" fill="#20A0FF"></path>
            </g>
        </g>
    </g>
</svg>