<?xml version="1.0" encoding="UTF-8"?>
<svg width="300px" height="310px" viewBox="0 0 300 310" version="1.1" xmlns="http://www.w3.org/2000/svg" xmlns:xlink="http://www.w3.org/1999/xlink">
    <!-- Generator: Sketch 43.1 (39012) - http://www.bohemiancoding.com/sketch -->
    <title>img-login-health-facility</title>
    <desc>Created with Sketch.</desc>
    <defs>
        <linearGradient x1="50%" y1="0%" x2="50%" y2="97.652264%" id="linearGradient-1">
            <stop stop-color="#FEBAAB" offset="0%"></stop>
            <stop stop-color="#FCAD94" offset="100%"></stop>
        </linearGradient>
        <rect id="path-2" x="0" y="0" width="23.9800303" height="35.2902632" rx="0.325301205"></rect>
    </defs>
    <g id="医生模块" stroke="none" stroke-width="1" fill="none" fill-rule="evenodd">
        <g id="img-login-health-facility" transform="translate(-10.000000, -5.000000)">
            <rect id="Rectangle-69" x="0" y="0" width="320" height="320"></rect>
            <g id="Group-72" transform="translate(10.000000, 5.000000)">
                <g id="Group-36" transform="translate(109.000000, 0.000000)">
                    <path d="M48.9701667,76 L70.0926706,76 C70.0926706,76 85.3155512,78.1055202 93.6951177,79.1561546 C102.074684,80.206789 103.812987,85.999361 103.812987,85.999361 L120.962189,166.689889 L0,167.92174 C0,167.92174 11.1334297,104.178471 13.6290185,93.4303274 C16.1246073,82.6821835 20.352122,80.9167776 24.2825681,79.9665832 C28.2130142,79.0163889 48.9701667,76 48.9701667,76 Z M25.7603949,122.901039 C25.7603949,123.662007 19.1586425,150.819942 19.1586425,150.819942 L26.2383395,151.50559 C26.2383395,151.50559 25.7603949,122.140071 25.7603949,122.901039 Z M93.2715529,125.965454 L92.938772,152.267471 L100.172306,151.810981 L93.2715529,125.965454 Z" id="Combined-Shape" fill="#E3F7FE"></path>
                    <g id="Group-37" transform="translate(30.000000, 74.000000)">
                        <path d="M53.9689685,14.0153086 C53.6316428,10.8037099 52.2837018,8.04251209 50.237117,5.73342747 C49.4086291,4.79867586 48.5218973,4.00540562 47.6332431,3.3488456 C47.0931322,2.94979814 46.6647634,2.68097219 46.4034308,2.53877944 C45.8432103,2.201314 44.5794089,1.71007368 42.4928152,1.23449365 C38.135442,0.241353688 31.9973122,-0.22702073 23.7796973,0.106862461 C15.8699878,0.428235403 10.4870927,6.335817 7.14654424,15.8326011 C5.96452383,19.1929453 5.12282629,22.7828773 4.56209051,26.3712692 C4.36596579,27.6263565 4.21882391,28.7924082 4.11361122,29.8402499 C4.07665458,30.208311 4.04755882,30.5357713 4.02545001,30.8189742 C4.01201114,30.9911195 4.00381809,31.1116461 4,31.1768927 L5.99658443,31.2937285 C5.99965631,31.2412338 6.00697045,31.1336367 6.01938327,30.9746346 C6.04036061,30.7059253 6.06815002,30.3931674 6.10360485,30.0400631 C6.20528206,29.0274324 6.34786242,27.8975292 6.53811042,26.6800496 C7.08129669,23.2039646 7.89594051,19.7294197 9.03322579,16.4962521 C12.1323105,7.68592096 16.9619533,2.38551878 23.8608907,2.10521369 C31.9110102,1.77813587 37.8745943,2.23319145 42.0483697,3.1844855 C43.1607304,3.43801667 44.0476209,3.70688598 44.7292495,3.97183542 C45.1141182,4.12143411 45.3344136,4.2286776 45.41068,4.27447566 C45.6316275,4.3957217 45.9827222,4.61605374 46.4447787,4.95743265 C47.2264034,5.53491657 48.0099505,6.23587782 48.7403897,7.06000483 C50.5148707,9.0620849 51.6763632,11.4295658 51.9754666,14.1864073 C49.6722785,15.0936926 48.8453679,17.261524 48.514813,19.9790021 C48.3401762,21.4146843 48.4237659,22.9268111 48.6674161,24.3917853 C48.7592823,24.9441409 48.8523272,25.3646982 48.9175209,25.6107133 L50.8507912,25.0983992 C50.8008399,24.9099025 50.7211671,24.5497867 50.6403157,24.0636584 C50.4254102,22.771515 50.3518153,21.4401933 50.5001789,20.2205026 C50.7533068,18.1395482 51.1758422,16.6069629 52.7701857,16.0233375 C54.9122128,15.8339677 56.5009643,16.5614986 57.1112772,18.5540404 C57.6488873,20.3092229 57.7771123,22.7251567 57.3280812,25.0983992 L59.2932158,25.4702139 C59.7972585,22.8062208 59.6715178,20.0836737 59.0235828,17.9683038 C58.2818054,15.5465582 56.4350291,14.1956517 53.9689685,14.0153086 Z" id="Combined-Shape" fill="#008BD8" fill-rule="nonzero"></path>
                        <path d="M52.3814955,32.8177827 C53.9319945,40.2832516 55.9631765,44.1669135 58.8147458,44.033553 L58.9081785,46.0313694 C54.5557892,46.2349194 52.1832711,41.698616 50.4232832,33.2244827 C50.0188447,31.2771589 48.9091317,24.864672 49.0059576,25.3899541 L50.9717131,25.0276043 C51.0438489,25.4679774 52.0150018,31.0531591 52.3814955,32.8177827 Z" id="Path-18" fill="#B8B8B8" fill-rule="nonzero"></path>
                        <path d="M57.3852322,25 C57.3664886,25.1312785 57.3278172,25.3834465 57.2689729,25.7391195 C57.17036,26.3351654 57.0510674,27.0001397 56.9108796,27.7165956 C56.5106902,29.7618372 56.0241777,31.8061685 55.4508655,33.7080137 C53.73304,39.4065467 51.6460557,42.4161649 49.626496,41.7500155 L49,43.6493582 C52.6908299,44.8667742 55.3180498,41.0780878 57.3657519,34.2852571 C57.9603162,32.3129124 58.4616444,30.2063258 58.8736588,28.1006496 C59.0177423,27.3642843 59.1404613,26.6802103 59.2421502,26.0655719 C59.3034869,25.6948342 59.3443864,25.4281375 59.3651533,25.2826881 L57.3852322,25 Z" id="Path-19" fill="#B8B8B8" fill-rule="nonzero"></path>
                        <circle id="Oval-16" fill="#FF4949" cx="59.5" cy="45.5" r="1.5"></circle>
                        <circle id="Oval-16-Copy" fill="#FF4949" cx="48.5" cy="42.5" r="1.5"></circle>
                        <circle id="Oval-17" stroke="#BCBCBC" stroke-width="2" fill="#D9D9D9" cx="5" cy="36" r="5"></circle>
                    </g>
                    <polygon id="Rectangle-33" fill="url(#linearGradient-1)" points="50.3239653 64 68.6638741 64 71.9029636 89.2400969 47.2718351 89.2400969"></polygon>
                    <g id="Group-34" transform="translate(32.000000, 0.000000)">
                        <path d="M48.9229016,49.9646466 C45.9685977,63.9024255 37.2704371,74 27,74 C16.7336756,74 8.03836885,63.910511 5.08065033,49.9813888 C2.23899896,49.728196 0,46.9231117 0,43.5 C0,40.5036737 1.71549702,37.9808734 4.04905455,37.2285694 C4.82877016,19.2335896 14.8062408,5 27,5 C39.1467554,5 49.0942757,19.1240674 49.941519,37.0206394 C52.7726375,37.2864057 55,40.0857952 55,43.5 C55,47.0898509 52.5375661,50 49.5,50 C49.3050999,50 49.1125676,49.9880191 48.9229016,49.9646466 Z" id="Combined-Shape" fill="#FFCAB3"></path>
                        <path d="M4.05177102,36.7458076 C4.05177102,36.7458076 -1.33374817,7.63362444 14.1497032,4.71399765 C29.6331546,1.79437086 15.9121893,-2.44013569 37.7820332,3.81645688 C44.8733038,4.71399765 56.9319254,9.06755935 50.9291121,36.7458076 C50.9291121,37.1445206 50.0921777,36.5964043 50.0874292,36.4373822 C50.0826807,36.27836 49.928906,25.9096925 48.0124096,25.4864425 C46.0959132,25.0631924 20.9337336,25.9338657 15.0336576,12.0499307 C15.0336576,12.0499307 5.14554821,17.2648454 5.01869982,36.4373822 C5.14554821,36.5833371 4.05177102,36.7458076 4.05177102,36.7458076 Z" id="Path-2" fill="#666666"></path>
                        <path d="M21.9315613,58.7729662 L33.4907532,58.7451615 C33.4907532,58.7451615 31.7228193,63.1890197 27.9431597,63.1890197 C24.1635001,63.1890197 21.9315613,58.7729662 21.9315613,58.7729662 Z" id="Path-8" fill="#FFFFFF"></path>
                        <circle id="Oval-13" fill="#333333" cx="16.5" cy="37.5" r="1.5"></circle>
                        <circle id="Oval-13-Copy" fill="#333333" cx="38.5" cy="37.5" r="1.5"></circle>
                        <path d="M9,34.9958262 L9,39.0041738 C9,40.1022081 9.89639095,41 10.9947834,41 L21.0052166,41 C22.1049467,41 23,40.1052066 23,39.0041738 L23,34.9958262 C23,33.8977919 22.1036091,33 21.0052166,33 L10.9947834,33 C9.89505331,33 9,33.8947934 9,34.9958262 Z M25,38 L25,39.0041738 C25,41.2110077 23.2082844,43 21.0052166,43 L10.9947834,43 C8.78852545,43 7,41.2034788 7,39.0041738 L7,38 L4,38 L4,36 L7,36 L7,34.9958262 C7,32.7889923 8.79171562,31 10.9947834,31 L21.0052166,31 C23.2114745,31 25,32.7965212 25,34.9958262 L25,36 L29,36 L29,34.9958262 C29,32.7889923 30.7917156,31 32.9947834,31 L43.0052166,31 C45.2114745,31 47,32.7965212 47,34.9958262 L47,39.0041738 C47,41.2110077 45.2082844,43 43.0052166,43 L32.9947834,43 C30.7885255,43 29,41.2034788 29,39.0041738 L29,38 L25,38 Z M31,34.9958262 L31,39.0041738 C31,40.1022081 31.8963909,41 32.9947834,41 L43.0052166,41 C44.1049467,41 45,40.1052066 45,39.0041738 L45,34.9958262 C45,33.8977919 44.1036091,33 43.0052166,33 L32.9947834,33 C31.8950533,33 31,33.8947934 31,34.9958262 Z M47,36 L51,36 L51,38 L47,38 L47,36 Z" id="Combined-Shape" fill="#3FA2EB" fill-rule="nonzero"></path>
                    </g>
                    <polygon id="Rectangle-34" fill="#63D5FC" points="48 87 71 87 71 125.403054 64.2485242 142.780724 54.8538518 143.621734 48.2087818 125.403054"></polygon>
                    <path d="M53.7119346,87.6976681 C53.7119346,88.3587653 56.6140663,97.2043947 56.6140663,97.2043947 C56.6140663,97.2043947 53.6026265,127.869144 53.5330093,138.874499 C53.4633922,149.879855 53.5330093,153.302277 53.5330093,153.302277 L65.6850215,153.721829 L65.6988386,137.883662 C65.6988386,137.883662 65.36085,122.528563 62.5331183,97.2601947 L66.2563073,86.5625365 C66.2563073,86.5625365 53.7119346,87.0365708 53.7119346,87.6976681 Z" id="Path-11" fill="#149DE7"></path>
                    <g id="Group-35" transform="translate(42.000000, 76.000000)">
                        <path d="M7,0 C7.16273697,-0.819624044 6.50216159,2.11603244 8,4 C9.14177841,5.11381307 17.285155,10.9761489 18,11 C18.6606729,11.1324437 6,16 6,16 C6,16 5.84158621,1.25321046 7,0 Z" id="Path-9" fill="#97D9F6"></path>
                        <path d="M18,0 C18.162737,-0.819624044 17.5021616,2.11603244 19,4 C20.1417784,5.11381307 28.285155,10.9761489 29,11 C29.6606729,11.1324437 17,16 17,16 C17,16 16.8415862,1.25321046 18,0 Z" id="Path-9-Copy" fill="#97D9F6" transform="translate(23.000000, 8.000000) scale(-1, 1) translate(-23.000000, -8.000000) "></path>
                        <path d="M7,0 C7,0 2.02682871,1.5530326 1,12 C0.188853316,23.0313248 0,24 0,24 L6,26 L0,33 L11.3994033,63.8927778 L7,0 Z" id="Path-10" fill="#FFFFFF"></path>
                        <path d="M31.2549406,0 C31.2549406,0 26.2817693,1.5530326 25.2549406,12 C24.443794,23.0313248 23.6247598,24.2286353 23.6247598,24.2286353 L30.2549406,26 L23.6247598,33.0940208 L35.6301809,63.9673917 L31.2549406,0 Z" id="Path-10-Copy" fill="#FFFFFF" transform="translate(29.627470, 31.983696) scale(-1, 1) translate(-29.627470, -31.983696) "></path>
                    </g>
                    <ellipse id="Oval-14" fill="#FFBFA3" transform="translate(49.889047, 164.934505) rotate(-17.000000) translate(-49.889047, -164.934505) " cx="49.8890467" cy="164.934505" rx="14" ry="8.55342723"></ellipse>
                    <polygon id="Path-15" fill="#91E2FF" points="56.7794356 154.315414 61.2517382 167.784669 68.3016647 165.339686 63.493102 152.661618"></polygon>
                </g>
                <g id="Group-32" transform="translate(14.000000, 85.000000)">
                    <path d="M44.2222222,76 L45.7777778,62 L6.00179395,62 C2.68709468,62 0,59.3160373 0,55.998845 L0,6.00115501 C0,2.68680862 2.68550776,0 6.00179395,0 L105.998206,0 C109.312905,0 112,2.68396269 112,6.00115501 L112,55.998845 C112,59.3131914 109.314492,62 105.998206,62 L66.2222222,62 L67.7777778,76 L74.0031246,76 C74.5536837,76 75,76.4438648 75,77 L75,78 L37,78 L37,77 C37,76.4477153 37.4532303,76 37.9968754,76 L44.2222222,76 Z" id="Combined-Shape" fill="#555555"></path>
                    <polygon id="Triangle" fill="#333333" opacity="0.600000024" points="47.3499999 36 46.0036776 62 43 62"></polygon>
                    <polygon id="Triangle-Copy" fill="#333333" opacity="0.600000024" transform="translate(67.175000, 49.000000) scale(-1, 1) translate(-67.175000, -49.000000) " points="69.3499999 36 68.0036776 62 65 62"></polygon>
                </g>
                <g id="Group-33" transform="translate(0.000000, 163.000000)">
                    <rect id="Rectangle-29" fill="#AF7035" x="18" y="7" width="264" height="140"></rect>
                    <rect id="Rectangle-28" fill="#D28E49" x="0" y="0" width="300" height="16"></rect>
                </g>
                <g id="Group-38" transform="translate(171.000000, 113.000000)">
                    <g id="Group-40" transform="translate(51.364297, 0.000000)">
                        <rect id="Rectangle-32" fill="#141414" x="0" y="0" width="31.1092284" height="50.4216867" rx="1.95180723"></rect>
                        <g id="Group-35" transform="translate(3.564599, 7.481928)">
                            <mask id="mask-3" fill="white">
                                <use xlink:href="#path-2"></use>
                            </mask>
                            <use id="Rectangle-32" fill="#FFFFFF" xlink:href="#path-2"></use>
                            <rect id="Rectangle-46" fill="#00CEDB" mask="url(#mask-3)" x="2.16036309" y="2.1686747" width="19.4432678" height="10.2357782" rx="0.65060241"></rect>
                            <rect id="Rectangle-46-Copy" fill="#00CEDB" mask="url(#mask-3)" x="2.16036309" y="14.9096386" width="19.4432678" height="10.2357782" rx="0.65060241"></rect>
                            <rect id="Rectangle-46-Copy" fill="#00CEDB" mask="url(#mask-3)" x="2.16036309" y="27.6506024" width="19.4432678" height="10.2357782" rx="0.65060241"></rect>
                        </g>
                        <rect id="Rectangle-33" fill="#474747" x="8.91149773" y="3.25301205" width="13.286233" height="1.30120482" rx="0.325301205"></rect>
                        <rect id="Rectangle-33-Copy" fill="#474747" x="13.9343419" y="44.8915663" width="3.24054463" height="3.25301205" rx="1.62027231"></rect>
                    </g>
                    <g id="Group-9" transform="translate(84.000000, 15.000000)">
                        <rect id="Rectangle-10" fill="#D6D6D6" x="0" y="0" width="34.6738275" height="34.8072289" rx="3.57831325"></rect>
                        <rect id="Rectangle-11-Copy" fill="#FFFFFF" x="12.6381241" y="3.57831325" width="9.39757943" height="5.85542169" rx="0.65060241"></rect>
                        <ellipse id="Oval-4" stroke="#979797" stroke-width="0.975903614" fill="#FFFFFF" cx="17.1748865" cy="27.3253012" rx="2.91649017" ry="2.92771084"></ellipse>
                    </g>
                    <g id="Page-1-Copy" transform="translate(30.130532, 40.670396) rotate(-22.000000) translate(-30.130532, -40.670396) translate(4.130532, 26.670396)">
                        <path d="M49.7941514,10.875794 C48.9965942,10.5817128 18.848934,1.35825916 18.5299111,1.25132056 C18.2108882,1.14438197 16.7309412,0.627547747 16.1992364,0.413670561 C15.6675317,0.199793374 14.1079352,-0.459696931 12.6368145,0.823566189 C11.1658001,2.10682931 0.703445406,11.0573757 0.703445406,11.0573757 L0.703658088,11.0581243 C0.306155604,11.3948739 0.0531704766,11.8985547 0.0531704766,12.4620141 C0.0531704766,13.3676771 0.705891248,14.1182791 1.56353104,14.2686347 L1.5639564,14.2701319 L35.5710489,27.7988264 C35.5710489,27.7988264 36.1326354,28.0113134 36.8193853,27.3800548 C36.8193853,27.3800548 43.2541827,21.4627147 43.5466204,21.2221029 C43.839058,20.981491 44.4771037,20.2061862 44.6897856,20.1794516 C44.9024675,20.1527169 46.7634342,20.981491 47.0292866,21.061695 C47.295139,21.1418989 49.3687876,21.7300612 50.9639019,17.2921096 C52.5590162,12.8541579 50.5917085,11.1698751 49.7941514,10.875794 Z" id="Stroke-15" fill="#D6D6D6"></path>
                        <path d="M50.4348875,11.2817436 C49.2235577,10.5470754 48.2433068,11.6243748 47.3571676,12.4798836 C46.482407,13.3243776 36.0529116,24.6266106 35.784188,24.9178044 C35.7821676,24.9200501 35.7800407,24.922082 35.7781266,24.9243277 L35.7778076,24.9246485 L35.7778076,24.9247554 C35.4819671,25.2652479 35.2638618,25.7329973 35.2097342,26.2434152 C35.1044567,27.2354845 35.6847593,27.8151987 36.4078777,27.593408 C36.6686258,27.513418 36.9143797,27.3362207 37.1220636,27.1018113 C38.397517,25.9292296 43.292391,21.4312855 43.5466523,21.2221136 C43.8390899,20.9815017 44.4771356,20.2061969 44.6898175,20.1794623 C44.9024994,20.1527276 46.7634661,20.9815017 47.0293185,21.0617057 C47.2951709,21.1419096 49.3688195,21.7300719 50.9639338,17.2921203 C52.2105688,13.823567 51.2811488,12.0370508 50.4348875,11.2817436 Z" id="Stroke-17" fill="#E7E7E7"></path>
                        <path d="M51.1180856,15.0892601 C50.9171012,17.4616928 49.6527073,19.8461026 48.2776124,20.4324469 C46.8850776,21.0262769 45.8988716,19.5589725 46.0915614,17.1372411 C46.2852083,14.7029979 47.5917133,12.2745294 48.992649,11.7306397 C50.3758257,11.193701 51.3200271,12.7049572 51.1180856,15.0892601 Z" id="Stroke-9" fill="#979797"></path>
                        <path d="M49.3523579,15.8801031 C49.3097152,16.3837838 49.0412042,16.8901381 48.7492983,17.0146146 C48.4535641,17.1406952 48.2441788,16.8290762 48.2851201,16.3149154 C48.326274,15.7980812 48.6036112,15.2824233 48.9010469,15.1670365 C49.1947606,15.0529331 49.3952133,15.3738558 49.3523579,15.8801031 Z" id="Stroke-11" fill="#323232"></path>
                        <path d="M48.9010681,15.1669938 C48.8795873,15.175335 48.8583191,15.1863496 48.8370509,15.1986476 C48.8712927,15.3170286 48.884479,15.46439 48.8702293,15.6331391 C48.8301387,16.1070909 48.5900209,16.5830746 48.3186387,16.7413437 C48.3888238,16.9843082 48.5490796,17.0999088 48.7492133,17.0145718 C49.0412255,16.8900953 49.3097364,16.383848 49.3523791,15.8800603 C49.3952346,15.373813 49.1947819,15.0529972 48.9010681,15.1669938 Z" id="Stroke-13" fill="#5B5B5B"></path>
                        <path d="M28.1732065,19.4607387 L4.59146207,10.6960516 C4.42684628,10.6348827 4.42227361,10.4736193 4.58104066,10.3358824 L12.0453248,3.86481423 C12.1982431,3.73221038 12.456439,3.67029293 12.6222245,3.72654263 L36.3309401,11.7613738 C36.5238425,11.8267133 36.5547878,11.9985636 36.3996363,12.1452834 L28.8141234,19.3134842 C28.6524852,19.4662995 28.3653646,19.5321737 28.1732065,19.4607387 Z" id="Stroke-19" fill="#FFFFFF"></path>
                        <path d="M37.2173876,17.9598769 L35.7728521,17.4502076 C35.1812774,17.2414634 35.0993948,16.6949003 35.5864364,16.2320701 L36.1790745,15.6688245 C36.6588849,15.2129453 37.5175881,15.0111521 38.1005492,15.2155118 L39.5239229,15.7145942 C40.1086918,15.9194886 40.205143,16.4574966 39.7361794,16.9188297 L39.1567276,17.4887055 C38.6806391,17.9570965 37.8107701,18.1692627 37.2173876,17.9598769 Z" id="Stroke-21" fill="#FFFFFF"></path>
                        <path d="M33.4778761,21.4793223 L31.9348688,20.9348979 C31.3028846,20.7119309 31.2154723,20.1280462 31.7356922,19.6336691 L32.3688463,19.0320326 C32.8813033,18.5451411 33.7986004,18.3295529 34.4212267,18.5479216 L35.9416896,19.0809035 C36.5663364,19.2998068 36.6693808,19.8744948 36.1684085,20.3672678 L35.5495042,20.9760693 C35.0408754,21.476328 34.1117745,21.7029309 33.4778761,21.4793223 Z" id="Stroke-23" fill="#FFFFFF"></path>
                        <path d="M40.3871349,14.85746 L38.7945728,14.4444632 C38.1176063,14.26887 37.9929747,13.7276538 38.5009654,13.2647166 L38.5823163,13.1906081 C39.0570223,12.7581485 39.9096641,12.5681186 40.5002817,12.7416799 L41.8947306,13.1513617 C42.448767,13.3141222 42.6204013,13.7804814 42.2705396,14.2160423 L42.2106696,14.2905785 C41.8377319,14.7550128 41.0176304,15.0209691 40.3871349,14.85746 Z" id="Stroke-25" fill="#FFFFFF"></path>
                    </g>
                </g>
            </g>
        </g>
    </g>
</svg>