<?xml version="1.0" encoding="UTF-8"?>
<svg width="50px" height="50px" viewBox="0 0 50 50" version="1.1" xmlns="http://www.w3.org/2000/svg" xmlns:xlink="http://www.w3.org/1999/xlink">
    <!-- Generator: Sketch 44.1 (41455) - http://www.bohemiancoding.com/sketch -->
    <title>icon-health-data-weight</title>
    <desc>Created with Sketch.</desc>
    <defs></defs>
    <g id="医生账户" stroke="none" stroke-width="1" fill="none" fill-rule="evenodd">
        <path d="M5,25 C5,13.954305 13.9518764,5 25,5 C36.045695,5 45,13.9518764 45,25 C45,36.045695 36.0481236,45 25,45 C13.954305,45 5,36.0481236 5,25 Z M33.5,32.5 C33.5,32.5 35,22.5 35,20 C35,17.5 34.1860206,15 25.1516018,15 C16.117183,15 15,17.5 15,20 C15,22.5 16.5,32.5 16.5,32.5 C16.6134352,33.7022487 17,35 18.5848345,35 C20.169669,35 29.8259859,35 31.412993,35 C33,35 33.3877258,33.7004733 33.5,32.5 Z M29.190091,23 L21.8086438,23 C21.3439527,23 21.0044531,22.6289324 21.0675875,22.1711974 C21.0675875,22.1711974 20.9532727,19 25.4993674,19 C30.045462,19 29.9265135,22.1517029 29.9265135,22.1517029 C30.0135829,22.6164632 29.6624994,23 29.190091,23 Z" id="icon-health-data-weight" fill="#1CC4C1"></path>
    </g>
</svg>