<?xml version="1.0" encoding="UTF-8"?>
<svg width="50px" height="50px" viewBox="0 0 50 50" version="1.1" xmlns="http://www.w3.org/2000/svg" xmlns:xlink="http://www.w3.org/1999/xlink">
    <!-- Generator: Sketch 44.1 (41455) - http://www.bohemiancoding.com/sketch -->
    <title>icon-health-data-calories</title>
    <desc>Created with Sketch.</desc>
    <defs></defs>
    <g id="医生账户" stroke="none" stroke-width="1" fill="none" fill-rule="evenodd">
        <path d="M5,25 C5,13.954305 13.9518764,5 25,5 C36.045695,5 45,13.9518764 45,25 C45,36.045695 36.0481236,45 25,45 C13.954305,45 5,36.0481236 5,25 Z M22.8907557,12 C23.3512038,16.3459266 22.3512038,20.0125932 19.8907557,23 C18.7256541,22.2661424 18.0589874,21.2661424 17.8907557,20 C12.7795803,28.4948141 14.4462469,34.4948141 22.8907557,38 C21.0634001,34.1783767 21.7300667,30.8450434 24.8907557,28 C24.0904597,29.9785952 24.4237931,31.6452619 25.8907557,33 C27.8807878,34.1752141 28.2141211,35.8418808 26.8907557,38 C35.9490528,33.5922283 37.2823861,27.5922283 30.8907557,20 C30.9030494,21.0915402 30.5697161,22.0915402 29.8907557,23 C29.4936504,17.7239412 27.1603171,14.0572745 22.8907557,12 Z" id="icon-health-data-calories" fill="#50B2FD"></path>
    </g>
</svg>