<?xml version="1.0" encoding="UTF-8"?>
<svg width="40px" height="40px" viewBox="0 0 40 40" version="1.1" xmlns="http://www.w3.org/2000/svg" xmlns:xlink="http://www.w3.org/1999/xlink">
    <!-- Generator: Sketch 44 (41411) - http://www.bohemiancoding.com/sketch -->
    <title>icon-health-data-list-steps</title>
    <desc>Created with Sketch.</desc>
    <defs></defs>
    <g id="医生账户" stroke="none" stroke-width="1" fill="none" fill-rule="evenodd">
        <path d="M0,20 C0,8.954305 8.95187636,0 20,0 C31.045695,0 40,8.95187636 40,20 C40,31.045695 31.0481236,40 20,40 C8.954305,40 0,31.0481236 0,20 Z M16.8340499,16.0270965 C15.7056278,18.2305904 13.3521354,22.9199369 11.4066157,24.9387675 C10.2802154,26.1076125 10.132759,26.5196076 10.0527251,27.4999793 C10.0198635,27.9025157 9.94379762,28.2623643 10.0708268,28.3507649 C11.4066157,29.2803508 15.6927393,29.5088551 20.2189645,26.9953069 C21.8265817,26.102549 23.2394074,24.0161644 24.2925672,23.3392368 C26.1001168,22.1774183 27.4438816,21.4910941 28.5924802,20.5971842 C30.4103039,19.1824421 30.1794099,17.4199807 29.497726,16.7126096 C28.8160421,16.0052386 28.8960745,16.2370289 28.4552221,15.715807 C27.4287389,14.5021908 26.3619616,12.2927091 24.6134161,11.1380695 C23.7045044,10.4306985 23.5058123,12.6407127 23.0228205,13.2601827 C22.274715,14.2196792 21.4200195,14.6749248 20.0946791,14.6749248 C19.3871731,14.6749248 18.8584606,14.0906506 18.8584606,14.0906506 C18.1150953,13.5195268 17.4361324,13.8184483 17.2722464,14.7390129 C17.2722464,14.7390129 17.418958,14.8849338 16.8340499,16.0270965 Z" id="icon-health-data-list-steps" fill="#50B2FD"></path>
    </g>
</svg>