<?xml version="1.0" encoding="UTF-8"?>
<svg width="40px" height="40px" viewBox="0 0 40 40" version="1.1" xmlns="http://www.w3.org/2000/svg" xmlns:xlink="http://www.w3.org/1999/xlink">
    <!-- Generator: Sketch 44 (41411) - http://www.bohemiancoding.com/sketch -->
    <title>icon-health-data-list--sleep</title>
    <desc>Created with Sketch.</desc>
    <defs></defs>
    <g id="医生账户" stroke="none" stroke-width="1" fill="none" fill-rule="evenodd">
        <path d="M0,20 C0,8.954305 8.95187636,0 20,0 C31.045695,0 40,8.95187636 40,20 C40,31.045695 31.0481236,40 20,40 C8.954305,40 0,31.0481236 0,20 Z M18.6666667,12 C18.7446731,11.6153595 18.1750642,11.2088764 17.3333333,11.3333333 C13.2889634,12.3957315 10,16.1214266 10,21.3333333 C10,26.5452401 14.0849045,30 19.3333333,30 C24.5366376,30 27.8275244,26.4955727 28.6666667,22 C28.7712333,21.1270193 28.1033066,20.4173054 27.3333333,20.6666667 C26.8918844,20.7115484 26.24878,20.7734635 26,20.6666667 C21.7958931,20.7734635 18.6265054,17.5506138 18.6666667,13.3333333 C18.6265054,12.9783535 18.5678679,12.6220077 18.6666667,12 Z M26.8246638,11.9090909 L23.3333333,15.0909091 C22.6782058,15.7092718 23.0773298,17 24,17 L28.9735133,17 C29.5442075,17 30,16.5886106 30,16.0454545 C30,15.5022985 29.5442075,15.0909091 28.9735133,15.0909091 L26.3913209,15.0909091 L29.6666667,11.9090909 C30.3217942,11.2907282 29.8961834,10 28.9735133,10 L24,10 C23.4293058,10 23,10.4113894 23,10.9545455 C23,11.4977015 23.4293057,11.9090909 24,11.9090909 L26.8246638,11.9090909 Z" id="icon-health-data-list--sleep" fill="#8E61EB"></path>
    </g>
</svg>