<?xml version="1.0" encoding="UTF-8"?>
<svg width="50px" height="50px" viewBox="0 0 50 50" version="1.1" xmlns="http://www.w3.org/2000/svg" xmlns:xlink="http://www.w3.org/1999/xlink">
    <!-- Generator: Sketch 44.1 (41455) - http://www.bohemiancoding.com/sketch -->
    <title>icon-health-data-distance</title>
    <desc>Created with Sketch.</desc>
    <defs></defs>
    <g id="医生账户" stroke="none" stroke-width="1" fill="none" fill-rule="evenodd">
        <path d="M35,36 L35,31 L33,31 L33,35 L17,35 L17,31 L15,31 L15,37 L16.5,37 L35,37 L35,36 Z M5,25 C5,13.954305 13.9518764,5 25,5 C36.045695,5 45,13.9518764 45,25 C45,36.045695 36.0481236,45 25,45 C13.954305,45 5,36.0481236 5,25 Z M25,32 C30.3333333,26.9455187 33,22.9455187 33,20 C33,15.581722 29.418278,12 25,12 C20.581722,12 17,15.581722 17,20 C17,22.9455187 19.6666667,26.9455187 25,32 Z M25,23 C23.3431458,23 22,21.6568542 22,20 C22,18.3431458 23.3431458,17 25,17 C26.6568542,17 28,18.3431458 28,20 C28,21.6568542 26.6568542,23 25,23 Z" id="icon-health-data-distance" fill="#50B2FD"></path>
    </g>
</svg>