<?xml version="1.0" encoding="UTF-8"?>
<svg width="40px" height="40px" viewBox="0 0 40 40" version="1.1" xmlns="http://www.w3.org/2000/svg" xmlns:xlink="http://www.w3.org/1999/xlink">
    <!-- Generator: Sketch 44 (41411) - http://www.bohemiancoding.com/sketch -->
    <title>icon-health-data-list-weight</title>
    <desc>Created with Sketch.</desc>
    <defs></defs>
    <g id="医生账户" stroke="none" stroke-width="1" fill="none" fill-rule="evenodd">
        <path d="M0,20 C0,8.954305 8.95187636,0 20,0 C31.045695,0 40,8.95187636 40,20 C40,31.045695 31.0481236,40 20,40 C8.954305,40 0,31.0481236 0,20 Z M28.5,27.5 C28.5,27.5 30,17.5 30,15 C30,12.5 29.1860206,10 20.1516018,10 C11.117183,10 10,12.5 10,15 C10,17.5 11.5,27.5 11.5,27.5 C11.6134352,28.7022487 12,30 13.5848345,30 C15.169669,30 24.8259859,30 26.412993,30 C28,30 28.3877258,28.7004733 28.5,27.5 Z M24.190091,18 L16.8086438,18 C16.3439527,18 16.0044531,17.6289324 16.0675875,17.1711974 C16.0675875,17.1711974 15.9532727,14 20.4993674,14 C25.045462,14 24.9265135,17.1517029 24.9265135,17.1517029 C25.0135829,17.6164632 24.6624994,18 24.190091,18 Z" id="icon-health-data-list-weight" fill="#1CC4C1"></path>
    </g>
</svg>