<?xml version="1.0" encoding="UTF-8"?>
<svg width="50px" height="50px" viewBox="0 0 50 50" version="1.1" xmlns="http://www.w3.org/2000/svg" xmlns:xlink="http://www.w3.org/1999/xlink">
    <!-- Generator: Sketch 44.1 (41455) - http://www.bohemiancoding.com/sketch -->
    <title>icon-health-data-sleep</title>
    <desc>Created with Sketch.</desc>
    <defs></defs>
    <g id="医生账户" stroke="none" stroke-width="1" fill="none" fill-rule="evenodd">
        <path d="M26.9140991,13.1517884 C26.2907982,13.0518984 25.6514615,13 25,13 C18.3711258,13 13,18.372583 13,25 C13,31.6288742 18.372583,37 25,37 C30.8471677,37 35.7157351,32.8198229 36.7826699,27.2855015 C35.3429055,28.3622931 33.5568243,29 31.625,29 C26.861544,29 23,25.1287633 23,20.375 C23,17.35174 24.5593959,14.6917846 26.9140991,13.1517884 Z M25,45 C13.954305,45 5,36.045695 5,25 C5,13.954305 13.954305,5 25,5 C36.045695,5 45,13.954305 45,25 C45,36.045695 36.045695,45 25,45 Z M25.6464466,21.6464466 C25.3314642,21.961429 25.5545476,22.5 26,22.5 L30,22.5 C30.2761424,22.5 30.5,22.2761424 30.5,22 C30.5,21.7238576 30.2761424,21.5 30,21.5 L27.2071068,21.5 L32.3535534,16.3535534 C32.6685358,16.038571 32.4454524,15.5 32,15.5 L26,15.5 C25.7238576,15.5 25.5,15.7238576 25.5,16 C25.5,16.2761424 25.7238576,16.5 26,16.5 L30.7928932,16.5 L25.6464466,21.6464466 Z M30.6464466,24.6464466 C30.3314642,24.961429 30.5545476,25.5 31,25.5 L35,25.5 C35.2761424,25.5 35.5,25.2761424 35.5,25 C35.5,24.7238576 35.2761424,24.5 35,24.5 L32.2071068,24.5 L35.3535534,21.3535534 C35.6685358,21.038571 35.4454524,20.5 35,20.5 L31,20.5 C30.7238576,20.5 30.5,20.7238576 30.5,21 C30.5,21.2761424 30.7238576,21.5 31,21.5 L33.7928932,21.5 L30.6464466,24.6464466 Z" id="icon-health-data-sleep" fill="#6739AF"></path>
    </g>
</svg>