<?xml version="1.0" encoding="UTF-8"?>
<svg width="50px" height="50px" viewBox="0 0 50 50" version="1.1" xmlns="http://www.w3.org/2000/svg" xmlns:xlink="http://www.w3.org/1999/xlink">
    <!-- Generator: Sketch 44.1 (41455) - http://www.bohemiancoding.com/sketch -->
    <title>icon-health-data-steps</title>
    <desc>Created with Sketch.</desc>
    <defs></defs>
    <g id="医生账户" stroke="none" stroke-width="1" fill="none" fill-rule="evenodd">
        <path d="M5,25 C5,13.954305 13.9518764,5 25,5 C36.045695,5 45,13.9518764 45,25 C45,36.045695 36.0481236,45 25,45 C13.954305,45 5,36.0481236 5,25 Z M21.8340499,21.0270965 C20.7056278,23.2305904 18.3521354,27.9199369 16.4066157,29.9387675 C15.2802154,31.1076125 15.132759,31.5196076 15.0527251,32.4999793 C15.0198635,32.9025157 14.9437976,33.2623643 15.0708268,33.3507649 C16.4066157,34.2803508 20.6927393,34.5088551 25.2189645,31.9953069 C26.8265817,31.102549 28.2394074,29.0161644 29.2925672,28.3392368 C31.1001168,27.1774183 32.4438816,26.4910941 33.5924802,25.5971842 C35.4103039,24.1824421 35.1794099,22.4199807 34.497726,21.7126096 C33.8160421,21.0052386 33.8960745,21.2370289 33.4552221,20.715807 C32.4287389,19.5021908 31.3619616,17.2927091 29.6134161,16.1380695 C28.7045044,15.4306985 28.5058123,17.6407127 28.0228205,18.2601827 C27.274715,19.2196792 26.4200195,19.6749248 25.0946791,19.6749248 C24.3871731,19.6749248 23.8584606,19.0906506 23.8584606,19.0906506 C23.1150953,18.5195268 22.4361324,18.8184483 22.2722464,19.7390129 C22.2722464,19.7390129 22.418958,19.8849338 21.8340499,21.0270965 Z" id="icon-health-data-steps" fill="#50B2FD"></path>
    </g>
</svg>