<?xml version="1.0" encoding="UTF-8"?>
<svg width="40px" height="40px" viewBox="0 0 40 40" version="1.1" xmlns="http://www.w3.org/2000/svg" xmlns:xlink="http://www.w3.org/1999/xlink">
    <!-- Generator: Sketch 44 (41411) - http://www.bohemiancoding.com/sketch -->
    <title>icon-health-data-list-temperature</title>
    <desc>Created with Sketch.</desc>
    <defs></defs>
    <g id="医生账户" stroke="none" stroke-width="1" fill="none" fill-rule="evenodd">
        <path d="M16,19.6366618 C14.1910214,20.8475538 13,22.9096879 13,25.25 C13,28.9779221 16.0220779,32 19.75,32 C23.4779221,32 26.5,28.9779221 26.5,25.25 C26.5,22.9096879 25.3089786,20.8475538 23.5,19.6366618 L23.5,11.7597961 C23.5,9.67943633 21.8210678,8 19.75,8 C17.6831464,8 16,9.68331807 16,11.7597961 L16,19.6366618 Z M0,20 C0,8.954305 8.95187636,0 20,0 C31.045695,0 40,8.95187636 40,20 C40,31.045695 31.0481236,40 20,40 C8.954305,40 0,31.0481236 0,20 Z M20,10.9970301 C20,10.4463856 20.4438648,10 21,10 C21.5522847,10 22,10.4530363 22,10.9970301 L22,17.0029699 C22,17.5536144 21.5561352,18 21,18 C20.4477153,18 20,17.5469637 20,17.0029699 L20,10.9970301 Z M19.75,30 C19.3357864,30 19,29.6642136 19,29.25 C19,28.8357864 19.3357864,28.5 19.75,28.5 C21.8210678,28.5 23.5,26.8210678 23.5,24.75 C23.5,24.3357864 23.8357864,24 24.25,24 C24.6642136,24 25,24.3357864 25,24.75 C25,27.6494949 22.6494949,30 19.75,30 Z" id="icon-health-data-list-temperature" fill="#F8C241"></path>
    </g>
</svg>