<?xml version="1.0" encoding="UTF-8"?>
<svg width="50px" height="50px" viewBox="0 0 50 50" version="1.1" xmlns="http://www.w3.org/2000/svg" xmlns:xlink="http://www.w3.org/1999/xlink">
    <!-- Generator: Sketch 44.1 (41455) - http://www.bohemiancoding.com/sketch -->
    <title>icon-health-data-morning-veins</title>
    <desc>Created with Sketch.</desc>
    <defs></defs>
    <g id="医生账户" stroke="none" stroke-width="1" fill="none" fill-rule="evenodd">
        <path d="M25,45 C13.954305,45 5,36.045695 5,25 C5,13.954305 13.954305,5 25,5 C36.045695,5 45,13.954305 45,25 C45,36.045695 36.045695,45 25,45 Z M34,29 C34,24.0294373 29.9705627,20 25,20 C20.0294373,20 16,24.0294373 16,29 L34,29 Z M24.5,15 C24.2238576,15 24,15.2238576 24,15.5 L24,17.5 C24,17.7761424 24.2238576,18 24.5,18 C24.7761424,18 25,17.7761424 25,17.5 L25,15.5 C25,15.2238576 24.7761424,15 24.5,15 Z M17.4315978,17.2491831 C17.1932329,17.3868031 17.1115631,17.6915991 17.2491831,17.929964 L17.7634751,18.8207439 C17.9010952,19.0591088 18.2058911,19.1407786 18.444256,19.0031586 C18.6826209,18.8655386 18.7642907,18.5607426 18.6266707,18.3223777 L18.1123786,17.4315978 C17.9747586,17.1932329 17.6699626,17.1115631 17.4315978,17.2491831 Z M31.9505851,17.2491831 C31.7122202,17.1115631 31.4074243,17.1932329 31.2698042,17.4315978 L30.2491831,19.1993655 C30.1115631,19.4377303 30.1932329,19.7425263 30.4315978,19.8801463 C30.6699626,20.0177664 30.9747586,19.9360965 31.1123786,19.6977317 L31.1123786,19.6977317 L32.1329998,17.929964 C32.2706198,17.6915991 32.18895,17.3868031 31.9505851,17.2491831 Z M13.2491831,22.4315978 C13.1115631,22.6699626 13.1932329,22.9747586 13.4315978,23.1123786 L15.1993655,24.1329998 C15.4377303,24.2706198 15.7425263,24.18895 15.8801463,23.9505851 L15.8801463,23.9505851 C16.0177664,23.7122202 15.9360965,23.4074243 15.6977317,23.2698042 L13.929964,22.2491831 C13.6915991,22.1115631 13.3868031,22.1932329 13.2491831,22.4315978 Z M36.8801463,22.4315978 C36.7425263,22.1932329 36.4377303,22.1115631 36.1993655,22.2491831 L34.4315978,23.2698042 C34.1932329,23.4074243 34.1115631,23.7122202 34.2491831,23.9505851 L34.2491831,23.9505851 C34.3868031,24.18895 34.6915991,24.2706198 34.929964,24.1329998 L36.6977317,23.1123786 C36.9360965,22.9747586 37.0177664,22.6699626 36.8801463,22.4315978 Z M13.5,29 C13.2238576,29 13,29.2238576 13,29.5 C13,29.7761424 13.2238576,30 13.5,30 L36.5,30 C36.7761424,30 37,29.7761424 37,29.5 C37,29.2238576 36.7761424,29 36.5,29 L36.5,29 L13.5,29 Z" id="icon-health-data-morning-veins" fill="#20A0FF"></path>
    </g>
</svg>