<?xml version="1.0" encoding="UTF-8"?>
<svg width="18px" height="18px" viewBox="0 0 18 18" version="1.1" xmlns="http://www.w3.org/2000/svg" xmlns:xlink="http://www.w3.org/1999/xlink">
    <!-- Generator: Sketch 41.2 (35397) - http://www.bohemiancoding.com/sketch -->
    <title>icon-close</title>
    <desc>Created with Sketch.</desc>
    <defs></defs>
    <g id="医生账户信息" stroke="none" stroke-width="1" fill="none" fill-rule="evenodd">
        <path d="M9,7.27223173 L2.09368638,0.365918106 C1.61837404,-0.109394235 0.838268671,-0.115951398 0.361158636,0.361158636 C-0.119277721,0.841594994 -0.113820511,1.61394776 0.365918106,2.09368638 L7.27223173,9 L0.365918106,15.9063136 C-0.109394235,16.381626 -0.115951398,17.1617313 0.361158636,17.6388414 C0.841594994,18.1192777 1.61394776,18.1138205 2.09368638,17.6340819 L9,10.7277683 L15.9063136,17.6340819 C16.381626,18.1093942 17.1617313,18.1159514 17.6388414,17.6388414 C18.1192777,17.158405 18.1138205,16.3860522 17.6340819,15.9063136 L10.7277683,9 L17.6340819,2.09368638 C18.1093942,1.61837404 18.1159514,0.838268671 17.6388414,0.361158636 C17.158405,-0.119277721 16.3860522,-0.113820511 15.9063136,0.365918106 L9,7.27223173 Z" id="close-icon" fill="#C0CCDA"></path>
    </g>
</svg>