<?xml version="1.0" encoding="UTF-8"?>
<svg width="60px" height="60px" viewBox="0 0 60 60" version="1.1" xmlns="http://www.w3.org/2000/svg" xmlns:xlink="http://www.w3.org/1999/xlink">
    <!-- Generator: Sketch 43.1 (39012) - http://www.bohemiancoding.com/sketch -->
    <title>icon-messagebox-head</title>
    <desc>Created with Sketch.</desc>
    <defs>
        <linearGradient x1="50%" y1="0%" x2="50%" y2="100%" id="linearGradient-1">
            <stop stop-color="#DCDCDC" offset="0%"></stop>
            <stop stop-color="#FFFFFF" offset="100%"></stop>
        </linearGradient>
        <rect id="path-2" x="0" y="0" width="60" height="60" rx="30"></rect>
    </defs>
    <g id="医生模块" stroke="none" stroke-width="1" fill="none" fill-rule="evenodd">
        <g id="icon-top-head">
            <mask id="mask-3" fill="white">
                <use xlink:href="#path-2"></use>
            </mask>
            <g id="path-2" fill-rule="nonzero">
                <use fill="url(#linearGradient-1)" fill-rule="evenodd" xlink:href="#path-2"></use>
                <rect stroke="#B8B8B8" stroke-width="1" x="0.5" y="0.5" width="59" height="59" rx="29.5"></rect>
            </g>
            <path d="M55.5980578,65.3333334 C54.8134454,61.6404856 53.3198132,55.3957796 53.3198132,55.3957796 C53.3198132,55.3957796 52.5217554,51.523212 51.2577404,50.2031746 C49.0746592,47.923212 35.5122316,46.0038842 34.9788982,41.916564 C34.8338376,40.8057516 34.7897666,38.8604296 34.8309244,38.3868534 C35.942633,37.3839776 36.8404856,36.0896358 37.0563586,35.7190662 C37.3262372,35.2542296 37.878917,33.9520448 38.3014006,32.3346406 C39.0039962,32.2515032 39.6407096,30.9507376 40.109281,29.5172362 C40.611466,27.9745284 40.2309618,26.6238656 39.5181326,26.3749766 C40.0059758,24.329337 40.4162838,20.9936134 39.2202428,18.3631746 C38.678394,17.1704202 39.9269468,14.7690009 37.6629692,12.1511111 C35.722353,15.0642764 29.9917086,10.4077684 25.5738562,12.6372362 C23.7545472,13.5551821 22.9965266,14.9169748 22.7233614,16.2468721 C21.267675,17.4184127 20.9116714,18.9062185 20.7188048,19.8189356 C20.217591,22.1940616 20.1405042,24.280859 20.7911858,26.4488516 C20.192493,26.8398132 19.9132026,28.102633 20.373931,29.5172362 C20.8413818,30.9507376 21.478917,32.2509056 22.1803922,32.3346406 C22.6028758,33.9520448 23.1569748,35.2542296 23.4265546,35.7190662 C23.6565452,36.1150326 24.6640522,37.5666106 25.8819794,38.589057 L25.9329972,38.589057 C25.9312792,39.3876378 25.8795892,41.0834734 25.771055,41.916564 C25.2377218,46.0038842 11.6026144,47.8505322 9.49221288,50.2031746 C8.35309056,51.4724184 5.30681606,62.702297 4.66666666,65.3333334 L55.5980578,65.3333334 L55.5980578,65.3333334 Z" id="iconfont-touxiang" fill="#B8B8B8" fill-rule="nonzero" mask="url(#mask-3)"></path>
        </g>
    </g>
</svg>