<?xml version="1.0" encoding="UTF-8"?>
<svg width="100px" height="100px" viewBox="0 0 100 100" version="1.1" xmlns="http://www.w3.org/2000/svg" xmlns:xlink="http://www.w3.org/1999/xlink">
    <!-- Generator: Sketch 42 (36781) - http://www.bohemiancoding.com/sketch -->
    <title>icon-head-100</title>
    <desc>Created with Sketch.</desc>
    <defs>
        <rect id="path-1" x="0" y="0" width="100" height="100" rx="50"></rect>
        <mask id="mask-2" maskContentUnits="userSpaceOnUse" maskUnits="objectBoundingBox" x="0" y="0" width="100" height="100" fill="white">
            <use xlink:href="#path-1"></use>
        </mask>
        <mask id="mask-4" maskContentUnits="userSpaceOnUse" maskUnits="objectBoundingBox" x="0" y="0" width="100" height="100" fill="white">
            <use xlink:href="#path-1"></use>
        </mask>
    </defs>
    <g id="医生账户信息" stroke="none" stroke-width="1" fill="none" fill-rule="evenodd">
        <g id="Group-7">
            <mask id="mask-3" fill="white">
                <use xlink:href="#path-1"></use>
            </mask>
            <g id="Rectangle-5" stroke="#B8B8B8" mask="url(#mask-2)" stroke-width="4" fill="#F2F2F2">
                <use mask="url(#mask-4)" xlink:href="#path-1"></use>
            </g>
            <path d="M92.6634298,108.888889 C91.3557423,102.734143 88.8663554,92.3262994 88.8663554,92.3262994 C88.8663554,92.3262994 87.5362589,85.8720199 85.4295674,83.6719577 C81.7910987,79.8720199 59.1870526,76.6731404 58.2981637,69.8609399 C58.0563959,68.0095861 57.9829443,64.7673825 58.0515406,63.978089 C59.9043884,62.3066293 61.4008092,60.1493931 61.7605976,59.5317772 C62.2103953,58.7570495 63.1315282,56.5867414 63.8356676,53.8910675 C65.0066604,53.7525054 66.0678494,51.5845627 66.8488017,49.1953937 C67.6857765,46.6242141 67.0516029,44.3731092 65.8635543,43.9582944 C66.6766262,40.5488951 67.3604731,34.9893557 65.3670713,30.605291 C64.46399,28.6173669 66.5449113,24.6150016 62.7716153,20.2518519 C59.5372549,25.1071273 49.9861811,17.3462807 42.6230937,21.0620604 C39.5909119,22.5919701 38.3275444,24.8616246 37.8722689,27.0781201 C35.4461251,29.0306878 34.8527856,31.5103641 34.5313414,33.0315593 C33.6959851,36.9901027 33.567507,40.4680984 34.6519763,44.0814192 C33.654155,44.7330221 33.188671,46.8377218 33.9565515,49.1953937 C34.7356365,51.5845627 35.7981948,53.7515095 36.9673203,53.8910675 C37.6714597,56.5867414 38.594958,58.7570495 39.0442577,59.5317772 C39.4275755,60.1917211 41.1067538,62.6110177 43.1366324,64.3150949 L43.221662,64.3150949 C43.2187986,65.6460629 43.1326486,68.4724556 42.9517585,69.8609399 C42.0628696,76.6731404 19.3376906,79.750887 15.8203548,83.6719577 C13.9218176,85.7873638 8.84469343,104.503828 7.77777778,108.888889 L92.6634298,108.888889 L92.6634298,108.888889 Z" id="iconfont-touxiang" fill="#B8B8B8" mask="url(#mask-3)"></path>
        </g>
    </g>
</svg>