<?xml version="1.0" encoding="UTF-8"?>
<svg width="14px" height="14px" viewBox="0 0 14 14" version="1.1" xmlns="http://www.w3.org/2000/svg" xmlns:xlink="http://www.w3.org/1999/xlink">
    <!-- Generator: Sketch 42 (36781) - http://www.bohemiancoding.com/sketch -->
    <title>icon-introduction</title>
    <desc>Created with Sketch.</desc>
    <defs></defs>
    <g id="管理员模块" stroke="none" stroke-width="1" fill="none" fill-rule="evenodd">
        <path d="M7,0 C3.13471652,0 0,3.13559649 0,7.001965 C0,10.8683335 3.13471653,14.00393 7,14.00393 C10.8652835,14.00393 14,10.8683335 14,7.001965 C14,3.13559649 10.8652835,0 7,0 L7,0 L7,0 L7,0 Z M6.95498569,11.9017164 C6.3853068,11.9017164 5.92179556,11.4478163 5.92179556,10.8892262 C5.92179556,10.330717 6.38365401,9.87675209 6.95498569,9.87675209 C7.52456735,9.87675209 7.98806239,10.330717 7.98806239,10.8892262 C7.98806239,11.4478163 7.52620394,11.9017164 6.95498569,11.9017164 L6.95498569,11.9017164 L6.95498569,11.9017164 L6.95498569,11.9017164 Z M9.72918267,6.17301869 C9.52647246,6.49172451 9.09673006,6.92469955 8.43702257,7.47361331 C8.09585043,7.75688756 7.88348272,7.98544224 7.80137779,8.15930978 C7.71935388,8.33150785 7.68069148,8.6406183 7.68869619,9.08651144 L6.21795341,9.08651144 C6.21472884,8.87562392 6.21152047,8.74681575 6.21152047,8.70011934 C6.21152047,8.22368957 6.29033601,7.83258081 6.44803192,7.52512363 C6.60571162,7.21766645 6.92111963,6.87160085 7.39265177,6.48851525 C7.86416771,6.10379261 8.14734626,5.85269204 8.23912488,5.73360892 C8.38071416,5.5452997 8.45306437,5.33763765 8.45306437,5.11222739 C8.45306437,4.79838409 8.32602615,4.52960015 8.07496364,4.30427095 C7.82393353,4.08051396 7.48276139,3.96780073 7.05634077,3.96780073 C6.64437399,3.96780073 6.29997728,4.08531165 6.02323167,4.31874506 C5.74643745,4.55208122 5.5082732,5.06721668 5.4519324,5.38592248 C5.39881616,5.68694493 3.94896015,5.81411605 3.96663855,5.20404799 C3.98431695,4.59397994 4.30137775,3.932434 4.84526011,3.45277874 C5.38922348,2.97310727 6.1036838,2.73322293 6.98710171,2.73322293 C7.91728393,2.73322293 8.65585559,2.97631654 9.20620329,3.4623579 C9.75653477,3.9484641 10.0301368,4.513489 10.0301368,5.15892379 C10.0316924,5.51625421 9.93033731,5.85429665 9.72918267,6.17301869 L9.72918267,6.17301869 L9.72918267,6.17301869 L9.72918267,6.17301869 Z" id="Shape" fill="#20A0FF"></path>
    </g>
</svg>