<?xml version="1.0" encoding="UTF-8"?>
<svg width="100px" height="240px" viewBox="0 0 100 240" version="1.1" xmlns="http://www.w3.org/2000/svg" xmlns:xlink="http://www.w3.org/1999/xlink">
    <!-- Generator: Sketch 46.2 (44496) - http://www.bohemiancoding.com/sketch -->
    <title>img_female</title>
    <desc>Created with Sketch.</desc>
    <defs></defs>
    <g id="Page-1" stroke="none" stroke-width="1" fill="none" fill-rule="evenodd">
        <g id="img_female" transform="translate(1.000000, 0.000000)">
            <g id="Group-3" transform="translate(0.000000, -0.000000)" fill="#562307">
                <path d="M9.18955936,114 L89.492099,113.185068 C89.492099,113.185068 123.466868,-4.24660307e-14 46.8705995,-4.24660307e-14 C-27.8750044,-4.24660307e-14 9.18955936,114 9.18955936,114" id="Fill-1"></path>
            </g>
            <path d="M38.1840816,95.5229242 C36.6128584,93.0087453 33.3029462,92.2462384 30.791575,93.8162144 C30.4695727,94.0170038 22.8147851,98.8599701 15.6131402,108.238559 C9.15831882,116.644614 4.66260102,127.000666 3.04828,137.48606 C1.95728959,144.564195 0.0166565469,161.123161 7.70592245,165.737621 C15.5737364,170.459252 16.1906509,160.77763 14.9925316,155.738802 C19.8884434,160.094577 21.4966076,156.970639 19.1508551,152.395597 C15.7467434,145.757844 12.8450291,143.627383 14.430413,135.620444 C15.9080523,128.154281 19.3097013,121.131579 23.889152,115.083261 C29.8895993,107.157007 36.372742,102.986007 36.4903375,102.910249 C38.9924735,101.336578 39.7516107,98.0321758 38.1840816,95.5229242" id="Fill-4" fill="#FFB37F"></path>
            <path d="M96.9268537,150.379167 C96.7517371,147.077975 96.3029616,143.92569 96.0380899,141.546247 C94.6892526,129.428131 90.4456564,117.928413 82.8422064,108.223583 C75.5004899,98.8547187 67.696817,94.0170716 67.3685518,93.8152466 C64.8070792,92.2467955 61.4327894,93.0091772 59.8316337,95.5209141 C58.2342438,98.0277284 59.0068909,101.328921 61.5589487,102.902295 C61.6800867,102.975518 68.2880709,107.143081 74.4052266,115.061021 C78.8653649,120.833955 82.1122401,127.385268 83.7523106,134.452836 C85.1978072,140.685414 84.3554901,145.262165 81.3333164,150.829582 C79.3373637,154.50735 77.3100281,162.64619 84.0730439,156.750808 C82.8516213,161.784127 83.4805347,171.455113 91.5013773,166.7393 C96.5759928,163.754997 97.2670444,156.785881 96.9268537,150.379167" id="Fill-6" fill="#FFC695"></path>
            <path d="M68.9090742,95.1824858 C65.8237239,91.8384838 55.3165343,86.7911326 49.8026502,88.2623197 C44.2881411,86.7911326 33.7809515,91.8384838 30.6956011,95.1824858 C26.1397567,100.119343 23.0056607,108.652228 24.2899214,149 L49.7270319,149 L49.8782684,149 L77.8139065,149 C79.0994171,108.652228 73.4649187,100.119343 68.9090742,95.1824858" id="Fill-8" fill="#F29555"></path>
            <path d="M24.2891716,149 L77.6869652,149 C78.5263805,131.670445 77.5564915,120.395941 76.2114895,112.576502 C76.2114895,112.576502 72.0411099,107.610084 49.5834441,108.024573 C30.2468568,108.381976 24.8231799,112.576502 24.8231799,112.576502 C23.9984616,120.395941 23.7426866,131.806788 24.2891716,149 Z" id="Fill-10" fill="#F8F8F8"></path>
            <path d="M10,116 L20.0839489,123.531514 L24.0097562,117.571762 L21.5549449,138.18664 L35,139 L35,93 C35,93 20.2944513,96.2558806 10,116" id="Fill-12" fill="#7C9642"></path>
            <polygon id="Fill-14" fill="#95B64D" points="19.1000037 127 6 118.055979 9.89999634 113 23 121.943436"></polygon>
            <polygon id="Fill-16" fill="#95B64D" points="38 139 32 139 32 91.8452037 38 90"></polygon>
            <path d="M91,116 L80.9160511,123.531514 L76.9902438,117.571762 L79.4450551,138.18664 L66,139 L66,93 C66,93 80.7055487,96.2558806 91,116" id="Fill-18" fill="#7C9642"></path>
            <polygon id="Fill-20" fill="#95B64D" points="81.8999963 127 95 118.055979 91.1000037 113 78 121.943436"></polygon>
            <polygon id="Fill-22" fill="#95B64D" points="63 139 69 139 69 91.8452037 63 90"></polygon>
            <path d="M51,17.0543011 L51,17 C50.8313292,17.0075961 50.6625475,17.0158505 50.493672,17.0247633 C50.3292036,17.0158505 50.1646429,17.0075961 50,17 L50,17.0526785 C40.6911561,17.6141247 31.1484435,20.1727675 24.2279827,24.7597955 C13.6670593,31.7606959 9.78320456,46.3821165 11.3251453,57.5649871 C15.2027266,85.6910259 41.9129671,92.8674489 50,93.8952633 L50,94 C50.2276681,93.9934677 50.4549566,93.9841502 50.6818446,93.9720892 C50.7930877,93.9828447 50.8991969,93.9921278 51,94 L51,93.9533655 C69.8992582,92.7336085 85.9410296,72.5492373 86.8656651,57.5649871 C87.5595177,46.3035034 85.8239528,31.7606959 75.513863,24.7597955 C68.7642571,20.1771715 60.0372894,17.6190396 51,17.0543011 Z" id="Combined-Shape" fill="#FFC695"></path>
            <path d="M24,148 C24.6969686,155.180952 26.7717525,194.268857 36.251518,226 L43.6924643,226 L43.6924643,171.52381 L54.8817872,171.52381 L56.7482246,225.380952 L63.569092,225.380952 C70.9405894,194.479333 76.1542124,156.500762 77,148 L24,148 Z" id="Fill-28" fill="#FFB37F"></path>
            <path d="M43.3809524,226 L35.952381,226 C35.952381,226 26.0500952,229.583364 18,240 L44,240 L43.3809524,226 Z" id="Fill-30" fill="#9A1221"></path>
            <path d="M57,226 L64.8684211,226 C64.8684211,226 76.2322368,231.916273 80,240 L57,240 L57,226 Z" id="Fill-32" fill="#9A1221"></path>
            <path d="M74.4107855,177 C76.6053177,162.925693 77,148 77,148 L24.1002233,148 C23.6147456,157.513264 24.9834716,168.091849 26.2601668,177 L74.4107855,177 Z" id="Fill-34" fill="#23325F"></path>
            <path d="M35,58.0006166 C35,60.2093418 33.2094798,62 31.0009249,62 C28.7911368,62 27,60.2093418 27,58.0006166 C27,55.7906582 28.7911368,54 31.0009249,54 C33.2094798,54 35,55.7906582 35,58.0006166" id="Fill-36" fill="#333331"></path>
            <path d="M72,58.0006166 C72,60.2093418 70.2088632,62 67.9996917,62 C65.7911368,62 64,60.2093418 64,58.0006166 C64,55.7906582 65.7911368,54 67.9996917,54 C70.2088632,54 72,55.7906582 72,58.0006166" id="Fill-38" fill="#333331"></path>
            <path d="M54,67.9997 C54,69.6567343 52.6239687,71 50.9267652,71 L46.0732348,71 C44.375442,71 43,69.6567343 43,67.9997 C43,66.3432657 44.375442,65 46.0732348,65 L50.9267652,65 C52.6239687,65 54,66.3432657 54,67.9997" id="Fill-40" fill="#F29555"></path>
            <path d="M57.3740999,75.014497 C56.3603054,74.8876077 55.439911,75.607689 55.3044497,76.625929 C55.2333171,77.112859 54.4811669,80.9870467 49.0002433,81.2508265 C43.5193197,80.9870467 42.7671695,77.112859 42.6960369,76.625929 C42.5605756,75.607689 41.6401813,74.8876077 40.6263867,75.014497 C39.6088809,75.1426365 38.8876579,76.0802424 39.0144595,77.1084835 C39.3503292,79.8194148 41.8764653,84.6762134 48.8969464,84.9849983 L48.8969464,85 C48.9334405,84.9987499 48.9643677,84.9937493 49.0002433,84.9924992 C49.0361189,84.9937493 49.0670461,84.9987499 49.1035403,85 L49.1035403,84.9849983 C56.1240213,84.6762134 58.6501574,79.8194148 58.9854086,77.1084835 C59.1128288,76.0802424 58.3916058,75.1426365 57.3740999,75.014497" id="Fill-42" fill="#FF0000"></path>
            <path d="M31.2979022,33.1703051 C31.2979022,33.1703051 56.1994125,55.7308654 87.9488381,51.4626513 C87.9488381,51.4626513 91.0615269,10 48.7289594,10 C6.39639195,10 12.2781287,44.6030215 12.2781287,44.6030215 C12.2781287,44.6030215 20.0922226,42.9262231 31.2979022,33.1703051" id="Fill-44" fill="#74320A"></path>
            <polygon id="Fill-46" fill="#FF0000" points="32 29.9892332 24.1719027 13 16.1195845 23.7541397 15.875095 23.3982997 2 22.2378728 10.3436787 39 18.3275906 28.0655114"></polygon>
            <path d="M54,115.499382 C54,117.433122 52.4331216,119 50.5,119 C48.5668784,119 47,117.433122 47,115.499382 C47,113.566878 48.5668784,112 50.5,112 C52.4331216,112 54,113.566878 54,115.499382" id="Fill-48" fill="#280E0E"></path>
            <path d="M54,123.499382 C54,125.433122 52.4331216,127 50.5,127 C48.5668784,127 47,125.433122 47,123.499382 C47,121.566878 48.5668784,120 50.5,120 C52.4331216,120 54,121.566878 54,123.499382" id="Fill-50" fill="#280E0E"></path>
            <path d="M54,133.499382 C54,135.433122 52.4331216,137 50.5,137 C48.5668784,137 47,135.433122 47,133.499382 C47,131.566878 48.5668784,130 50.5,130 C52.4331216,130 54,131.566878 54,133.499382" id="Fill-52" fill="#280E0E"></path>
        </g>
    </g>
</svg>