<?xml version="1.0" encoding="UTF-8"?>
<svg width="100px" height="240px" viewBox="0 0 100 240" version="1.1" xmlns="http://www.w3.org/2000/svg" xmlns:xlink="http://www.w3.org/1999/xlink">
    <!-- Generator: Sketch 46.2 (44496) - http://www.bohemiancoding.com/sketch -->
    <title>img_male</title>
    <desc>Created with Sketch.</desc>
    <defs></defs>
    <g id="Page-1" stroke="none" stroke-width="1" fill="none" fill-rule="evenodd">
        <g id="img_male">
            <path d="M41.0736435,94.8976231 C42.8530219,97.7800979 41.9919538,101.576137 39.1511598,103.38354 C39.0171888,103.469842 31.6585277,108.262049 24.8473208,117.365022 C19.6486374,124.313537 15.787837,132.380275 14.1101548,140.956192 C12.3106809,150.153481 15.6039314,152.599516 19.4683855,160.224883 C22.1319724,165.480036 20.3063131,169.067719 14.747735,164.065306 C16.1087584,169.853063 15.4084555,180.97303 6.47685318,175.550205 C-2.25135685,170.250051 -0.0481430142,151.229786 1.18926177,143.098939 C3.0222285,131.055545 8.12591428,119.158864 15.4529095,109.502943 C23.6275758,98.7312653 32.3162035,93.1685081 32.6821879,92.937343 C35.5333341,91.1342551 39.2912204,92.0102168 41.0736435,94.8976231 Z" id="Fill-1" fill="#FFB37F"></path>
            <g id="Group-5" transform="translate(57.000000, 93.000000)" fill="#FFC695">
                <path d="M42.9172506,65.7940703 C42.7185982,62.0094994 42.2105182,58.3952219 41.9109924,55.6656094 C40.384277,41.7710209 35.5825808,28.5846562 26.9786392,17.4571817 C18.6711292,6.71271362 9.84068671,1.16680491 9.46937369,0.93503376 C6.57127555,-0.863805489 2.75293999,0.0104082541 0.940932441,2.89125608 C-0.866743117,5.76534134 0.00831790284,9.55052701 2.8958955,11.3536697 C3.03142475,11.4391238 10.509669,16.2177901 17.4315626,25.2968256 C22.4789442,31.9167508 26.1530866,39.4281035 28.008414,47.5321017 C29.6446667,54.6788913 28.6916299,59.9272477 25.271837,66.311713 C23.0130161,70.5284726 20.7189205,79.8607965 28.3723007,73.100702 C26.9897786,78.8722341 27.7014619,89.9615924 36.7775898,84.5546234 C42.5199457,81.1321565 43.3021785,73.1412773 42.9172506,65.7940703" id="Fill-3"></path>
            </g>
            <path d="M68.9728739,96.1824858 C65.9091764,92.8384838 55.4757256,87.7911326 49.9999171,89.2623197 C44.5247291,87.7911326 34.0912783,92.8384838 31.0275808,96.1824858 C26.5037091,101.119343 20.9087533,109.652228 22.1846216,150 L49.9248295,150 L50.0750047,150 L77.8152125,150 C79.0917014,109.652228 73.4967456,101.119343 68.9728739,96.1824858" id="Fill-6" fill="#F29555"></path>
            <path d="M38.12372,101.802815 C37.8735339,101.36484 37.6227192,100.927483 37.374419,100.488888 C35.6281451,98.0855899 34.0453094,95.5820767 32.5907098,93 C29.6840251,95.0185233 22.5142493,100.276649 15.9421495,108.695926 C8.37873454,118.385827 3.19969688,130.426196 1.30758591,142.511972 C1.15043384,143.51845 0.905877606,144.707724 0.740553625,146 C5.18418566,145.870092 9.47345412,145.936902 13.9258867,146 C13.8171374,144.373057 14.3767845,142.51599 14.8331541,140.248168 C16.56497,131.64207 20.5503466,123.546944 25.9167756,116.574595 C30.9877587,109.986402 36.3510446,105.648711 39,103.70937 C38.773701,103.203966 38.5505451,102.695469 38.3229889,102.190684 C38.2563564,102.061394 38.1903525,101.932105 38.12372,101.802815 Z" id="Fill-8" fill="#008185"></path>
            <path d="M70.4157196,96 C68.4949776,99.8213488 66.7094728,103.701488 65,107.616282 C67.7197009,109.963549 70.7718651,114.268862 74.1029378,118.636648 C79.1858617,125.300338 82.9561867,132.261843 84.8245788,140.419417 C85.3187866,142.575462 85.5195432,144.325676 85.9362123,146.123101 C90.2893541,146.258627 94.6456118,146.579806 99,147 C97.313586,133.483874 92.5223257,120.674465 84.1220397,109.815646 C79.0852335,103.30481 73.860217,98.6925812 70.4157196,96 Z" id="Fill-10" fill="#008185"></path>
            <path d="M68.2505437,94.4540573 C57.4373112,102.163188 42.3763554,102.986397 31.4619718,94 C31.3062116,94.1445846 31.1572776,94.2879388 31.0275808,94.4288319 C26.5037091,99.3219455 20.9087533,109.009732 22.1846216,149 L77.8152125,149 C79.0917014,109.009732 73.4967456,99.9371994 68.9728739,95.0440857 C68.6185349,94.6607826 68.7823624,94.8699689 68.2505437,94.4540573 Z" id="Fill-12" fill="#C9F5F9"></path>
            <path d="M22.1542937,149 L36,149 C33.7112865,131.465892 31.8771044,112.644369 30.8803468,95 C26.4943665,100.026465 19.4042556,109.554572 22.1542937,149 Z" id="Fill-14" fill="#00797E"></path>
            <polygon id="Fill-16" fill="#008B91" points="38.1501913 89 22 92.6875 32.8377709 148 39 148"></polygon>
            <path d="M67.3850756,94 C66.8834238,112.038579 65.3520654,130.012589 64,148 L77.9015352,148 C80.2962015,107.368882 73.7990971,100.033571 69.3229132,95.1890489 C68.9735376,94.8107706 67.9094461,94.4099539 67.3850756,94 Z" id="Fill-18" fill="#00797E"></path>
            <polygon id="Fill-20" fill="#008B91" points="61.8498087 89 78 92.6875 67.1622291 148 61 148"></polygon>
            <path d="M93.9014296,55.4689653 C94.6099676,61.2390443 91.4227854,66.3787368 86.7832243,66.9484377 C82.1430438,67.5181386 77.8075843,63.3017329 77.0984269,57.5310347 C76.3905083,51.7609557 79.5770711,46.6206439 84.2172516,46.0515623 C88.857432,45.4818614 93.1928916,49.6982671 93.9014296,55.4689653" id="Fill-22" fill="#FFB37F"></path>
            <path d="M20.9979031,56.3508316 C21.1011343,62.1495609 17.3798371,66.916156 12.6865501,66.9989244 C7.99326303,67.0810751 4.10530348,62.4472801 4.00207231,56.6491684 C3.89946301,50.8510568 7.62013831,46.083844 12.3134254,46.0010756 C17.0067124,45.9189249 20.894672,50.5527199 20.9979031,56.3508316" id="Fill-24" fill="#F29555"></path>
            <path d="M50,18.0542961 L50,18 C49.8350659,18.007768 49.6700206,18.0162243 49.5048815,18.0253691 C49.3366794,18.0162244 49.1683829,18.007768 49,18 L49,18.0554543 C40.1125925,18.6225157 31.0056678,21.1802631 24.398678,25.7597331 C14.2995661,32.7605772 11.5394998,47.2946019 12.06006,58.564661 C13.6032736,91.9976319 39.3436291,94.1687364 49,94.9211093 L49,94.9974562 C49.3298385,95.000488 49.6567925,95.0008024 49.9808866,94.9984387 C49.9872678,94.9989593 49.9936389,94.9994797 50,95 C78.6413069,94.7800213 84.9355114,73.6366864 85.8656685,58.5633209 C86.5595095,47.3029187 84.8239737,32.7600896 74.5134347,25.7594768 C67.763931,21.1770334 59.0376709,18.6190057 50,18.0542961 Z" id="Combined-Shape" fill="#FFC695"></path>
            <path d="M22,149 C22.6909424,156.180952 26.5913247,195.268857 35.9891251,227 L45.8246043,227 L43.980452,172.52381 L55.0730284,172.52381 L53.235638,226.380952 L63.0711172,226.380952 C72.222416,195.479333 76.1621401,157.500762 77,149 L22,149 Z" id="Fill-30" fill="#FFB37F"></path>
            <path d="M46.3825089,226 L36.5026506,226 C36.5026506,226 19.8303899,234.909091 21.0653721,240 L47,240 L46.3825089,226 Z" id="Fill-32" fill="#17242B"></path>
            <path d="M53.6174911,226 L63.4973494,226 C63.4973494,226 80.1696101,234.909091 78.9346279,240 L53,240 L53.6174911,226 Z" id="Fill-34" fill="#17242B"></path>
            <path d="M39,239 L47,239 L46.4922523,228 C42.8290812,230.602926 40.490061,234.718522 39,239" id="Fill-36" fill="#4198C4"></path>
            <path d="M61,239 L53,239 L53.5077477,228 C57.1709188,230.602926 59.509939,234.718522 61,239" id="Fill-38" fill="#4198C4"></path>
            <path d="M22,149 C22.6909424,156.180952 26.5913247,195.268857 35.9891251,227 L45.8246043,227 L43.980452,172.52381 L55.0730284,172.52381 L53.235638,226.380952 L63.0711172,226.380952 C72.222416,195.479333 76.1621401,157.500762 77,149 L22,149 Z" id="Fill-40" fill="#00213B"></path>
            <path d="M35,58 C35,60.2093418 33.2094798,62 31.0003083,62 C28.7911368,62 27,60.2093418 27,58 C27,55.7906582 28.7911368,54 31.0003083,54 C33.2094798,54 35,55.7906582 35,58" id="Fill-42" fill="#333331"></path>
            <path d="M72,58 C72,60.2093418 70.2088632,62 68.0003083,62 C65.7911368,62 64,60.2093418 64,58 C64,55.7906582 65.7911368,54 68.0003083,54 C70.2088632,54 72,55.7906582 72,58" id="Fill-44" fill="#333331"></path>
            <path d="M55,67 C55,69.2093794 53.6240424,71 51.9269299,71 L47.0736594,71 C45.3759576,71 44,69.2093794 44,67 C44,64.7906206 45.3759576,63 47.0736594,63 L51.9269299,63 C53.6240424,63 55,64.7906206 55,67" id="Fill-46" fill="#F29555"></path>
            <path d="M58.3741706,75.014497 C57.360338,74.8876077 56.4399092,75.607689 56.3050614,76.625929 C56.2333075,77.112859 55.4811291,80.9870467 50,81.2508265 C44.5188709,80.9870467 43.7666925,77.112859 43.6949386,76.625929 C43.5600908,75.607689 42.639662,74.8876077 41.6258294,75.014497 C40.608904,75.1426365 39.8876539,76.0802424 40.0144603,77.1084835 C40.3497241,79.8194148 42.8759549,84.6762134 49.8966992,84.9849983 L49.8966992,85 C49.9325761,84.9987499 49.9641231,84.9937493 50,84.9924992 C50.0358769,84.9937493 50.0674239,84.9987499 50.1033008,85 L50.1033008,84.9849983 C57.1240451,84.6762134 59.6502759,79.8194148 59.9855397,77.1084835 C60.1123461,76.0802424 59.391096,75.1426365 58.3741706,75.014497" id="Fill-48" fill="#F29555"></path>
            <path d="M22.516857,236 C21.4028922,237.433333 20.7909525,238.815333 21.0651212,240 L47,240 L46.8314233,236 L22.516857,236 Z" id="Fill-50" fill="#706966"></path>
            <path d="M53.1407848,237 L53,240 L78.9346572,240 C79.1662111,239.1 78.7679383,238.0734 77.9683054,237 L53.1407848,237 Z" id="Fill-52" fill="#706966"></path>
            <polygon id="Fill-54" fill="#265973" points="34 228 48 228 48 222 34 222"></polygon>
            <polygon id="Fill-56" fill="#265973" points="52 228 66 228 66 222 52 222"></polygon>
            <path d="M87.9595836,37.3245606 C87.8448387,34.2160517 87.3095693,30.6473024 86.3178013,27.6834045 C83.7158835,19.917791 78.0201954,14.0214325 70.1673034,11.4530144 C63.8600561,9.38884883 36.106059,9.58627435 29.7988116,11.6498112 C21.9459197,14.218858 16.2496113,20.1152165 13.6483137,27.8802013 C12.6559255,30.8440992 12.1206561,34.4128484 12.0059112,37.5213573 C11.8849639,40.8140881 13.6600983,48 13.6600983,48 C15.727367,35.8444979 21.4553077,32.9598217 30.1901847,33.7488951 C37.5388195,34.4128484 42.5987589,38.2783648 50.3989302,37.8772263 C57.7345398,37.9709091 62.6791141,33.9406619 69.7753101,33.5520983 C81.4730861,32.910151 87.1328002,47.3844599 87.1328002,47.3844599 C87.9645455,44.1219088 88.0805309,41.1693283 87.9595836,37.8772263" id="Fill-57" fill="#3A2C24"></path>
            <path d="M14,26.4503133 C17.5635998,16.0059376 23.8762622,7.5879482 32.7075035,3.72724316 C39.6545838,0.690226404 48.7893787,3.86646907 56.4409143,0.550907982 C60.8384983,-1.35503673 71.1404468,2.02255536 75.2631818,5.51299716 C84.8729475,13.648142 83.4120391,17.9810549 87,30 L14,26.4503133 Z" id="Fill-58" fill="#3A2C24"></path>
            <polygon id="Fill-59" fill="#00797E" points="22 155 78 155 78 147 22 147"></polygon>
        </g>
    </g>
</svg>