<?xml version="1.0" encoding="UTF-8"?>
<svg width="50px" height="50px" viewBox="0 0 50 50" version="1.1" xmlns="http://www.w3.org/2000/svg" xmlns:xlink="http://www.w3.org/1999/xlink">
    <!-- Generator: Sketch 43.2 (39069) - http://www.bohemiancoding.com/sketch -->
    <title>icon_user_data_bloodpressure_diastolic</title>
    <desc>Created with Sketch.</desc>
    <defs></defs>
    <g id="管理员模块" stroke="none" stroke-width="1" fill="none" fill-rule="evenodd">
        <g id="Group-5-Copy-2" transform="translate(5.000000, 6.000000)">
            <path d="M39.6452551,30.1216718 C36.232261,35.1658053 30.6443197,38.7401251 30.6443197,38.7401251 C29.9756406,39.3248437 29.3556803,38.7401251 29.3556803,38.7401251 C29.3556803,38.7401251 23.767739,35.1658053 20.3547449,30.1216718 C16.9417508,25.0775383 20.58897,20 24.5373357,20 C28.4857014,20 30.0248948,22.9730323 30.0248948,22.9730323 C30.0248948,22.9730323 31.5142986,20 35.4626643,20 C39.41103,20 43.0582492,25.0775383 39.6452551,30.1216718 Z" id="Page-1-Copy" fill="#20A0FF"></path>
            <path d="M19.1650635,20.4461524 C20.5457754,20.4461524 21.6650635,19.3076212 21.6650635,17.9031718 C21.6650635,16.4987225 19.1650635,8.44615242 19.1650635,8.44615242 C19.1650635,8.44615242 16.6650635,16.4987225 16.6650635,17.9031718 C16.6650635,19.3076212 17.7843516,20.4461524 19.1650635,20.4461524 Z" id="Oval-455-Copy" fill="#20A0FF" transform="translate(19.165064, 14.446152) rotate(-330.000000) translate(-19.165064, -14.446152) "></path>
            <path d="M34.8278224,15.0330055 C33.6295278,6.53589104 26.3284122,0 17.5,0 C7.835,0 0,7.835 0,17.5 C0,27.165 7.835,35 17.5,35" id="Page-1-Copy-2" stroke="#20A0FF" stroke-width="4" stroke-linecap="round"></path>
        </g>
    </g>
</svg>