<?xml version="1.0" encoding="UTF-8"?>
<svg width="24px" height="24px" viewBox="0 0 24 24" version="1.1" xmlns="http://www.w3.org/2000/svg" xmlns:xlink="http://www.w3.org/1999/xlink">
    <!-- Generator: Sketch 41.2 (35397) - http://www.bohemiancoding.com/sketch -->
    <title>icon-remarks</title>
    <desc>Created with Sketch.</desc>
    <defs></defs>
    <g id="用户详情" stroke="none" stroke-width="1" fill="none" fill-rule="evenodd">
        <path d="M2,20.5 C2,19.6715729 2.66543579,19 3.5032506,19 L20.4967494,19 C21.3269718,19 22,19.6657972 22,20.5 C22,21.3284271 21.3345642,22 20.4967494,22 L3.5032506,22 C2.67302822,22 2,21.3342028 2,20.5 Z M5.03687778,13.6551272 L3.66666667,18.6666667 L8.66338093,17.2770929 L16.5548447,9.39608581 L12.8842291,5.81854052 L5.03687778,13.6551272 L5.03687778,13.6551272 Z M15.9562258,2.75004198 L13.9902967,4.71363731 L17.6731584,8.27965801 L19.5820424,6.37258173 C20.5837636,5.37197382 20.5837636,3.7505395 19.5820424,2.75004198 C18.5805427,1.74998601 16.956574,1.74998601 15.9562258,2.75004198 Z" id="Combined-Shape" fill="#666666"></path>
    </g>
</svg>