<?xml version="1.0" encoding="UTF-8"?>
<svg width="24px" height="24px" viewBox="0 0 24 24" version="1.1" xmlns="http://www.w3.org/2000/svg" xmlns:xlink="http://www.w3.org/1999/xlink">
    <!-- Generator: Sketch 41.2 (35397) - http://www.bohemiancoding.com/sketch -->
    <title>icon-message -history</title>
    <desc>Created with Sketch.</desc>
    <defs></defs>
    <g id="对话" stroke="none" stroke-width="1" fill="none" fill-rule="evenodd">
        <path d="M12,22 C6.47693181,22 2,17.5219783 2,11.9996932 C2,6.47740806 6.47693181,2 12,2 C17.5224546,2 22,6.47740808 22,11.9996932 C22,17.5219783 17.5224545,22 12,22 L12,22 Z M12,4.14285714 C7.66063737,4.14285714 4.14285714,7.66050453 4.14285714,11.9997033 C4.14285714,16.3389021 7.66063737,19.8571429 12,19.8571429 C16.3393626,19.8571429 19.8571429,16.3389021 19.8571429,11.9997033 C19.8571429,7.66050453 16.3393846,4.14285714 12,4.14285714 L12,4.14285714 Z M12.0159258,13.3197384 C11.4983576,13.3197384 11.0784258,12.8998195 11.0784258,12.3822672 L11.0784257,7.9259966 C11.0784257,7.4084443 11.4983576,6.98852536 12.0159257,6.98852536 C12.5334939,6.98852536 12.9534257,7.4084443 12.9534257,7.9259966 L12.9534258,11.444796 L16.0784258,11.444796 C16.5959939,11.444796 17.0159258,11.8647149 17.0159258,12.3822672 C17.0159258,12.8998195 16.5960167,13.3197384 16.0784258,13.3197384 L12.0159258,13.3197384 Z" id="el-icon-time" fill="#666666"></path>
    </g>
</svg>