<?xml version="1.0" encoding="UTF-8"?>
<svg width="20px" height="20px" viewBox="0 0 20 20" version="1.1" xmlns="http://www.w3.org/2000/svg" xmlns:xlink="http://www.w3.org/1999/xlink">
    <!-- Generator: Sketch 41.2 (35397) - http://www.bohemiancoding.com/sketch -->
    <title>icon-message-error</title>
    <desc>Created with Sketch.</desc>
    <defs></defs>
    <g id="对话" stroke="none" stroke-width="1" fill="none" fill-rule="evenodd">
        <path d="M10,0 C8.62178769,0 7.32372308,0.260415385 6.10576923,0.781249231 C4.88781538,1.30208615 3.82612615,2.01521846 2.92067323,2.92067385 C2.01521969,3.82612615 1.30208585,4.88781538 0.781249846,6.10576923 C0.260414062,7.32372308 0,8.62178769 0,10 C0,11.3782123 0.260414062,12.6762769 0.781249846,13.8942308 C1.30208585,15.1121846 2.01521969,16.1738738 2.92067323,17.0793268 C3.82612615,17.9847803 4.88781538,18.6979142 6.10576923,19.2187502 C7.32372308,19.7395859 8.62178769,20 10,20 C11.3782123,20 12.6762769,19.7395859 13.8942308,19.2187502 C15.1121846,18.6979142 16.1738738,17.9847803 17.0793262,17.0793268 C17.9847815,16.1738738 18.6979138,15.1121846 19.2187508,13.8942308 C19.7395846,12.6762769 20,11.3782123 20,10 C20,8.62178769 19.7395846,7.32372308 19.2187508,6.10576923 C18.6979138,4.88781538 17.9847815,3.82612615 17.0793262,2.92067385 C16.1738738,2.01521846 15.1121846,1.30208615 13.8942308,0.781249231 C12.6762769,0.260415385 11.3782123,0 10,0 L10,0 Z M10,15.6730769 C9.67948615,15.6730769 9.40705231,15.5608985 9.18269231,15.3365385 C8.95833231,15.1121785 8.84615385,14.8397446 8.84615385,14.5192308 C8.84615385,14.1987169 8.95833231,13.9262831 9.18269231,13.7019231 C9.40705231,13.4775631 9.67948615,13.3653846 10,13.3653846 C10.3205138,13.3653846 10.5929477,13.4775631 10.8173077,13.7019231 C11.0416677,13.9262831 11.1538462,14.1987169 11.1538462,14.5192308 C11.1538462,14.8397446 11.0416677,15.1121785 10.8173077,15.3365385 C10.5929477,15.5608985 10.3205138,15.6730769 10,15.6730769 L10,15.6730769 Z M11.1538462,10.6730769 C11.1538462,10.9935908 11.0416677,11.2660246 10.8173077,11.4903846 C10.5929477,11.7147446 10.3205138,11.8269231 10,11.8269231 C9.67948615,11.8269231 9.40705231,11.7147446 9.18269231,11.4903846 C8.95833231,11.2660246 8.84615385,10.9935908 8.84615385,10.6730769 L8.84615385,5.28846154 C8.84615385,4.96794769 8.95833231,4.69551385 9.18269231,4.47115385 C9.40705231,4.24679385 9.67948615,4.13461538 10,4.13461538 C10.3205138,4.13461538 10.5929477,4.24679385 10.8173077,4.47115385 C11.0416677,4.69551385 11.1538462,4.96794769 11.1538462,5.28846154 L11.1538462,10.6730769 Z" id="el-icon-warning" fill="#FF4949"></path>
    </g>
</svg>