<?xml version="1.0" encoding="UTF-8"?>
<svg width="24px" height="24px" viewBox="0 0 24 24" version="1.1" xmlns="http://www.w3.org/2000/svg" xmlns:xlink="http://www.w3.org/1999/xlink">
    <!-- Generator: Sketch 41.2 (35397) - http://www.bohemiancoding.com/sketch -->
    <title>icon-message-picture</title>
    <desc>Created with Sketch.</desc>
    <defs></defs>
    <g id="对话" stroke="none" stroke-width="1" fill="none" fill-rule="evenodd">
        <path d="M1.70678083,2 C0.764151808,2 0,2.75960159 0,3.70518875 L0,20.2948112 C0,21.236561 0.771340728,22 1.70678084,22 L22.2932192,22 C23.2358482,22 24,21.2403984 24,20.2948112 L24,3.70518875 C24,2.76343901 23.2286593,2 22.2932191,2 L1.70678083,2 Z M17.4169632,10.8993506 C17.4169632,10.8993506 17.1436558,10.3786677 16.1828688,10.3786677 C15.092734,10.3786677 14.7649858,10.8832561 14.7649858,10.8832561 L10.6418363,17.4110855 C10.6418363,17.4110855 10.4175471,17.8484414 9.86730913,17.8484414 C9.2913504,17.8484414 9.01626742,17.4110855 9.01626742,17.4110855 L6.84801853,14.8690959 C6.84801853,14.8690959 6.2924301,14.114502 5.57054423,14.114502 C4.85153755,14.114502 4.25432077,14.9494944 4.25432077,14.9494944 L2.57142859,17 L2.57142859,5.35917564 C2.57142859,4.88466605 2.94810717,4.50000002 3.43068145,4.50000002 L20.5693186,4.50000002 C21.0438708,4.50000002 21.4285715,4.8881709 21.4285715,5.35787788 L21.4285715,16.1666667 L17.4169632,10.8993506 Z M11.1428571,9.49950315 C11.1428571,10.8809644 9.99185709,12 8.57184669,12 C7.15185951,12 6,10.8800611 6,9.49950315 C6,8.11989377 7.15188274,7 8.57184669,7 C9.99185709,7.00083561 11.1428571,8.11989377 11.1428571,9.49950315 L11.1428571,9.49950315 L11.1428571,9.49950315 Z" id="el-icon-picture" fill="#666666"></path>
    </g>
</svg>