<?xml version="1.0" encoding="UTF-8"?>
<svg width="50px" height="50px" viewBox="0 0 50 50" version="1.1" xmlns="http://www.w3.org/2000/svg" xmlns:xlink="http://www.w3.org/1999/xlink">
    <!-- Generator: Sketch 41.2 (35397) - http://www.bohemiancoding.com/sketch -->
    <title>icon-data-收缩压</title>
    <desc>Created with Sketch.</desc>
    <defs></defs>
    <g id="用户详情" stroke="none" stroke-width="1" fill="none" fill-rule="evenodd">
        <g id="Group-18" transform="translate(5.000000, 6.000000)">
            <g id="Group-26">
                <g id="Group-20">
                    <path d="M39.6452551,30.1216718 C36.232261,35.1658053 30.6443197,38.7401251 30.6443197,38.7401251 C29.9756406,39.3248437 29.3556803,38.7401251 29.3556803,38.7401251 C29.3556803,38.7401251 23.767739,35.1658053 20.3547449,30.1216718 C16.9417508,25.0775383 20.58897,20 24.5373357,20 C28.4857014,20 30.0248948,22.9730323 30.0248948,22.9730323 C30.0248948,22.9730323 31.5142986,20 35.4626643,20 C39.41103,20 43.0582492,25.0775383 39.6452551,30.1216718 Z" id="Page-1-Copy-3" fill="#35BF32"></path>
                    <path d="M14,23.5 C15.3807119,23.5 16.5,22.3614688 16.5,20.9570194 C16.5,19.55257 14,11.5 14,11.5 C14,11.5 11.5,19.55257 11.5,20.9570194 C11.5,22.3614688 12.6192881,23.5 14,23.5 Z" id="Oval-455-Copy-2" fill="#35BF32" transform="translate(14.000000, 17.500000) rotate(-90.000000) translate(-14.000000, -17.500000) "></path>
                    <path d="M34.8278224,15.0330055 C33.6295278,6.53589104 26.3284122,0 17.5,0 C7.835,0 0,7.835 0,17.5 C0,27.165 7.835,35 17.5,35" id="Page-1-Copy-4" stroke="#35BF32" stroke-width="4" stroke-linecap="round"></path>
                </g>
            </g>
        </g>
    </g>
</svg>