<?xml version="1.0" encoding="UTF-8"?>
<svg width="14px" height="14px" viewBox="0 0 14 14" version="1.1" xmlns="http://www.w3.org/2000/svg" xmlns:xlink="http://www.w3.org/1999/xlink">
  <!-- Generator: Sketch 41.2 (35397) - http://www.bohemiancoding.com/sketch -->
  <title>icon-Explain of blood pressure</title>
  <desc>Created with Sketch.</desc>
  <defs></defs>
  <g id="用户详情" stroke="none" stroke-width="1" fill="none" fill-rule="evenodd">
    <path d="M7,0 C6.03525138,0 5.12660615,0.182290769 4.27403846,0.546874462 C3.42147077,0.911460308 2.67828831,1.41065292 2.04447126,2.04447169 C1.41065378,2.67828831 0.911460092,3.42147077 0.546874892,4.27403846 C0.182289843,5.12660615 0,6.03525138 0,7 C0,7.96474862 0.182289843,8.87339385 0.546874892,9.72596154 C0.911460092,10.5785292 1.41065378,11.3217117 2.04447126,11.9555287 C2.67828831,12.5893462 3.42147077,13.0885399 4.27403846,13.4531251 C5.12660615,13.8177102 6.03525138,14 7,14 C7.96474862,14 8.87339385,13.8177102 9.72596154,13.4531251 C10.5785292,13.0885399 11.3217117,12.5893462 11.9555283,11.9555287 C12.5893471,11.3217117 13.0885397,10.5785292 13.4531255,9.72596154 C13.8177092,8.87339385 14,7.96474862 14,7 C14,6.03525138 13.8177092,5.12660615 13.4531255,4.27403846 C13.0885397,3.42147077 12.5893471,2.67828831 11.9555283,2.04447169 C11.3217117,1.41065292 10.5785292,0.911460308 9.72596154,0.546874462 C8.87339385,0.182290769 7.96474862,0 7,0 L7,0 Z M7,11 C6.72222133,11 6.486112,10.9027787 6.29166667,10.7083333 C6.09722133,10.513888 6,10.2777787 6,10 C6,9.72222133 6.09722133,9.486112 6.29166667,9.29166667 C6.486112,9.09722133 6.72222133,9 7,9 C7.27777867,9 7.513888,9.09722133 7.70833333,9.29166667 C7.90277867,9.486112 8,9.72222133 8,10 C8,10.2777787 7.90277867,10.513888 7.70833333,10.7083333 C7.513888,10.9027787 7.27777867,11 7,11 L7,11 Z M7.80769231,7.23413462 C7.80769231,7.44687568 7.72916738,7.62770365 7.57211538,7.7766226 C7.41506338,7.92554155 7.22435969,8 7,8 C6.77564031,8 6.58493662,7.92554155 6.42788462,7.7766226 C6.27083262,7.62770365 6.19230769,7.44687568 6.19230769,7.23413462 L6.19230769,3.66009615 C6.19230769,3.44735509 6.27083262,3.26652712 6.42788462,3.11760817 C6.58493662,2.96868922 6.77564031,2.89423077 7,2.89423077 C7.22435969,2.89423077 7.41506338,2.96868922 7.57211538,3.11760817 C7.72916738,3.26652712 7.80769231,3.44735509 7.80769231,3.66009615 L7.80769231,7.23413462 Z" id="el-icon-information" fill="#F7BA2A" transform="translate(7.000000, 7.000000) scale(1, -1) translate(-7.000000, -7.000000) "></path>
  </g>
</svg>
