<?xml version="1.0" encoding="UTF-8"?>
<svg width="40px" height="40px" viewBox="0 0 40 40" version="1.1" xmlns="http://www.w3.org/2000/svg" xmlns:xlink="http://www.w3.org/1999/xlink">
    <!-- Generator: Sketch 43.1 (39012) - http://www.bohemiancoding.com/sketch -->
    <title>icon_home_group</title>
    <desc>Created with Sketch.</desc>
    <defs></defs>
    <g id="医生模块" stroke="none" stroke-width="1" fill="none" fill-rule="evenodd">
        <g id="设备">
            <circle id="Oval" fill="#FFD570" cx="20" cy="20" r="20"></circle>
            <path d="M20.9867241,23.1660486 C22.1588461,23.5741132 23,24.6888256 23,26 C23,27.6568542 21.6568542,29 20,29 C18.3431458,29 17,27.6568542 17,26 C17,24.6887925 17.8411963,23.5740569 19.0133646,23.1660177 C19.0045729,23.1128035 19,23.0581653 19,23.0024554 L19,15.9975446 C19,15.446616 19.4438648,15 20,15 C20.5522847,15 21,15.4463114 21,15.9975446 L21,23.0024554 C21,23.0581713 20.9954604,23.1128204 20.9867241,23.1660486 Z M28.9873691,23.1662732 C30.1591547,23.5745221 31,24.6890661 31,26 C31,27.6568542 29.6568542,29 28,29 C26.3431458,29 25,27.6568542 25,26 C25,24.6890661 25.8408453,23.5745221 27.0126309,23.1662732 C27.0043187,23.1143735 27,23.06114 27,23.0068977 L27,16.9931023 C27,15.3399586 25.6588983,14 24.0037973,14 C23.4515125,14 23.0037973,13.5522847 23.0037973,13 C23.0037973,12.4477153 23.4515125,12 24.0037973,12 C26.7630861,12 29,14.2350071 29,16.9931023 L29,23.0068977 C29,23.06114 28.9956813,23.1143735 28.9873691,23.1662732 Z M12.9873691,23.1662732 C14.1591547,23.5745221 15,24.6890661 15,26 C15,27.6568542 13.6568542,29 12,29 C10.3431458,29 9,27.6568542 9,26 C9,24.6890661 9.84084534,23.5745221 11.0126309,23.1662732 C11.0043187,23.1143735 11,23.06114 11,23.0068977 L11,16.9931023 C11,14.2352129 13.2368207,12 15.9962027,12 C16.5484875,12 16.9962027,12.4477153 16.9962027,13 C16.9962027,13.5522847 16.5484875,14 15.9962027,14 C14.3410684,14 13,15.3401045 13,16.9931023 L13,23.0068977 C13,23.06114 12.9956813,23.1143735 12.9873691,23.1662732 Z M20,14 C18.8954305,14 18,13.1045695 18,12 C18,10.8954305 18.8954305,10 20,10 C21.1045695,10 22,10.8954305 22,12 C22,13.1045695 21.1045695,14 20,14 Z M12,27 C12.5522847,27 13,26.5522847 13,26 C13,25.4477153 12.5522847,25 12,25 C11.4477153,25 11,25.4477153 11,26 C11,26.5522847 11.4477153,27 12,27 Z M28,27 C28.5522847,27 29,26.5522847 29,26 C29,25.4477153 28.5522847,25 28,25 C27.4477153,25 27,25.4477153 27,26 C27,26.5522847 27.4477153,27 28,27 Z M20,27 C20.5522847,27 21,26.5522847 21,26 C21,25.4477153 20.5522847,25 20,25 C19.4477153,25 19,25.4477153 19,26 C19,26.5522847 19.4477153,27 20,27 Z" id="Combined-Shape" fill="#FFFFFF"></path>
        </g>
    </g>
</svg>