<?xml version="1.0" encoding="UTF-8"?>
<svg width="40px" height="40px" viewBox="0 0 40 40" version="1.1" xmlns="http://www.w3.org/2000/svg" xmlns:xlink="http://www.w3.org/1999/xlink">
    <!-- Generator: Sketch 43.1 (39012) - http://www.bohemiancoding.com/sketch -->
    <title>icon_home_abnormal_data</title>
    <desc>Created with Sketch.</desc>
    <defs></defs>
    <g id="医生模块" stroke="none" stroke-width="1" fill="none" fill-rule="evenodd">
        <g id="设备">
            <circle id="Combined-Shape" fill="#20A0FF" cx="20" cy="20" r="20"></circle>
            <path d="M18.0716079,12.0232634 L11.0694885,24.1571456 C10.0517629,25.9207491 10.9619432,27.5 12.9988684,27.5 L27.0031073,27.5 C29.0388717,27.5 29.950793,25.9217546 28.9324873,24.1571456 L21.9303678,12.0232634 C20.9125292,10.259464 19.090027,10.2584582 18.0716079,12.0232634 Z" id="Triangle-7" stroke="#FFFFFF"></path>
            <ellipse id="Oval-3" fill="#FFFFFF" cx="20" cy="24.0005061" rx="1" ry="1.00050609"></ellipse>
            <path d="M19.0076967,15.9880824 C18.96608,15.4423796 19.3851961,15 19.9250028,15 L20.0750347,15 C20.6232656,15 21.0343005,15.4378814 20.9923408,15.9880824 L20.5722489,21.4965773 C20.5510454,21.77461 20.3074301,22 20.0250343,22 L19.9750033,22 C19.6939884,22 19.4484191,21.7670975 19.4277886,21.4965773 L19.0076967,15.9880824 Z" id="Rectangle-25" fill="#FFFFFF"></path>
        </g>
    </g>
</svg>