<?xml version="1.0" encoding="UTF-8"?>
<svg width="40px" height="40px" viewBox="0 0 40 40" version="1.1" xmlns="http://www.w3.org/2000/svg" xmlns:xlink="http://www.w3.org/1999/xlink">
    <!-- Generator: Sketch 43.1 (39012) - http://www.bohemiancoding.com/sketch -->
    <title>icon-home_notread-dialogue</title>
    <desc>Created with Sketch.</desc>
    <defs></defs>
    <g id="医生模块" stroke="none" stroke-width="1" fill="none" fill-rule="evenodd">
        <g id="设备">
            <circle id="Oval" fill="#20A0FF" cx="20" cy="20" r="20"></circle>
            <path d="M22.2071068,27.5 L27.0049107,27.5 C28.3832751,27.5 29.5,26.3836156 29.5,25.0059397 L29.5,12.9940603 C29.5,11.6177793 28.3823185,10.5 27.0049107,10.5 L12.9950893,10.5 C11.6167249,10.5 10.5,11.6163844 10.5,12.9940603 L10.5,25.0059397 C10.5,26.3822207 11.6176815,27.5 12.9950893,27.5 L17.7928932,27.5 L18.9405346,28.6476413 C19.5262453,29.2333521 20.4727467,29.2343601 21.0594654,28.6476413 L22.2071068,27.5 Z" id="Combined-Shape" stroke="#FFFFFF"></path>
            <circle id="Oval-15" fill="#FFFFFF" cx="15" cy="19" r="1"></circle>
            <circle id="Oval-15-Copy" fill="#FFFFFF" cx="20" cy="19" r="1"></circle>
            <circle id="Oval-15-Copy-2" fill="#FFFFFF" cx="25" cy="19" r="1"></circle>
        </g>
    </g>
</svg>