<?xml version="1.0" encoding="UTF-8"?>
<svg width="40px" height="40px" viewBox="0 0 40 40" version="1.1" xmlns="http://www.w3.org/2000/svg" xmlns:xlink="http://www.w3.org/1999/xlink">
    <!-- Generator: Sketch 43.1 (39012) - http://www.bohemiancoding.com/sketch -->
    <title>icon_home_associated_application</title>
    <desc>Created with Sketch.</desc>
    <defs></defs>
    <g id="医生模块" stroke="none" stroke-width="1" fill="none" fill-rule="evenodd">
        <g id="设备">
            <circle id="Oval" fill="#20A0FF" cx="20" cy="20" r="20"></circle>
            <g id="Group-24" transform="translate(10.000000, 10.000000)">
                <rect id="Rectangle-24" stroke="#FFFFFF" x="-0.5" y="-0.5" width="21" height="21" rx="10.5"></rect>
                <path d="M11.2595624,8.95436297 C11.0030452,8.72339383 10.9823343,8.32820805 11.2133035,8.07169083 C11.4442726,7.81517361 11.8394584,7.7944628 12.0959756,8.02543194 C13.6553208,9.42947264 14.0495214,11.6144913 12.8673549,12.9274202 L10.4143641,15.6517425 C9.23276466,16.9640416 7.01612228,16.7993871 5.45859832,15.3969863 C3.89966843,13.9933195 3.50658985,11.8062196 4.68880325,10.4932386 C4.91977239,10.2367213 5.31495817,10.2160105 5.5714754,10.4469797 C5.82799262,10.6779488 5.84870343,11.0731346 5.61773428,11.3296518 C4.95049781,12.070693 5.20496875,13.4865762 6.29501158,14.4680552 C7.38393817,15.4485291 8.81929634,15.555149 9.48543305,14.8153293 L11.9384239,12.091007 C12.6053029,11.3503628 12.3502059,9.9363828 11.2595624,8.95436297 Z M9.29595938,10.5940749 C9.5524766,10.8250441 9.57318741,11.2202299 9.34221827,11.4767471 C9.11124912,11.7332643 8.71606334,11.7539751 8.45954612,11.523006 C6.90020095,10.1189653 6.50600038,7.93394658 7.68816685,6.6210177 L10.1411577,3.8966954 C11.3227571,2.58439629 13.5393995,2.7490508 15.0969234,4.15145167 C16.6558533,5.55511845 17.0489319,7.74221836 15.8667185,9.05519937 C15.6357494,9.31171659 15.2405636,9.3324274 14.9840464,9.10145825 C14.7275291,8.87048911 14.7068183,8.47530333 14.9377875,8.21878611 C15.605024,7.47774493 15.350553,6.06186167 14.2605102,5.0803827 C13.1715836,4.09990879 11.7362254,3.99328889 11.0700887,4.73310865 L8.61709789,7.45743096 C7.95021888,8.19807513 8.20531588,9.61205512 9.29595938,10.5940749 Z" id="Combined-Shape" fill="#FFFFFF"></path>
            </g>
        </g>
    </g>
</svg>